<svg
                    xmlns="http://www.w3.org/2000/svg"
                    fill="none"
                    viewBox="0 0 14 15"
                    width="60"
                    height="60"
                    role="img"
                  >
                    <path
                      fill="#FDDE00"
                      d="M9.234 1.128H1.863v10.178h7.37V1.128Z"
                    ></path>
                    <path
                      fill="#000"
                      d="M5.604 3.696c-.006.1-.046.16-.132.18-.084.02-.153-.007-.192-.086-.034-.069-.052-.147-.089-.213-.017-.032-.062-.067-.094-.07a7.198 7.198 0 0 0-.527 0c-.034.002-.08.036-.097.067-.033.055-.046.122-.073.182-.046.108-.134.15-.229.115-.093-.034-.135-.13-.095-.24.084-.233.173-.463.26-.693.097-.255.193-.512.288-.769.038-.103.098-.177.215-.175.11.002.169.072.206.172l.535 1.442c.011.032.019.066.025.087h-.001Zm-.771-1.09-.204.542h.405l-.202-.542Zm1.864-.03c.123-.175.235-.34.352-.501.055-.077.13-.108.22-.062.083.041.114.113.091.203-.01.04-.038.075-.062.11l-.387.558.417.605c.025.035.05.068.072.105.061.097.049.2-.03.257-.08.06-.182.041-.25-.052-.119-.165-.233-.334-.35-.502l-.075-.102c-.139.199-.268.393-.408.578a.274.274 0 0 1-.164.104c-.046.005-.127-.042-.143-.084a.258.258 0 0 1 .017-.2 8.57 8.57 0 0 1 .413-.598c.062-.083.063-.138 0-.22-.117-.152-.221-.314-.33-.473-.075-.11-.066-.212.02-.275.089-.064.184-.04.262.072.109.154.216.31.333.478h.002Zm-3.82-.234c-.088 0-.164.003-.24 0-.107-.005-.174-.074-.173-.174 0-.1.068-.172.175-.173.275-.003.55-.003.825 0 .11 0 .188.082.183.18-.003.096-.076.163-.183.168l-.218.007c-.003 0-.005.004-.023.018v.124c0 .403 0 .806-.002 1.208 0 .112-.067.18-.166.183-.099.003-.171-.072-.179-.185V2.343l.001-.001Z"
                    ></path>
                    <path
                      fill="#FDDE00"
                      d="m10.242 6.664-.783.232v-4.47c.208 0 .417-.008.623.002.085.005.142.073.153.164.006.042.006.085.006.127v3.945Z"
                    ></path>
                    <path
                      fill="#fff"
                      d="M8.34 9.354v.406h-.396v-.406h.396Zm.009-1.534c0 .117.003.232-.003.346-.001.022-.04.056-.063.057-.108.006-.218.003-.336.003V7.82h.402Z"
                    ></path>
                    <path
                      fill="#000"
                      d="M6.816 6.681H2.633v-.4h4.183v.4Zm.001.612v.4h-4.19v-.4h4.19ZM2.628 8.728v-.406h4.189v.406h-4.19Zm0-3.095v-.406h4.188v.406H2.628Zm5.316.644h.395v.4h-.395v-.4Zm.396-1.135h-.393v-.408h.393v.408Z"
                    ></path>
                    <path
                      fill="#FDDE00"
                      d="M10.42 10.586H9.226v.95H2.908v1.032h7.426v-.317h.086v-1.665Z"
                    ></path>
                    <path
                      fill="#000"
                      d="M10.595 10.892a2.112 2.112 0 0 0 1.895-2.078 2.053 2.053 0 0 0-.403-1.269c-.37-.505-.871-.78-1.492-.855V2.676c0-.295-.154-.521-.41-.586-.087-.023-.18-.02-.271-.023-.151-.003-.303 0-.462 0 0-.21.003-.404 0-.597a.55.55 0 0 0-.546-.554L2.066.915a.529.529 0 0 0-.543.491c-.019.22-.013.443-.01.664H1.51v8.945c0 .422.217.641.636.643h.503v.567c.001.304.167.483.433.586h7.083c.33-.123.45-.37.433-.716-.013-.27-.003-.542-.003-.813v-.392.002ZM9.46 2.426c.208 0 .417-.008.623.003.085.004.142.072.153.163a.907.907 0 0 1 .006.128v3.943l-.783.232v-4.47Zm-7.301 8.877c-.038 0-.08.009-.114-.004-.051-.02-.117-.043-.14-.084a.465.465 0 0 1-.04-.21c-.002-2.648 0-5.295-.002-7.944v-.99c.002-.182 0-.363 0-.545 0-.187.073-.263.253-.263h6.737c.173 0 .254.08.254.255v5.564c0 .035-.01.08-.031.105-.137.154-.28.305-.422.458a.374.374 0 0 0-.32-.188c-.13-.003-.26-.008-.39 0-.218.012-.349.151-.357.374a5.487 5.487 0 0 0 0 .349c.005.256.15.399.402.4h.359V9c-.143 0-.28-.004-.416 0a.332.332 0 0 0-.334.303 3.155 3.155 0 0 0 0 .51.337.337 0 0 0 .336.3c.11.003.222-.005.333.003.173.012.305-.048.387-.19.139.151.28.302.416.457a.19.19 0 0 1 .036.114c.005.167.002.332.002.5 0 .246-.058.305-.304.305H2.159v.001Zm6.186-3.137c-.001.021-.04.055-.063.056-.108.007-.218.004-.336.004v-.407h.402c0 .118.003.232-.003.347ZM8.34 9.353v.407h-.396v-.407h.396Zm1.902 1.825v.988c0 .233-.064.297-.29.297H3.493c-.09 0-.181.002-.272 0-.13-.004-.213-.077-.218-.205C2.995 12.065 3 11.87 3 11.66h.151l5.635-.001c.09 0 .184-.004.27-.027a.544.544 0 0 0 .395-.524c.003-.147 0-.294 0-.431l.79.235v.268-.003Zm.17-.644c-.945 0-1.717-.784-1.717-1.743 0-.97.765-1.748 1.722-1.748.958 0 1.723.775 1.722 1.745a1.73 1.73 0 0 1-1.726 1.746Z"
                    ></path>
                    <path
                      fill="#FBDC00"
                      d="M11.919 6.57H8.128c-.73 0-.499.592-.499 1.322v3.784c0 .73-.138 1.322.592 1.322h3.698c.73 0 .48-.592.48-1.322V7.892c0-.73.25-1.322-.48-1.322Z"
                    ></path>
                    <path
                      fill="#221F1F"
                      d="M11.992 13.089H8.038a.498.498 0 0 1-.497-.497V6.979a.498.498 0 0 1 .497-.497h3.954a.498.498 0 0 1 .498.497v5.613a.497.497 0 0 1-.498.497Zm-3.954-6.43a.319.319 0 0 0-.319.32v5.612a.319.319 0 0 0 .319.319h3.954a.32.32 0 0 0 .319-.319V6.978a.32.32 0 0 0-.319-.318H8.038Z"
                    ></path>
                    <path
                      fill="#fff"
                      d="M11.665 7.22H8.317c-.292 0-.232.238-.232.53 0 .293-.06.53.232.53h3.348c.293 0 .284-.237.284-.53 0-.292.01-.53-.284-.53Z"
                    ></path>
                    <path
                      fill="#221F1F"
                      d="M11.756 8.369H8.274a.28.28 0 0 1-.28-.28V7.41a.28.28 0 0 1 .28-.28h3.482a.28.28 0 0 1 .28.28v.677a.28.28 0 0 1-.28.28Zm-3.482-1.06a.102.102 0 0 0-.102.102v.677a.102.102 0 0 0 .102.102h3.482a.102.102 0 0 0 .101-.102v-.677a.102.102 0 0 0-.101-.102H8.274Z"
                    ></path>
                    <path
                      fill="#fff"
                      d="M8.821 9.089a.34.34 0 1 0-.68 0 .34.34 0 0 0 .68 0Z"
                    ></path>
                    <path
                      fill="#221F1F"
                      d="M8.704 9.518h-.445a.206.206 0 0 1-.207-.206v-.446a.206.206 0 0 1 .207-.206h.445a.206.206 0 0 1 .206.206v.446a.206.206 0 0 1-.206.206Zm-.445-.68a.027.027 0 0 0-.028.028v.446a.028.028 0 0 0 .028.027h.445a.027.027 0 0 0 .025-.017.027.027 0 0 0 .002-.01v-.446a.027.027 0 0 0-.027-.028h-.445Z"
                    ></path>
                    <path
                      fill="#fff"
                      d="M9.839 9.089a.34.34 0 1 0-.68 0 .34.34 0 0 0 .68 0Z"
                    ></path>
                    <path
                      fill="#221F1F"
                      d="M9.724 9.518h-.448a.206.206 0 0 1-.206-.206v-.446a.206.206 0 0 1 .206-.206h.446a.206.206 0 0 1 .206.206v.446a.206.206 0 0 1-.204.206Zm-.446-.68a.027.027 0 0 0-.027.028v.446a.028.028 0 0 0 .027.027h.446a.027.027 0 0 0 .025-.017.027.027 0 0 0 .002-.01v-.446a.027.027 0 0 0-.027-.028h-.446Z"
                    ></path>
                    <path
                      fill="#fff"
                      d="M10.86 9.089a.34.34 0 1 0-.68 0 .34.34 0 0 0 .68 0Z"
                    ></path>
                    <path
                      fill="#221F1F"
                      d="M10.743 9.518h-.445a.207.207 0 0 1-.206-.206v-.446a.207.207 0 0 1 .206-.206h.445a.206.206 0 0 1 .207.206v.446a.207.207 0 0 1-.207.206Zm-.445-.68a.028.028 0 0 0-.027.028v.446a.028.028 0 0 0 .027.027h.445a.028.028 0 0 0 .028-.027v-.446a.028.028 0 0 0-.017-.026.027.027 0 0 0-.01-.002h-.446Z"
                    ></path>
                    <path
                      fill="#fff"
                      d="M8.821 10.107a.34.34 0 1 0-.68 0 .34.34 0 0 0 .68 0Z"
                    ></path>
                    <path
                      fill="#221F1F"
                      d="M8.704 10.536h-.445a.206.206 0 0 1-.207-.207v-.445a.206.206 0 0 1 .207-.206h.445a.206.206 0 0 1 .206.206v.445a.206.206 0 0 1-.206.207Zm-.445-.68a.027.027 0 0 0-.028.028v.445a.028.028 0 0 0 .028.028h.445a.028.028 0 0 0 .027-.027v-.446a.027.027 0 0 0-.027-.028h-.445Z"
                    ></path>
                    <path
                      fill="#fff"
                      d="M9.839 10.107a.34.34 0 1 0-.68 0 .34.34 0 0 0 .68 0Z"
                    ></path>
                    <path
                      fill="#221F1F"
                      d="M9.724 10.536h-.448a.206.206 0 0 1-.206-.207v-.445a.206.206 0 0 1 .206-.206h.446a.206.206 0 0 1 .206.206v.445a.206.206 0 0 1-.204.207Zm-.446-.68a.027.027 0 0 0-.027.028v.445c0 .008.003.015.008.02a.028.028 0 0 0 .02.008h.445a.028.028 0 0 0 .027-.027v-.446a.027.027 0 0 0-.027-.028h-.446Z"
                    ></path>
                    <path
                      fill="#fff"
                      d="M10.86 10.107a.34.34 0 1 0-.679 0 .34.34 0 0 0 .68 0Z"
                    ></path>
                    <path
                      fill="#221F1F"
                      d="M10.743 10.536h-.445a.207.207 0 0 1-.206-.207v-.445a.206.206 0 0 1 .206-.206h.445a.206.206 0 0 1 .207.206v.445a.207.207 0 0 1-.207.207Zm-.445-.68a.028.028 0 0 0-.027.028v.445c0 .008.002.015.008.02a.028.028 0 0 0 .019.008h.445a.028.028 0 0 0 .028-.027v-.446a.027.027 0 0 0-.028-.028h-.445Z"
                    ></path>
                    <path
                      fill="#fff"
                      d="M8.821 11.124a.34.34 0 1 0-.68 0 .34.34 0 0 0 .68 0Z"
                    ></path>
                    <path
                      fill="#221F1F"
                      d="M8.704 11.552h-.445a.207.207 0 0 1-.207-.206v-.445a.206.206 0 0 1 .207-.207h.445a.207.207 0 0 1 .206.207v.445a.206.206 0 0 1-.206.206Zm-.445-.679c-.004 0-.008 0-.011.002a.027.027 0 0 0-.015.015.027.027 0 0 0-.002.01v.446c0 .008.003.015.008.02a.028.028 0 0 0 .02.008h.445a.027.027 0 0 0 .027-.028v-.445a.027.027 0 0 0-.027-.028h-.445Z"
                    ></path>
                    <path
                      fill="#fff"
                      d="M9.839 11.124a.34.34 0 1 0-.68 0 .34.34 0 0 0 .68 0Z"
                    ></path>
                    <path
                      fill="#221F1F"
                      d="M9.724 11.552h-.448a.207.207 0 0 1-.206-.206v-.445a.207.207 0 0 1 .206-.207h.446a.207.207 0 0 1 .206.207v.445a.206.206 0 0 1-.204.206Zm-.446-.679a.027.027 0 0 0-.027.028v.445a.028.028 0 0 0 .027.028h.446a.027.027 0 0 0 .027-.028v-.445a.027.027 0 0 0-.027-.028h-.446Z"
                    ></path>
                    <path
                      fill="#fff"
                      d="M10.86 11.124a.34.34 0 1 0-.679 0 .34.34 0 0 0 .68 0Z"
                    ></path>
                    <path
                      fill="#221F1F"
                      d="M10.743 11.552h-.445a.207.207 0 0 1-.206-.206v-.445a.207.207 0 0 1 .127-.19.207.207 0 0 1 .079-.017h.445a.206.206 0 0 1 .207.207v.445a.207.207 0 0 1-.207.206Zm-.445-.679a.027.027 0 0 0-.027.028v.445c0 .008.002.015.007.02a.028.028 0 0 0 .02.008h.445a.028.028 0 0 0 .028-.028v-.445a.027.027 0 0 0-.028-.028h-.445Z"
                    ></path>
                    <path
                      fill="#fff"
                      d="M8.821 12.142a.34.34 0 1 0-.68 0 .34.34 0 0 0 .68 0Z"
                    ></path>
                    <path
                      fill="#221F1F"
                      d="M8.704 12.57h-.445a.206.206 0 0 1-.207-.207v-.445a.206.206 0 0 1 .207-.206h.445a.206.206 0 0 1 .206.206v.445a.206.206 0 0 1-.206.206Zm-.445-.68a.028.028 0 0 0-.028.028v.446a.028.028 0 0 0 .028.027h.445a.028.028 0 0 0 .027-.027v-.446a.028.028 0 0 0-.027-.027h-.445Z"
                    ></path>
                    <path
                      fill="#fff"
                      d="M9.839 12.142a.34.34 0 1 0-.68 0 .34.34 0 0 0 .68 0Z"
                    ></path>
                    <path
                      fill="#221F1F"
                      d="M9.724 12.57h-.448a.206.206 0 0 1-.206-.207v-.445a.207.207 0 0 1 .206-.206h.446a.206.206 0 0 1 .206.206v.445a.206.206 0 0 1-.204.206Zm-.446-.68a.028.028 0 0 0-.027.028v.446a.028.028 0 0 0 .027.027h.446a.028.028 0 0 0 .027-.027v-.446a.028.028 0 0 0-.027-.027h-.446Z"
                    ></path>
                    <path
                      fill="#fff"
                      d="M10.86 12.142a.34.34 0 1 0-.679 0 .34.34 0 0 0 .68 0Z"
                    ></path>
                    <path
                      fill="#221F1F"
                      d="M10.743 12.57h-.445a.207.207 0 0 1-.206-.207v-.445a.206.206 0 0 1 .206-.206h.445a.206.206 0 0 1 .207.206v.445a.207.207 0 0 1-.207.206Zm-.445-.68a.028.028 0 0 0-.02.009.028.028 0 0 0-.008.019v.446a.028.028 0 0 0 .028.027h.445a.028.028 0 0 0 .028-.027v-.446a.028.028 0 0 0-.008-.02.027.027 0 0 0-.02-.007h-.445Z"
                    ></path>
                    <path
                      fill="#fff"
                      d="M11.909 9.089a.34.34 0 1 0-.68 0 .34.34 0 0 0 .68 0Z"
                    ></path>
                    <path
                      fill="#221F1F"
                      d="M11.791 9.518h-.445a.206.206 0 0 1-.206-.206v-.446a.207.207 0 0 1 .206-.206h.445a.206.206 0 0 1 .207.206v.446a.207.207 0 0 1-.207.206Zm-.445-.68a.027.027 0 0 0-.027.028v.446a.028.028 0 0 0 .027.028h.445a.028.028 0 0 0 .028-.028v-.446a.028.028 0 0 0-.028-.028h-.445Z"
                    ></path>
                    <path
                      fill="#fff"
                      d="M11.909 10.107a.34.34 0 1 0-.68 0 .34.34 0 0 0 .68 0Z"
                    ></path>
                    <path
                      fill="#221F1F"
                      d="M11.791 10.536h-.445a.206.206 0 0 1-.206-.207v-.445a.207.207 0 0 1 .206-.206h.445a.206.206 0 0 1 .207.206v.445a.207.207 0 0 1-.207.207Zm-.445-.68a.027.027 0 0 0-.027.028v.445a.028.028 0 0 0 .027.028h.445a.028.028 0 0 0 .02-.008.028.028 0 0 0 .008-.02v-.445a.028.028 0 0 0-.028-.028h-.445Z"
                    ></path>
                    <path
                      fill="#fff"
                      d="M11.905 11.125a.34.34 0 1 0-.68 0v1.017a.34.34 0 0 0 .68 0v-1.017Z"
                    ></path>
                    <path
                      fill="#221F1F"
                      d="M11.768 12.573h-.405a.227.227 0 0 1-.226-.227v-1.422a.227.227 0 0 1 .226-.227h.405a.227.227 0 0 1 .227.227v1.422a.227.227 0 0 1-.227.227Zm-.405-1.697a.048.048 0 0 0-.048.048v1.422a.048.048 0 0 0 .048.048h.405a.048.048 0 0 0 .048-.048v-1.422a.048.048 0 0 0-.048-.048h-.405Z"
                    ></path>
                  </svg>