<svg xmlns="http://www.w3.org/2000/svg" fill="none" viewBox="0 0 14 14" width="40" height="40" role="img"><path class="ic-a-book_svg__ic_a_book" fill="#FBDC00" d="M12.75 10.698V4.715a.967.967 0 0 0-.968-.967H2.219a.967.967 0 0 0-.968.967v5.983c0 .534.433.968.968.968h9.563a.968.968 0 0 0 .967-.968Z"></path><path class="ic-a-book_svg__ic_a_book" fill="#231F20" d="M12.895 4.529v6.355a.927.927 0 0 1-.927.927H2.032a.927.927 0 0 1-.927-.927V4.53a.927.927 0 0 1 .927-.927h9.936a.927.927 0 0 1 .927.927ZM1.397 10.884a.636.636 0 0 0 .635.635h9.936a.635.635 0 0 0 .635-.634V4.529a.636.636 0 0 0-.635-.635H2.032a.636.636 0 0 0-.635.635v6.355Z"></path><path class="ic-a-book_svg__ic_a_book" fill="#231F20" d="M12.749 5.85h-11.5a.145.145 0 0 1-.144-.147.144.144 0 0 1 .145-.145h11.498a.144.144 0 0 1 .144.145.144.144 0 0 1-.143.147Z"></path><path class="ic-a-book_svg__ic_a_book" fill="#fff" d="M5.396 2.335H3.682v2.388h1.714V2.335Z"></path><path class="ic-a-book_svg__ic_a_book" fill="#231F20" d="M3.68 2.189h1.715a.144.144 0 0 1 .145.144v2.39a.144.144 0 0 1-.145.144H3.68a.144.144 0 0 1-.144-.145V2.333a.144.144 0 0 1 .144-.144Zm1.57.291H3.827v2.097H5.25V2.48Z"></path><path class="ic-a-book_svg__ic_a_book" fill="#fff" d="M10.318 2.335H8.604v2.388h1.714V2.335Z"></path><path class="ic-a-book_svg__ic_a_book" fill="#231F20" d="M8.603 2.189h1.715a.144.144 0 0 1 .145.144v2.39a.144.144 0 0 1-.145.144H8.603a.144.144 0 0 1-.144-.145V2.333a.144.144 0 0 1 .144-.144Zm1.57.291H8.75v2.097h1.423V2.48Z"></path><path class="ic-a-book_svg__ic_a_book" fill="#fff" d="M4.07 6.675H2.397v1.673H4.07V6.675Z"></path><path class="ic-a-book_svg__ic_a_book" fill="#231F20" d="M2.396 6.53H4.07a.144.144 0 0 1 .145.144v1.674a.144.144 0 0 1-.145.145H2.396a.144.144 0 0 1-.145-.145V6.674a.144.144 0 0 1 .145-.145Zm1.527.29h-1.38v1.383h1.381V6.82Z"></path><path class="ic-a-book_svg__ic_a_book" fill="#fff" d="M6.655 6.675H4.982v1.673h1.673V6.675Z"></path><path class="ic-a-book_svg__ic_a_book" fill="#231F20" d="M4.981 6.53h1.675a.144.144 0 0 1 .144.144v1.674a.144.144 0 0 1-.144.145H4.98a.144.144 0 0 1-.144-.145V6.674a.144.144 0 0 1 .144-.145Zm1.528.29h-1.38v1.383h1.38V6.82Z"></path><path class="ic-a-book_svg__ic_a_book" fill="#fff" d="M9.24 6.675H7.568v1.673h1.674V6.675Z"></path><path class="ic-a-book_svg__ic_a_book" fill="#231F20" d="M7.566 6.53h1.675a.144.144 0 0 1 .144.144v1.674a.144.144 0 0 1-.144.145H7.566a.144.144 0 0 1-.144-.145V6.674a.144.144 0 0 1 .144-.145Zm1.528.29h-1.38v1.383h1.38V6.82Z"></path><path class="ic-a-book_svg__ic_a_book" fill="#fff" d="M11.825 6.675h-1.673v1.673h1.673V6.675Z"></path><path class="ic-a-book_svg__ic_a_book" fill="#231F20" d="M10.151 6.53h1.675a.144.144 0 0 1 .144.144v1.674a.144.144 0 0 1-.144.145H10.15a.144.144 0 0 1-.144-.145V6.674a.144.144 0 0 1 .144-.145Zm1.528.29h-1.38v1.383h1.381l-.001-1.382Z"></path><path class="ic-a-book_svg__ic_a_book" fill="#fff" d="M4.07 9.098H2.397v1.673H4.07V9.098Z"></path><path class="ic-a-book_svg__ic_a_book" fill="#231F20" d="M2.396 8.953H4.07a.144.144 0 0 1 .145.144v1.675a.144.144 0 0 1-.145.144H2.396a.144.144 0 0 1-.145-.145V9.098a.144.144 0 0 1 .145-.144Zm1.527.291h-1.38v1.382h1.381V9.244Z"></path><path class="ic-a-book_svg__ic_a_book" fill="#fff" d="M6.655 9.098H4.982v1.673h1.673V9.098Z"></path><path class="ic-a-book_svg__ic_a_book" fill="#231F20" d="M4.981 8.953h1.675a.144.144 0 0 1 .144.144v1.675a.144.144 0 0 1-.144.144H4.98a.144.144 0 0 1-.144-.145V9.098a.144.144 0 0 1 .144-.144Zm1.528.291h-1.38v1.382h1.38V9.244Z"></path><path class="ic-a-book_svg__ic_a_book" fill="#fff" d="M9.24 9.098H7.568v1.673h1.674V9.098Z"></path><path class="ic-a-book_svg__ic_a_book" fill="#231F20" d="M7.566 8.953h1.675a.144.144 0 0 1 .144.144v1.675a.144.144 0 0 1-.144.144H7.566a.144.144 0 0 1-.144-.145V9.098a.144.144 0 0 1 .144-.144Zm1.528.291h-1.38v1.382h1.38V9.244Z"></path><path class="ic-a-book_svg__ic_a_book" fill="#fff" d="M11.825 9.098h-1.673v1.673h1.673V9.098Z"></path><path class="ic-a-book_svg__ic_a_book" fill="#231F20" d="M10.151 8.953h1.675a.144.144 0 0 1 .144.144v1.675a.143.143 0 0 1-.089.133.144.144 0 0 1-.055.01H10.15a.144.144 0 0 1-.133-.088.145.145 0 0 1-.011-.056V9.098a.144.144 0 0 1 .144-.144Zm1.528.291h-1.38v1.382h1.381l-.001-1.382Zm-3.948-.915a.145.145 0 0 1-.135-.09.144.144 0 0 1 .032-.159l1.51-1.508a.145.145 0 0 1 .205 0 .144.144 0 0 1 0 .206L7.835 8.286a.144.144 0 0 1-.104.043Z"></path><path class="ic-a-book_svg__ic_a_book" fill="#231F20" d="M9.155 8.407a.144.144 0 0 1-.103-.042L7.464 6.778a.144.144 0 0 1 0-.206.144.144 0 0 1 .206 0L9.257 8.16a.144.144 0 0 1-.102.248ZM5.16 10.739a.144.144 0 0 1-.135-.09.144.144 0 0 1 .032-.16l1.496-1.494a.144.144 0 0 1 .206 0 .144.144 0 0 1 0 .206l-1.495 1.495a.145.145 0 0 1-.104.043Z"></path><path class="ic-a-book_svg__ic_a_book" fill="#231F20" d="M6.348 10.61a.142.142 0 0 1-.103-.043L4.879 9.201a.145.145 0 0 1 0-.206.144.144 0 0 1 .207 0l1.365 1.366a.144.144 0 0 1-.103.249Z"></path></svg>