 <svg
                    xmlns="http://www.w3.org/2000/svg"
                    fill="none"
                    viewBox="0 0 15 14"
                    width="60"
                    height="60"
                    role="img"
                  >
                    <path
                      fill="#FBDC00"
                      d="M11.587 10.24h-7.86l-.762-6.936H1.123V2.54H3.64l.761 6.937h7.185v.765Z"
                    ></path>
                    <path
                      fill="#000"
                      d="M11.587 10.363h-7.86a.123.123 0 0 1-.123-.11l-.749-6.827H1.122A.122.122 0 0 1 1 3.304v-.765a.122.122 0 0 1 .122-.122h2.519a.122.122 0 0 1 .121.109l.75 6.828h7.075a.122.122 0 0 1 .122.122v.765a.122.122 0 0 1-.122.122Zm-7.75-.245h7.628v-.52H4.402a.123.123 0 0 1-.121-.109l-.75-6.828H1.245v.521h1.72a.122.122 0 0 1 .122.11l.75 6.826Z"
                    ></path>
                    <path
                      fill="#FBDC00"
                      d="M5.235 11.461a.738.738 0 1 0 0-1.475.738.738 0 0 0 0 1.475Z"
                    ></path>
                    <path
                      fill="#000"
                      d="M5.235 11.583a.861.861 0 1 1 0-1.722.861.861 0 0 1 0 1.722Zm0-1.475a.616.616 0 0 0 0 1.23.616.616 0 0 0 0-1.23Z"
                    ></path>
                    <path
                      fill="#FBDC00"
                      d="M10.04 11.461a.738.738 0 1 0 0-1.475.738.738 0 0 0 0 1.475Z"
                    ></path>
                    <path
                      fill="#000"
                      d="M10.04 11.583a.861.861 0 1 1 0-1.722.861.861 0 0 1 0 1.722Zm0-1.475a.616.616 0 0 0 0 1.23.616.616 0 0 0 0-1.23Z"
                    ></path>
                    <path
                      fill="#fff"
                      d="M3.725 3.304h9.206l-1.309 5.453H4.323l-.598-5.453Z"
                    ></path>
                    <path
                      fill="#000"
                      d="M11.623 8.881H4.324a.123.123 0 0 1-.121-.109l-.599-5.453a.123.123 0 0 1 .122-.136h9.206a.122.122 0 0 1 .12.096.121.121 0 0 1 0 .055l-1.31 5.454a.123.123 0 0 1-.12.093Zm-7.19-.244h7.094l1.25-5.21H3.862l.572 5.21Z"
                    ></path>
                    <path
                      fill="#FBDC00"
                      d="M9.99 4.248H6.736v3.314H9.99V4.248Z"
                    ></path>
                    <path
                      fill="#000"
                      d="M9.99 7.684H6.736a.122.122 0 0 1-.123-.122V4.248a.122.122 0 0 1 .123-.122H9.99a.123.123 0 0 1 .122.122v3.314a.122.122 0 0 1-.122.122Zm-3.133-.245h3.011V4.371h-3.01v3.068Z"
                    ></path>
                    <path fill="#fff" d="M8.98 4.374v1.072H7.746V4.374"></path>
                    <path
                      fill="#000"
                      d="M8.98 5.569H7.746a.122.122 0 0 1-.122-.123V4.374a.122.122 0 0 1 .244 0v.95h.991v-.95a.122.122 0 0 1 .245 0v1.072a.122.122 0 0 1-.122.123Zm-.609 1.229H7.228a.122.122 0 1 1 0-.245h1.143a.123.123 0 0 1 0 .245Zm-1.685-1.76H5.022a.122.122 0 1 1 0-.244h1.664a.122.122 0 0 1 0 .244Zm.001.689h-1.22a.122.122 0 1 1 0-.244h1.22a.123.123 0 0 1 .086.208.123.123 0 0 1-.086.036Zm0 .688h-1.22a.122.122 0 1 1 0-.245h1.22a.122.122 0 1 1 0 .245Zm-.001.689H5.022a.122.122 0 1 1 0-.244h1.664a.122.122 0 0 1 0 .244Z"
                    ></path>
                    <path
                      fill="#fff"
                      d="M9.933 8.008c.492 0 .89-.41.89-.915a.903.903 0 0 0-.89-.914.903.903 0 0 0-.891.914c0 .505.399.915.89.915Z"
                    ></path>
                    <path
                      fill="#000"
                      d="M9.933 8.13A1.027 1.027 0 0 1 8.92 7.093a1.027 1.027 0 0 1 1.013-1.037 1.027 1.027 0 0 1 1.013 1.037A1.027 1.027 0 0 1 9.933 8.13Zm0-1.83a.782.782 0 0 0-.769.793.781.781 0 0 0 .769.793.781.781 0 0 0 .768-.793.781.781 0 0 0-.768-.792Z"
                    ></path>
                    <path fill="#fff" d="M9.904 6.741v.44l.242.093"></path>
                    <path
                      fill="#000"
                      d="M10.146 7.395a.12.12 0 0 1-.044-.008l-.24-.092a.123.123 0 0 1-.08-.115v-.44a.122.122 0 0 1 .245 0v.356l.163.062a.122.122 0 0 1-.044.237Z"
                    ></path>
                  </svg>