<svg
                    xmlns="http://www.w3.org/2000/svg"
                    fill="none"
                    viewBox="0 0 14 14"
                    width="60"
                    height="60"
                    role="img"
                  >
                    <path
                      fill="#FBDC00"
                      d="M12.631 2.542c-2.866 1.19-4.335-1.35-5.628-1.28h-.006c-1.293-.07-2.762 2.471-5.628 1.28C.817 6.663 2.756 11.279 7 12.739c4.244-1.462 6.183-6.076 5.631-10.197Z"
                    ></path>
                    <path
                      fill="#231F20"
                      d="M7.056 1.26c1.033 0 2.188 1.6 4.082 1.6a3.862 3.862 0 0 0 1.493-.318c.552 4.121-1.387 8.737-5.631 10.197C2.756 11.28.817 6.663 1.369 2.543c.468.203.976.312 1.493.318 1.893 0 3.05-1.6 4.082-1.6h.111m0-.26h-.111a3.204 3.204 0 0 0-1.586.665 4.673 4.673 0 0 1-2.496.934 3.552 3.552 0 0 1-1.38-.295.295.295 0 0 0-.345.093.25.25 0 0 0-.045.113c-.54 4.025 1.284 8.916 5.811 10.474a.297.297 0 0 0 .194 0c4.527-1.559 6.35-6.45 5.811-10.474a.25.25 0 0 0-.045-.113.273.273 0 0 0-.095-.082.294.294 0 0 0-.25-.01 3.555 3.555 0 0 1-1.38.294 4.674 4.674 0 0 1-2.496-.934c-.45-.359-1-.59-1.586-.665Z"
                    ></path>
                    <path
                      fill="#fff"
                      d="M7 11.868c-1.704-.714-3.066-1.988-3.83-3.579a9.629 9.629 0 0 1-1.02-4.677c.234.04.472.061.71.062 1.54 0 2.662-.835 3.431-1.3a1.498 1.498 0 0 1 1.414 0c.77.464 1.891 1.3 3.432 1.3a4.38 4.38 0 0 0 .71-.062 9.63 9.63 0 0 1-1.02 4.677C10.067 9.88 8.704 11.154 7 11.868Z"
                    ></path>
                    <path
                      fill="#000"
                      d="m7 12.009-.055-.022c-1.734-.727-3.122-2.023-3.9-3.642a9.714 9.714 0 0 1-1.034-4.737l.006-.15.159.026c.227.037.456.056.687.057A5.683 5.683 0 0 0 5.92 2.447l.298-.186a1.634 1.634 0 0 1 1.565 0c.093.056.193.119.297.186a5.683 5.683 0 0 0 3.058 1.094c.23 0 .46-.02.687-.057l.16-.026.005.15a9.71 9.71 0 0 1-1.034 4.737c-.778 1.62-2.166 2.915-3.9 3.642L7 12.01ZM2.286 3.764a9.45 9.45 0 0 0 1.011 4.47c.741 1.542 2.057 2.782 3.703 3.49 1.646-.708 2.962-1.948 3.703-3.492a9.45 9.45 0 0 0 1.011-4.47c-.19.026-.383.038-.576.038a5.926 5.926 0 0 1-3.213-1.138c-.103-.062-.199-.124-.293-.181a1.359 1.359 0 0 0-1.26 0 16.67 16.67 0 0 0-.294.182 5.928 5.928 0 0 1-3.213 1.138c-.194 0-.387-.013-.579-.037v-.001Z"
                    ></path>
                    <path
                      fill="#FBDC00"
                      d="M8.884 4.532a.407.407 0 0 0-.537.046c-.091.103-.163.22-.211.346a1.886 1.886 0 0 0-.621-.348 1.98 1.98 0 0 0-.717-.1 1.92 1.92 0 0 0-1.288.567 1.67 1.67 0 0 0-.482 1.25c.025.46.243.891.608 1.2.366.31.847.472 1.34.45a1.92 1.92 0 0 0 1.287-.567c.332-.34.505-.79.482-1.25a1.65 1.65 0 0 0-.313-.883c.146-.047.282-.118.403-.21a.346.346 0 0 0 .05-.502ZM6.941 7.258a1.177 1.177 0 0 1-.81-.272 1.025 1.025 0 0 1-.368-.726 1.01 1.01 0 0 1 .292-.756c.2-.206.48-.329.778-.343.298-.013.589.085.81.272.22.187.353.448.367.726a1.01 1.01 0 0 1-.292.753c-.2.205-.48.328-.776.342l-.001.004Z"
                    ></path>
                    <path
                      fill="#231F20"
                      d="M8.665 4.448a.32.32 0 0 1 .219.083.346.346 0 0 1-.05.501c-.12.091-.257.162-.403.21.19.262.298.568.314.883.023.46-.15.91-.482 1.25a1.92 1.92 0 0 1-1.288.567h-.09c-.477 0-.936-.173-1.282-.48a1.69 1.69 0 0 1-.575-1.172c-.023-.46.15-.91.482-1.25a1.92 1.92 0 0 1 1.288-.568h.09c.461 0 .906.161 1.248.45.049-.125.12-.242.21-.345a.487.487 0 0 1 .319-.13Zm-1.78 2.81h.056c.298-.015.577-.138.778-.344.2-.206.305-.478.291-.755a1.023 1.023 0 0 0-.348-.71 1.172 1.172 0 0 0-.775-.29h-.054a1.162 1.162 0 0 0-.779.343 1.01 1.01 0 0 0-.292.756c.015.27.14.523.349.709.209.186.486.29.775.29Zm1.78-3.071a.777.777 0 0 0-.516.205.786.786 0 0 0-.111.133 2.243 2.243 0 0 0-1.15-.314h-.104a2.207 2.207 0 0 0-1.48.652A1.92 1.92 0 0 0 4.75 6.3c.025.513.262.996.66 1.35a2.22 2.22 0 0 0 1.476.551h.103a2.207 2.207 0 0 0 1.48-.652 1.92 1.92 0 0 0 .555-1.438 1.882 1.882 0 0 0-.2-.754.953.953 0 0 0 .21-.141.698.698 0 0 0 .212-.388.512.512 0 0 0-.017-.26.542.542 0 0 0-.145-.222.621.621 0 0 0-.416-.159h-.003Zm-1.78 2.81a.878.878 0 0 1-.583-.218.766.766 0 0 1-.26-.534.736.736 0 0 1 .048-.304.776.776 0 0 1 .17-.264.839.839 0 0 1 .266-.184.89.89 0 0 1 .32-.074h.041c.217 0 .426.078.583.218.158.14.251.33.261.533a.76.76 0 0 1-.219.568.873.873 0 0 1-.585.258h-.041Z"
                    ></path>
                    <path
                      fill="#FBDC00"
                      d="M8.588 8.35c-.073-.083-.188-.039-.265.017-.1.074-.205.144-.313.208-.217.13-.458.22-.711.265a2.964 2.964 0 0 1-.824 0 2.073 2.073 0 0 1-.71-.265 3.662 3.662 0 0 1-.314-.208c-.076-.055-.192-.1-.265-.018a.475.475 0 0 0 .052.557c.151.19.352.338.583.433l.013.007c.328.147.689.219 1.052.207.364.011.725-.06 1.052-.207l.013-.007a1.45 1.45 0 0 0 .583-.433.475.475 0 0 0 .054-.557Z"
                    ></path>
                    <path
                      fill="#231F20"
                      d="M8.485 8.304a.128.128 0 0 1 .103.046.475.475 0 0 1-.053.556 1.451 1.451 0 0 1-.584.433l-.012.007a2.379 2.379 0 0 1-1.053.207 2.378 2.378 0 0 1-1.052-.207l-.013-.007a1.451 1.451 0 0 1-.583-.433.475.475 0 0 1-.052-.557.127.127 0 0 1 .045-.034.136.136 0 0 1 .057-.011c.06.004.116.026.162.062.1.074.205.144.314.208a2.063 2.063 0 0 0 1.122.294c.138 0 .275-.01.412-.03a2.07 2.07 0 0 0 .71-.264 3.86 3.86 0 0 0 .313-.208.297.297 0 0 1 .162-.062m0-.26a.579.579 0 0 0-.331.117 3.42 3.42 0 0 1-.29.193 1.763 1.763 0 0 1-.975.253 2.349 2.349 0 0 1-.365-.025 1.785 1.785 0 0 1-.61-.228 3.42 3.42 0 0 1-.289-.193.579.579 0 0 0-.331-.118.43.43 0 0 0-.176.037.403.403 0 0 0-.141.103.71.71 0 0 0 .03.866c.178.229.416.409.692.523l.01.005c.368.168.774.25 1.183.238.407.012.81-.07 1.177-.235l.016-.008a1.69 1.69 0 0 0 .691-.523.71.71 0 0 0 .032-.866.431.431 0 0 0-.318-.14h-.005Z"
                    ></path>
                  </svg>