<svg xmlns="http://www.w3.org/2000/svg" fill="none" viewBox="0 0 14 14" width="40" height="40" role="img"><path class="ic-a-discover_svg__ic_a_discover" stroke="#221F1F" stroke-linecap="round" stroke-linejoin="round" stroke-width="0.264" d="M12.613 7h-1.576"></path><path class="ic-a-discover_svg__ic_a_discover" fill="#FBDC00" stroke="#221F1F" stroke-linecap="round" stroke-linejoin="round" stroke-width="0.264" d="M7 12.85a5.85 5.85 0 1 0 0-11.7 5.85 5.85 0 0 0 0 11.7Z"></path><path class="ic-a-discover_svg__ic_a_discover" fill="#fff" stroke="#221F1F" stroke-linecap="round" stroke-linejoin="round" stroke-width="0.264" d="M9.383 4.371 5.72 5.652a.11.11 0 0 0-.068.068L4.37 9.383a.21.21 0 0 0 .246.246L8.28 8.348a.109.109 0 0 0 .068-.068l1.28-3.663a.21.21 0 0 0-.245-.246Z"></path><path class="ic-a-discover_svg__ic_a_discover" fill="#221F1F" d="M7 7.762a.762.762 0 1 0 0-1.524.762.762 0 0 0 0 1.524Z"></path><path class="ic-a-discover_svg__ic_a_discover" stroke="#221F1F" stroke-linecap="round" stroke-linejoin="round" stroke-width="0.264" d="M7 1.387v1.576m0 9.65v-1.576M1.387 7h1.576"></path></svg>