<svg
                    xmlns="http://www.w3.org/2000/svg"
                    fill="none"
                    viewBox="0 0 14 14"
                    width="60"
                    height="60"
                    role="img"
                  >
                    <path
                      fill="#fff"
                      d="M9.619 11.736a2.129 2.129 0 1 0 0-4.259 2.129 2.129 0 0 0 0 4.258Z"
                    ></path>
                    <path
                      fill="#000"
                      d="M9.619 11.849a2.245 2.245 0 0 1-2.243-2.242A2.245 2.245 0 0 1 9.62 7.364a2.245 2.245 0 0 1 2.242 2.243 2.245 2.245 0 0 1-2.242 2.242Zm0-4.258a2.019 2.019 0 0 0-2.016 2.016 2.018 2.018 0 0 0 2.016 2.016 2.018 2.018 0 0 0 2.016-2.016A2.018 2.018 0 0 0 9.619 7.59Z"
                    ></path>
                    <path
                      fill="#fff"
                      d="M9.687 6.635a2.185 2.185 0 1 0 0-4.37 2.185 2.185 0 0 0 0 4.37Z"
                    ></path>
                    <path
                      fill="#000"
                      d="M9.688 6.748a2.3 2.3 0 1 1 0-4.6 2.3 2.3 0 0 1 0 4.6Zm0-4.37A2.074 2.074 0 0 0 7.614 4.45a2.074 2.074 0 0 0 2.072 2.072A2.074 2.074 0 0 0 11.76 4.45a2.074 2.074 0 0 0-2.072-2.072Z"
                    ></path>
                    <path
                      fill="#fff"
                      d="M4.381 11.736a2.129 2.129 0 1 0 0-4.259 2.129 2.129 0 0 0 0 4.258Z"
                    ></path>
                    <path
                      fill="#000"
                      d="M4.381 11.849a2.245 2.245 0 0 1-2.243-2.242 2.245 2.245 0 0 1 2.243-2.243 2.245 2.245 0 0 1 2.242 2.243 2.245 2.245 0 0 1-2.242 2.242Zm0-4.258a2.018 2.018 0 0 0-2.016 2.016 2.018 2.018 0 0 0 2.016 2.016 2.018 2.018 0 0 0 2.016-2.016A2.018 2.018 0 0 0 4.381 7.59Z"
                    ></path>
                    <path
                      fill="#fff"
                      d="M4.312 6.635a2.185 2.185 0 1 0 0-4.37 2.185 2.185 0 0 0 0 4.37Z"
                    ></path>
                    <path
                      fill="#000"
                      d="M4.314 6.748a2.3 2.3 0 1 1 0-4.6 2.3 2.3 0 0 1 0 4.6Zm0-4.37A2.074 2.074 0 0 0 2.242 4.45a2.074 2.074 0 0 0 2.072 2.072A2.074 2.074 0 0 0 6.386 4.45a2.074 2.074 0 0 0-2.072-2.072Z"
                    ></path>
                    <path
                      fill="#fff"
                      d="M7.05 10.026a2.97 2.97 0 1 0 0-5.941 2.97 2.97 0 0 0 0 5.941Z"
                    ></path>
                    <path
                      fill="#FBDC00"
                      d="M9.246 7.391v-.727l-.511-.038a1.726 1.726 0 0 0-.213-.513l.345-.385-.513-.514-.391.337a1.728 1.728 0 0 0-.516-.216l-.028-.512h-.727l-.037.507a1.73 1.73 0 0 0-.534.22l-.38-.339-.514.514.334.386a1.726 1.726 0 0 0-.215.516l-.502.027v.726l.5.037c.043.19.119.371.223.536l-.343.382.514.514.392-.338c.162.1.339.172.524.214l.028.506h.727l.037-.51a1.73 1.73 0 0 0 .514-.215l.391.35.514-.514-.343-.4c.1-.162.174-.34.217-.526l.507-.025Zm-2.197.48a.843.843 0 1 1-.001-1.685.843.843 0 0 1 .001 1.684Z"
                    ></path>
                    <path
                      fill="#000"
                      d="M7.407 9.345H6.68a.113.113 0 0 1-.112-.107l-.024-.423a1.847 1.847 0 0 1-.4-.165l-.331.286a.113.113 0 0 1-.154-.005l-.514-.514a.113.113 0 0 1-.004-.156l.287-.32a1.839 1.839 0 0 1-.173-.416l-.418-.03a.114.114 0 0 1-.105-.114v-.727a.114.114 0 0 1 .107-.112l.42-.023c.04-.138.094-.27.164-.395l-.28-.325a.113.113 0 0 1 .005-.154l.514-.514a.113.113 0 0 1 .156-.004l.318.285c.13-.074.27-.131.413-.171l.032-.425a.113.113 0 0 1 .113-.105h.726a.113.113 0 0 1 .114.107l.024.43c.137.04.27.095.394.165l.329-.284a.113.113 0 0 1 .154.006l.514.514a.114.114 0 0 1 .004.155l-.29.324c.07.125.124.256.163.393l.43.031a.114.114 0 0 1 .105.113v.727a.114.114 0 0 1-.107.113l-.425.024c-.04.14-.096.277-.168.405l.291.337a.114.114 0 0 1-.006.153l-.514.514a.113.113 0 0 1-.156.005l-.329-.295c-.124.07-.256.125-.393.164l-.032.43a.113.113 0 0 1-.115.103Zm-.619-.226h.514l.03-.406a.113.113 0 0 1 .087-.1c.17-.04.332-.108.48-.2a.114.114 0 0 1 .136.012l.311.278.364-.364-.275-.318a.113.113 0 0 1-.01-.134c.094-.151.162-.317.202-.491a.113.113 0 0 1 .105-.088l.4-.022V6.77l-.407-.03a.113.113 0 0 1-.1-.087 1.615 1.615 0 0 0-.2-.48.113.113 0 0 1 .012-.135l.274-.305-.364-.364-.31.268a.113.113 0 0 1-.135.01 1.62 1.62 0 0 0-.482-.2.113.113 0 0 1-.086-.104l-.023-.404h-.514l-.03.4a.113.113 0 0 1-.088.1c-.177.04-.346.11-.5.206a.114.114 0 0 1-.135-.011l-.3-.269-.364.364.265.307a.113.113 0 0 1 .01.134 1.63 1.63 0 0 0-.2.482.114.114 0 0 1-.104.087l-.395.022v.515l.395.029a.113.113 0 0 1 .1.087c.04.177.111.346.208.5a.113.113 0 0 1-.012.136l-.27.303.363.363.312-.27a.114.114 0 0 1 .134-.01c.15.093.316.16.489.2a.113.113 0 0 1 .088.104l.025.4Zm.261-1.135a.957.957 0 0 1 0-1.912.957.957 0 0 1 0 1.912Zm0-1.686a.73.73 0 0 0 0 1.458.73.73 0 0 0 0-1.458Z"
                    ></path>
                    <path
                      fill="#FBDC00"
                      d="m3.197 3.974.724-.453v1.386h-.724v-.933Z"
                    ></path>
                    <path
                      fill="#000"
                      d="M3.921 5.02h-.724a.113.113 0 0 1-.114-.113v-.934a.113.113 0 0 1 .053-.096l.724-.452a.114.114 0 0 1 .174.097v1.385a.114.114 0 0 1-.113.113Zm-.61-.226h.497V3.725l-.498.31v.758Z"
                    ></path>
                    <path
                      fill="#FBDC00"
                      d="m3.92 3.974.724-.453v1.386H3.92v-.933Z"
                    ></path>
                    <path
                      fill="#000"
                      d="M4.645 5.02h-.724a.113.113 0 0 1-.114-.113v-.934a.114.114 0 0 1 .054-.096l.724-.452a.113.113 0 0 1 .174.097v1.385a.114.114 0 0 1-.114.113Zm-.611-.226h.497V3.725l-.497.31v.758Z"
                    ></path>
                    <path
                      fill="#FBDC00"
                      d="m4.645 3.974.724-.453v1.386h-.724v-.933Z"
                    ></path>
                    <path
                      fill="#000"
                      d="M5.369 5.02h-.724a.113.113 0 0 1-.114-.113v-.934a.113.113 0 0 1 .054-.096l.724-.452a.114.114 0 0 1 .173.097v1.385a.114.114 0 0 1-.113.113Zm-.61-.226h.497V3.725l-.498.31v.758Z"
                    ></path>
                    <path
                      fill="#000"
                      d="M5.57 5.02H3.008a.114.114 0 0 1 0-.227h2.56a.114.114 0 0 1 0 .227Z"
                    ></path>
                    <path
                      fill="#FBDC00"
                      d="M10.774 3.448h-1.88v1.825h1.88V3.448Z"
                    ></path>
                    <path
                      fill="#000"
                      d="M10.774 5.386h-1.88a.114.114 0 0 1-.114-.113V3.447a.114.114 0 0 1 .114-.113h1.88a.113.113 0 0 1 .114.113v1.826a.114.114 0 0 1-.114.113ZM9.008 5.16h1.655v-1.6H9.007v1.6Z"
                    ></path>
                    <path
                      fill="#FBDC00"
                      d="M10.191 3.517v.59h-.713v-.59"
                    ></path>
                    <path
                      fill="#000"
                      d="M10.191 4.22h-.714a.113.113 0 0 1-.114-.113v-.59a.114.114 0 0 1 .228 0v.477h.487v-.477a.113.113 0 1 1 .227 0v.593a.113.113 0 0 1-.114.11Zm-.353.609h-.66a.113.113 0 0 1-.043-.218.113.113 0 0 1 .043-.009h.66a.113.113 0 1 1 0 .227Z"
                    ></path>
                    <path
                      fill="#FBDC00"
                      d="m9.605 8.485-1.003.926v1.207h2.034V9.411l-1.03-.926Z"
                    ></path>
                    <path
                      fill="#000"
                      d="M10.635 10.732H8.601a.113.113 0 0 1-.113-.114V9.412a.113.113 0 0 1 .036-.083l1.004-.927a.113.113 0 0 1 .152 0l1.03.927a.113.113 0 0 1 .038.084v1.207a.113.113 0 0 1-.113.112Zm-1.92-.227h1.808V9.462l-.917-.824-.891.823v1.044Z"
                    ></path>
                    <path
                      fill="#FBDC00"
                      d="M10.017 9.472H9.22v1.146h.796V9.473Z"
                    ></path>
                    <path
                      fill="#000"
                      d="M10.017 10.732H9.22a.114.114 0 0 1-.114-.114V9.472a.113.113 0 0 1 .114-.114h.796a.114.114 0 0 1 .113.114v1.146a.113.113 0 0 1-.113.114Zm-.683-.227h.57v-.92h-.57v.92Z"
                    ></path>
                    <path
                      fill="#000"
                      d="M10.017 10.159H9.22a.112.112 0 0 1-.08-.034.113.113 0 0 1-.025-.123.113.113 0 0 1 .105-.07h.796a.114.114 0 0 1 .113.113.113.113 0 0 1-.113.114Z"
                    ></path>
                    <path
                      fill="#FBDC00"
                      d="M4.857 9.495a.114.114 0 0 1-.094-.178.54.54 0 0 0 .09-.28.55.55 0 0 0-.532-.559.541.541 0 0 0-.46.841.113.113 0 0 1-.094.176c-.174 0-.395.141-.395.315v.856h1.88V9.81c0-.175-.222-.315-.395-.315Z"
                    ></path>
                    <path
                      fill="#000"
                      d="M5.251 10.778h-1.88a.113.113 0 0 1-.113-.114v-.856a.5.5 0 0 1 .508-.428.65.65 0 0 1 .086-.829.63.63 0 0 1 .47-.188.65.65 0 0 1 .461.206.657.657 0 0 1 .183.471.65.65 0 0 1-.108.338.5.5 0 0 1 .508.428v.857a.114.114 0 0 1-.115.115Zm-1.766-.226h1.652v-.743c0-.1-.164-.2-.281-.2a.225.225 0 0 1-.227-.238.229.229 0 0 1 .038-.116.426.426 0 0 0 .042-.386.43.43 0 0 0-.091-.142.421.421 0 0 0-.608-.012.424.424 0 0 0-.056.542.226.226 0 0 1-.189.353c-.118 0-.282.1-.282.2l.002.742Z"
                    ></path>
                  </svg>