<svg xmlns="http://www.w3.org/2000/svg" fill="currentColor" viewBox="0 0 14 14" width="16" height="16" role="img"><path class="ic-m-facebook_logo_svg__ic_m_facebook_logo" d="M7.303 1.03c-.914.095-1.571.513-1.851 1.177-.166.396-.202.72-.202 1.84v.876H3.99v2.054h1.26v6.02h2.427V6.953h1.678l.012-.075c.007-.042.044-.454.083-.916.039-.462.078-.885.085-.94l.014-.099H7.674l.007-.74c.007-.724.009-.744.062-.853a.337.337 0 0 1 .152-.163c.093-.05.123-.052.873-.06l.775-.007V1.003l-1.02.003c-.562.002-1.111.013-1.22.024" fill-rule="evenodd"></path></svg>