<svg xmlns="http://www.w3.org/2000/svg" fill="none" viewBox="0 0 14 14" width="40" height="40" role="img"><path class="ic-a-trade_finance_svg__ic_a_trade_finance" d="M9.545 10.056a.108.108 0 0 1-.076-.031l-.636-.636a.107.107 0 0 1 0-.15.107.107 0 0 1 .15 0l.636.636a.107.107 0 0 1 0 .15.107.107 0 0 1-.074.031Zm.932-2.403h-.92a.108.108 0 0 1 0-.215h.92a.108.108 0 0 1 0 .215ZM8.738 5.947a.107.107 0 0 1-.075-.032.107.107 0 0 1 0-.15l.488-.488a.107.107 0 0 1 .15 0 .108.108 0 0 1 0 .15l-.489.488a.108.108 0 0 1-.074.032ZM7.032 5.28a.108.108 0 0 1-.107-.108V3.813a.107.107 0 1 1 .215 0v1.359a.108.108 0 0 1-.107.108Zm-1.647.725a.107.107 0 0 1-.076-.031l-.546-.546a.108.108 0 0 1 0-.15.108.108 0 0 1 .15 0l.546.546a.108.108 0 0 1 0 .15.107.107 0 0 1-.074.031Zm-.767 1.648h-1.45a.108.108 0 0 1 0-.215h1.45a.107.107 0 1 1 0 .215Zm.076 2.337a.108.108 0 0 1-.075-.031.108.108 0 0 1 0-.15l.556-.557a.107.107 0 0 1 .15 0 .107.107 0 0 1 0 .15l-.557.557a.108.108 0 0 1-.074.031Zm2.338 1.108a.108.108 0 0 1-.107-.108v-.918a.107.107 0 0 1 .107-.108.108.108 0 0 1 .108.107v.921a.107.107 0 0 1-.107.105Z" fill="#231F20"></path><path class="ic-a-trade_finance_svg__ic_a_trade_finance" fill="#FBDC00" d="M7.032 4.074a.92.92 0 1 0 0-1.84.92.92 0 0 0 0 1.84Z"></path><path class="ic-a-trade_finance_svg__ic_a_trade_finance" fill="#231F20" d="M7.033 4.183a1.03 1.03 0 0 1-.727-1.755 1.029 1.029 0 0 1 1.755.727 1.03 1.03 0 0 1-1.028 1.028Zm0-1.841a.814.814 0 1 0 0 1.627.814.814 0 0 0 0-1.627Z"></path><path class="ic-a-trade_finance_svg__ic_a_trade_finance" fill="#FBDC00" d="M7.025 12.892a.92.92 0 1 0 0-1.841.92.92 0 0 0 0 1.841Z"></path><path class="ic-a-trade_finance_svg__ic_a_trade_finance" fill="#231F20" d="M7.025 13a1.03 1.03 0 0 1 0-2.056 1.03 1.03 0 0 1 .727 1.754 1.03 1.03 0 0 1-.727.302Zm0-1.841a.814.814 0 1 0 .002 1.627.814.814 0 0 0-.002-1.627Z"></path><path class="ic-a-trade_finance_svg__ic_a_trade_finance" fill="#FBDC00" d="M11.535 8.465a.92.92 0 1 0 0-1.84.92.92 0 0 0 0 1.84Z"></path><path class="ic-a-trade_finance_svg__ic_a_trade_finance" fill="#231F20" d="M11.535 8.573a1.03 1.03 0 0 1-.726-1.754 1.03 1.03 0 0 1 1.453 0 1.03 1.03 0 0 1 0 1.453 1.03 1.03 0 0 1-.727.301Zm0-1.84a.814.814 0 1 0 .001 1.627.814.814 0 0 0-.001-1.628Z"></path><path class="ic-a-trade_finance_svg__ic_a_trade_finance" fill="#FBDC00" d="M2.465 8.465a.92.92 0 1 0 0-1.84.92.92 0 0 0 0 1.84Z"></path><path class="ic-a-trade_finance_svg__ic_a_trade_finance" fill="#231F20" d="M2.465 8.573a1.03 1.03 0 0 1-.726-1.754 1.03 1.03 0 0 1 1.452 0 1.03 1.03 0 0 1 0 1.453 1.03 1.03 0 0 1-.726.301Zm0-1.84a.814.814 0 0 0 0 1.625.814.814 0 0 0 0-1.626Z"></path><path class="ic-a-trade_finance_svg__ic_a_trade_finance" fill="#fff" d="M4.264 5.467a.69.69 0 1 0 0-1.381.69.69 0 0 0 0 1.38Z"></path><path class="ic-a-trade_finance_svg__ic_a_trade_finance" fill="#231F20" d="M4.263 5.574A.796.796 0 0 1 3.7 4.212a.793.793 0 0 1 .87-.174.792.792 0 0 1 .432.433.792.792 0 0 1 0 .61.793.793 0 0 1-.738.493Zm0-1.38a.58.58 0 0 0-.582.582.584.584 0 1 0 .582-.582Z"></path><path class="ic-a-trade_finance_svg__ic_a_trade_finance" fill="#fff" d="M10.017 11.082a.69.69 0 1 0 0-1.381.69.69 0 0 0 0 1.381Z"></path><path class="ic-a-trade_finance_svg__ic_a_trade_finance" fill="#231F20" d="M10.017 11.187a.792.792 0 0 1-.738-.493.792.792 0 0 1 0-.61.793.793 0 0 1 .738-.492.8.8 0 0 1 .564.232.8.8 0 0 1-.564 1.363Zm0-1.38a.581.581 0 1 0 0 1.165.58.58 0 1 0 0-1.163v-.002Z"></path><path class="ic-a-trade_finance_svg__ic_a_trade_finance" fill="#fff" d="M9.802 5.467a.69.69 0 1 0 0-1.381.69.69 0 0 0 0 1.38Z"></path><path class="ic-a-trade_finance_svg__ic_a_trade_finance" fill="#231F20" d="M9.802 5.574a.796.796 0 0 1-.738-1.103.793.793 0 0 1 .432-.433.793.793 0 0 1 .611 0 .792.792 0 0 1 .432.433.792.792 0 0 1 0 .61.793.793 0 0 1-.432.433c-.097.04-.2.06-.305.06Zm0-1.38a.58.58 0 0 0-.583.582.58.58 0 0 0 .583.583.584.584 0 0 0 0-1.165Z"></path><path class="ic-a-trade_finance_svg__ic_a_trade_finance" fill="#fff" d="M4.217 11.052a.69.69 0 1 0 0-1.382.69.69 0 0 0 0 1.382Z"></path><path class="ic-a-trade_finance_svg__ic_a_trade_finance" fill="#231F20" d="M4.217 11.159a.793.793 0 0 1-.738-.493.792.792 0 0 1 0-.61.8.8 0 0 1 1.476.611.792.792 0 0 1-.432.432.802.802 0 0 1-.306.06Zm0-1.38a.582.582 0 1 0-.001 1.163.582.582 0 0 0 .001-1.164Z"></path><path class="ic-a-trade_finance_svg__ic_a_trade_finance" fill="#fff" d="M7.01 9.978a2.393 2.393 0 1 0 0-4.786 2.393 2.393 0 0 0 0 4.786Z"></path><path class="ic-a-trade_finance_svg__ic_a_trade_finance" fill="#231F20" d="M7.01 10.084a2.503 2.503 0 0 1-2.5-2.5 2.503 2.503 0 0 1 2.5-2.5 2.504 2.504 0 0 1 2.5 2.5 2.504 2.504 0 0 1-2.5 2.5Zm0-4.786a2.288 2.288 0 0 0-2.285 2.285A2.288 2.288 0 0 0 7.011 9.87a2.288 2.288 0 0 0 2.285-2.286A2.288 2.288 0 0 0 7.011 5.3v-.002Z"></path><path class="ic-a-trade_finance_svg__ic_a_trade_finance" fill="#FFF2EE" d="M7.96 7.155h-.357v1.256h.357V7.155Z"></path><path class="ic-a-trade_finance_svg__ic_a_trade_finance" fill="#231F20" d="M8.067 8.519h-.572V7.048h.572v1.471Zm-.356-.216h.141v-1.04h-.141v1.04Z"></path><path class="ic-a-trade_finance_svg__ic_a_trade_finance" fill="#FFF2EE" d="M7.172 7.155h-.357v1.256h.357V7.155Z"></path><path class="ic-a-trade_finance_svg__ic_a_trade_finance" fill="#231F20" d="M7.28 8.519h-.57V7.048h.572L7.28 8.519Zm-.357-.216h.141v-1.04h-.141v1.04Z"></path><path class="ic-a-trade_finance_svg__ic_a_trade_finance" fill="#FFF2EE" d="M6.385 7.155h-.357v1.256h.357V7.155Z"></path><path class="ic-a-trade_finance_svg__ic_a_trade_finance" fill="#231F20" d="M6.492 8.519H5.92V7.048h.572v1.471Zm-.356-.216h.141v-1.04h-.141v1.04Z"></path><path class="ic-a-trade_finance_svg__ic_a_trade_finance" fill="#FFF2EE" d="M6.968 5.829a.05.05 0 0 1 .05 0 90.569 90.569 0 0 1 1.527.993c-.036-.011-2.837 0-3.087 0h-.003a.006.006 0 0 1-.002-.007l.002-.003 1.513-.983Z"></path><path class="ic-a-trade_finance_svg__ic_a_trade_finance" fill="#231F20" d="m8.605 6.953-.08-.025c-.144-.006-1.63-.004-3.066 0h-.08l-.05-.157.069-.05 1.514-.984a.155.155 0 0 1 .168 0c.1.066.484.311.842.542.37.24.562.365.657.439h.002c.1.078.088.1.066.147l-.042.088ZM6.995 5.94l-1.188.773a337.38 337.38 0 0 1 2.379-.003c-.257-.168-.67-.434-1.191-.77Z"></path><path class="ic-a-trade_finance_svg__ic_a_trade_finance" fill="#020202" d="M6.994 6.588a.203.203 0 1 0 0-.407.203.203 0 0 0 0 .407Z"></path><path class="ic-a-trade_finance_svg__ic_a_trade_finance" fill="#FFF2EE" d="M8.283 6.822H5.706v.333h2.577v-.333Z"></path><path class="ic-a-trade_finance_svg__ic_a_trade_finance" fill="#231F20" d="M8.39 7.263H5.599v-.55h2.793v.55Zm-2.576-.215h2.361v-.119H5.814v.119Z"></path><path class="ic-a-trade_finance_svg__ic_a_trade_finance" fill="#FFF2EE" d="M8.283 8.411H5.706v.406h2.577v-.406Z"></path><path class="ic-a-trade_finance_svg__ic_a_trade_finance" fill="#231F20" d="M8.39 8.925H5.599v-.622h2.793v.622Zm-2.576-.216h2.361v-.19H5.814v.19Z"></path></svg>