<svg
                    xmlns="http://www.w3.org/2000/svg"
                    fill="none"
                    viewBox="0 0 14 14"
                    width="60"
                    height="60"
                    role="img"
                  >
                    <path
                      fill="#FBDC00"
                      d="M1.48 5.03h9.865v6.176H1.48V5.03Z"
                    ></path>
                    <path
                      fill="#000"
                      d="M1.064 2.914c.019-.043.035-.089.056-.132.125-.265.327-.447.633-.463.334-.018.67-.013 1.004-.009.17.002.278.118.274.261-.005.15-.119.252-.295.254-.285.003-.573 0-.858 0-.192 0-.283.089-.283.277v1.783c0 .034.005.065.007.104h9.079c.002-.039.007-.073.007-.109V3.11c0-.2-.084-.285-.288-.285-.262 0-.526.003-.788 0-.186-.002-.297-.1-.297-.26 0-.15.113-.257.29-.257.32 0 .64-.01.957.013.353.025.654.35.654.697.005 1.015.003 2.028.003 3.043 0 .018-.005.036-.007.059l-.529-.137v-.465H1.588v4.929c0 .23.074.302.313.302 1.368 0 2.737.002 4.105-.002.109 0 .162.02.188.136.027.127.085.247.136.388H1.862c-.404 0-.675-.207-.782-.593-.002-.009-.011-.018-.018-.027.002-2.577.002-5.156.002-7.737Z"
                    ></path>
                    <path
                      fill="#000"
                      d="M9.622 12.677c-.172-.036-.346-.063-.517-.109-1.236-.327-2.127-1.378-2.227-2.624-.106-1.338.708-2.618 1.992-3.045 1.86-.615 3.71.513 4.021 2.311.012.073.03.146.044.218v.545c-.007.016-.018.032-.018.05-.14 1.203-.974 2.184-2.16 2.53-.19.054-.386.08-.581.122-.183.002-.369.002-.554.002Zm.252-5.43c-1.407.002-2.52 1.087-2.52 2.458 0 1.374 1.15 2.498 2.553 2.495 1.405-.002 2.537-1.123 2.546-2.5.01-1.457-1.333-2.48-2.579-2.454ZM4.101 1.325c.035.014.07.027.105.043.171.075.266.198.266.386-.002.51-.018 1.022.005 1.53.018.409-.396.572-.698.447-.174-.07-.269-.193-.269-.383 0-.534-.002-1.067 0-1.598 0-.196.093-.316.278-.388a1.03 1.03 0 0 0 .082-.04c.076.003.155.003.231.003Zm4.289 0c.073.034.149.059.214.104.104.07.158.173.158.3 0 .547.002 1.096 0 1.643-.003.245-.253.43-.531.4-.283-.032-.425-.186-.425-.466V1.788c0-.245.08-.352.316-.44.014-.005.025-.016.037-.023h.232ZM3.002 9.75H2.48c-.107 0-.155-.05-.153-.152 0-.245.002-.49 0-.738 0-.106.056-.152.158-.152.343 0 .686-.002 1.029 0 .118 0 .158.043.16.16.002.242.002.483 0 .726 0 .115-.042.154-.162.154-.172.002-.341.002-.51.002Zm.119-3.298h.522c.107 0 .155.05.155.152-.002.245 0 .49 0 .735 0 .098-.048.15-.146.15-.35.002-.7.002-1.05 0-.104 0-.15-.057-.15-.159.002-.24 0-.483 0-.724 0-.12.037-.154.162-.154.169-.002.338 0 .507 0Zm2.091 1.041c-.165 0-.331.002-.496 0-.125-.002-.165-.04-.165-.163 0-.239-.002-.477 0-.715 0-.12.042-.161.17-.161a56.45 56.45 0 0 1 1.008 0c.132 0 .17.038.17.172v.704c0 .125-.04.163-.165.165l-.522-.002ZM5.098 9.75h-.51c-.125 0-.165-.039-.165-.164a36.722 36.722 0 0 1 0-.715c0-.12.042-.16.167-.16.341-.003.68-.003 1.02 0 .116 0 .158.042.16.158 0 .243.003.483 0 .726 0 .114-.041.155-.162.157-.171-.002-.34-.002-.51-.002Zm1.01-6.924h-.846c-.174 0-.29-.1-.297-.252-.007-.143.116-.265.286-.265.58-.003 1.159-.003 1.738 0 .167 0 .283.113.285.254 0 .159-.116.263-.296.263h-.87ZM7.93 6.472c-.228.188-.453.363-.664.554-.134.122-.25.268-.364.408-.046.06-.102.08-.157.048-.044-.023-.098-.077-.098-.12a14.6 14.6 0 0 1-.002-.781c0-.07.04-.127.12-.127.374-.002.75 0 1.123.002.013 0 .027.01.041.016Z"
                    ></path>
                    <path
                      fill="#FBDC00"
                      d="M9.875 7.246c1.245-.028 2.588.996 2.579 2.452-.01 1.375-1.141 2.497-2.547 2.5-1.402.002-2.55-1.122-2.553-2.496 0-1.369 1.113-2.454 2.521-2.456Zm.213 2.529V8.524c0-.045 0-.09-.011-.134-.042-.148-.179-.23-.339-.209a.292.292 0 0 0-.255.302c-.002.515 0 1.029 0 1.544 0 .24.114.352.362.352h1.136a.804.804 0 0 0 .128-.01.289.289 0 0 0 .239-.292.29.29 0 0 0-.244-.289c-.056-.009-.116-.009-.174-.01-.278-.003-.552-.003-.842-.003Z"
                    ></path>
                    <path
                      fill="#000"
                      d="M9.447 9.094c0 .225.162.41.387.443.093.015.19.017.282.04a.849.849 0 0 1 .638.759c.031.341-.17.7-.497.833-.134.055-.205.109-.189.266.012.107-.086.186-.188.19-.103.001-.186-.075-.2-.183a.351.351 0 0 1-.002-.095c.014-.09-.025-.129-.108-.164-.31-.133-.48-.378-.52-.711-.02-.152.057-.26.182-.27.121-.01.203.077.218.229.023.25.21.42.46.42a.447.447 0 0 0 .444-.413.442.442 0 0 0-.393-.483c-.183-.022-.362-.038-.52-.145-.277-.186-.413-.45-.388-.779a.81.81 0 0 1 .521-.722c.086-.036.117-.078.105-.164a.352.352 0 0 1 .004-.095.197.197 0 0 1 .195-.174c.102 0 .203.08.191.184-.017.16.061.207.191.265.306.133.463.386.495.716.015.142-.068.247-.19.252-.115.006-.196-.081-.21-.224a.457.457 0 0 0-.466-.43.45.45 0 0 0-.442.455Z"
                    ></path>
                  </svg>