<svg
                    xmlns="http://www.w3.org/2000/svg"
                    fill="none"
                    viewBox="0 0 14 14"
                    width="60"
                    height="60"
                    role="img"
                  >
                    <g clip-path="url(#ic-a-surface_ftt_rail_svg__a)">
                      <path
                        d="M2.82 10.99a.523.523 0 1 0 0-1.046.523.523 0 0 0 0 1.045Zm3.223 0a.523.523 0 1 0 0-1.046.523.523 0 0 0 0 1.045Z"
                        fill="#FBDC00"
                      ></path>
                      <path
                        fill="#fff"
                        d="M7.12 8.855H5.865s-.087-.022-.12-.044a.164.164 0 0 1-.043-.12V7.469h.862s.021 0 .032.011c0 0 .022.022.022.033l.502 1.32v.022Z"
                      ></path>
                      <path
                        fill="#000"
                        d="M7.12 8.975H5.876a.314.314 0 0 1-.196-.077.263.263 0 0 1-.076-.196V7.48s.01-.055.032-.076a.118.118 0 0 1 .077-.033h.862s.065.01.098.033a.147.147 0 0 1 .065.076L7.24 8.8v.065c0 .022 0 .044-.022.055-.01.022-.033.033-.043.044-.022 0-.044.01-.066.01h.011ZM5.822 7.6v1.124c.01.01.022.01.033.01h1.101L6.52 7.59h-.71l.012.011Z"
                      ></path>
                      <path
                        fill="#FBDC00"
                        d="M10.786 10.47H8.189a.215.215 0 0 1-.153-.066.215.215 0 0 1-.065-.153V7.207s0-.032.01-.043c0 0 .023-.011.044-.011h2.913s.033 0 .044.01c0 0 .01.022.01.044v3.044a.214.214 0 0 1-.065.153.215.215 0 0 1-.152.065h.01Z"
                      ></path>
                      <path
                        fill="#000"
                        d="M10.786 10.578H8.189s-.087 0-.12-.022a.393.393 0 0 1-.185-.185c-.022-.044-.022-.087-.022-.12V7.207s.022-.087.054-.12a.175.175 0 0 1 .12-.054h2.913a.338.338 0 0 0 .12.054.175.175 0 0 1 .055.12v3.044s0 .087-.022.13a.391.391 0 0 1-.077.11.226.226 0 0 1-.109.065.536.536 0 0 1-.13.022ZM8.09 7.262v2.989s0 .055.033.065c.021.022.043.033.065.033h2.597s.054 0 .065-.033c.022-.021.033-.043.033-.065V7.26H8.09Z"
                      ></path>
                      <path
                        fill="#fff"
                        d="M8.615 6.564h1.712l.666.545s0 .076-.066.076H7.982c-.011 0-.022-.021-.022-.032v-.044c0-.01.01-.022.022-.033l.622-.501.01-.011Z"
                      ></path>
                      <g fill="#000">
                        <path
                          d="M10.938 7.295H8.036s-.076-.011-.109-.033a.17.17 0 0 1-.065-.087.185.185 0 0 1 0-.11.17.17 0 0 1 .065-.087l.655-.523h1.8l.698.567s.044.043.054.076v.098a.194.194 0 0 1-.076.088c-.033.021-.076.032-.109.021l-.01-.01Zm-2.76-.23h2.596l-.48-.392H8.659l-.48.392Zm2.771 1.811H7.971v.23h2.978v-.23Zm-.316 1.528v.163h-.175l.404.502.174-.142-.403-.523Zm-2.291.043-.393.47.175.141.447-.502h-.23v-.109Zm-2.367-3.72c-.088 0-.164 0-.251-.01-.077 0-.153-.012-.23-.012a2.613 2.613 0 0 1-.85-.24L4.48 6.4l-.142-.044s-.065-.021-.087-.054a.162.162 0 0 1-.044-.098c0-.033 0-.066.022-.099a.147.147 0 0 1 .076-.065l.044-.022-.087-.087-.153-.164c-.022-.022-.044-.043-.054-.076 0-.033-.011-.055-.011-.087 0-.033.01-.055.032-.077a.112.112 0 0 1 .066-.054l.316-.186.055-.032s.054-.022.087-.022c.033 0 .065 0 .087.022l.218.076.633.207.742-.458-.676-.185-1.255-.36c-.044 0-.076-.033-.109-.066a.164.164 0 0 1-.044-.12c0-.087.077-.142.262-.262.033-.022.066-.043.087-.065a.742.742 0 0 1 .6-.131c.12.022 1.015.12 1.735.207l.938.11c.022 0 .033 0 .066-.023l1.069-.632.502-.295.545-.316c.28-.166.593-.27.916-.306.862-.109 1.67.12 1.811.513.055.164.033.404-.382.676l-2.16 1.299c-.098.076-.37.207-1.134.6l-.207.109-.917.425-.676.262a4.25 4.25 0 0 1-1.233.23h-.043v-.023Zm-1.44-.556h.01l.186.076c.242.11.5.184.764.218l.25.011.262.011a4.789 4.789 0 0 0 1.168-.218c.24-.076.469-.174.654-.25l.895-.426.207-.11.97-.501.154-.087 2.149-1.299c.13-.087.349-.25.294-.403-.087-.251-.774-.458-1.56-.36a2.03 2.03 0 0 0-.829.283l-.534.317-.502.294-1.07.633a.314.314 0 0 1-.218.055l-.927-.11-1.745-.207a.807.807 0 0 0-.23 0 .518.518 0 0 0-.207.098c-.021.011-.054.044-.098.066-.022.01-.054.033-.087.054l1.167.339.851.24.033.021s.065.055.087.099l.033.087-.197.12-.774.49a.176.176 0 0 1-.098.033c-.033 0-.077 0-.11-.01l-.632-.208-.218-.076-.044.022-.262.152.12.131c.044.044.077.088.12.12a.13.13 0 0 1 .055.099v.152l-.066.033-.021.01Zm.6 3.796H1.109s-.054-.01-.076-.032A.118.118 0 0 1 1 9.858V6.825s.01-.054.033-.076a.118.118 0 0 1 .076-.033h4.026s.054.011.076.033a.118.118 0 0 1 .033.076v3.033s-.011.055-.033.077a.118.118 0 0 1-.076.032Zm-3.906-.229h3.786V6.935H1.229v2.803Zm3.044-.24h-.044c-.01 0-.022-.01-.033-.022 0 0-.021-.021-.021-.032v-2.04c0-.011.01-.033.021-.044 0-.01.022-.022.044-.022h.087c.011 0 .033.011.044.022 0 .01.022.022.022.044V9.4s-.011.055-.033.076a.118.118 0 0 1-.076.033l-.011-.01Zm-1.151 0s-.055-.01-.077-.033a.118.118 0 0 1-.032-.076V7.393c0-.011.01-.033.022-.044 0-.01.021-.022.043-.022h.087c.011 0 .033.011.044.022 0 .011.022.022.022.044v2.04c0 .01-.011.022-.022.032 0 0-.022.022-.033.022h-.043l-.011.011Zm-1.162 0s-.055-.01-.076-.033a.118.118 0 0 1-.033-.076V7.436s.01-.054.033-.076a.118.118 0 0 1 .076-.033c.022 0 .055.011.076.033a.118.118 0 0 1 .033.076v1.997c0 .01-.01.022-.022.032 0 0-.022.022-.032.022H1.97l-.011.011Z"
                        ></path>
                        <path
                          d="M7.142 9.967H5.135s-.055-.01-.077-.032a.118.118 0 0 1-.033-.077V7.436c0-.01.011-.021.022-.032 0 0 .022-.022.033-.022h1.527s.044 0 .066.022c.022.01.032.032.043.054l.524 1.375v1.091c0 .01-.01.021-.022.032 0 0-.022.022-.033.022h-.043v-.01Zm-1.898-.229h1.778v-.862L6.53 7.59H5.244v2.15Z"
                        ></path>
                        <path
                          d="M6.03 11.09a.578.578 0 0 1-.35-.108.534.534 0 0 1-.23-.284.614.614 0 0 1-.032-.37.64.64 0 0 1 .502-.503.71.71 0 0 1 .37.033c.12.044.22.131.285.23a.66.66 0 0 1 .109.348.636.636 0 0 1-.633.633l-.022.022Zm0-1.035a.458.458 0 0 0-.23.065.426.426 0 0 0-.153.186.335.335 0 0 0-.022.229.385.385 0 0 0 .11.207c.054.054.13.098.207.109.076.01.163 0 .229-.022a.404.404 0 0 0 .25-.382c0-.054 0-.109-.032-.152a.393.393 0 0 0-.218-.219.385.385 0 0 0-.153-.032l.011.01ZM2.81 11.09a.578.578 0 0 1-.348-.11.534.534 0 0 1-.23-.283.614.614 0 0 1-.032-.37.64.64 0 0 1 .502-.503.72.72 0 0 1 .37.033.59.59 0 0 1 .284.23.68.68 0 0 1 .11.348.636.636 0 0 1-.633.633l-.022.022Zm0-1.036a.458.458 0 0 0-.228.065.426.426 0 0 0-.153.186.335.335 0 0 0-.022.229.385.385 0 0 0 .11.207c.054.054.13.098.207.109.076.01.163 0 .229-.022a.404.404 0 0 0 .25-.382c0-.054 0-.109-.032-.152a.393.393 0 0 0-.218-.219.385.385 0 0 0-.153-.032l.01.01Z"
                        ></path>
                      </g>
                    </g>
                    <defs>
                      <clipPath id="ic-a-surface_ftt_rail_svg__a">
                        <path
                          fill="#fff"
                          d="M0 0h12v9.818H0z"
                          transform="translate(1 2.09)"
                        ></path>
                      </clipPath>
                    </defs>
                  </svg>