<svg xmlns="http://www.w3.org/2000/svg" fill="currentColor" viewBox="0 0 14 14" width="16" height="16" role="img"><path class="ic-m-instagram_logo_svg__ic_m_instagram_logo" d="M4.62 1.019c-.701.029-1.393.178-1.82.392-1.061.531-1.653 1.504-1.774 2.917-.018.208-.023 1.107-.017 2.859.01 2.757.004 2.626.137 3.236.098.452.241.787.495 1.159.46.672 1.164 1.109 2.09 1.297.508.103.551.105 3.234.105 2.744.001 2.716.002 3.371-.118 1.471-.269 2.483-1.459 2.615-3.078.012-.141.028-1.291.037-2.555.016-2.417.009-2.688-.086-3.336-.059-.402-.099-.563-.212-.855-.369-.955-1.2-1.647-2.272-1.894-.575-.133-.498-.13-3.161-.133-1.354-.002-2.541 0-2.637.004M9.17 2.1c1.069.057 1.516.187 1.966.568.27.23.547.668.635 1.007.046.175.097.611.128 1.096.03.453.03 2.896.001 4.084-.025 1.039-.067 1.339-.248 1.769a2.029 2.029 0 0 1-1.385 1.156c-.483.117-.615.126-1.949.136-1.703.013-4.024-.026-4.258-.071-.671-.13-1.011-.297-1.359-.665-.367-.389-.528-.845-.6-1.695-.032-.376-.032-4.626 0-4.982.031-.343.104-.759.165-.942a2.13 2.13 0 0 1 .645-.938c.178-.147.552-.339.771-.394.178-.045.684-.1 1.171-.126.507-.027 3.823-.03 4.317-.003m.79 1.014a.737.737 0 0 0-.443.457.949.949 0 0 0 .048.54.776.776 0 0 0 .328.326c.088.045.141.055.315.055.19 0 .223-.007.335-.07a.721.721 0 0 0-.083-1.305.975.975 0 0 0-.5-.003m-3.494.844c-.243.04-.619.164-.846.279-.742.374-1.284 1-1.549 1.791a2.805 2.805 0 0 0-.151.958c0 .686.188 1.276.578 1.817a3.083 3.083 0 0 0 3.377 1.148 3.155 3.155 0 0 0 1.589-1.106c.184-.245.408-.688.488-.97a3.087 3.087 0 0 0-2.448-3.919 4.053 4.053 0 0 0-1.038.002m.888 1.069a2.005 2.005 0 0 1 1.597 1.546c.059.255.053.657-.013.905a1.997 1.997 0 0 1-.595.987c-.162.153-.25.215-.44.308-.346.171-.543.218-.915.217a1.727 1.727 0 0 1-.886-.205c-.4-.2-.705-.508-.9-.91a1.678 1.678 0 0 1-.201-.782 1.856 1.856 0 0 1 .135-.839 2.04 2.04 0 0 1 1.533-1.237c.181-.03.503-.026.685.01" fill-rule="evenodd"></path></svg>