<svg
                    xmlns="http://www.w3.org/2000/svg"
                    fill="none"
                    viewBox="0 0 14 14"
                    width="60"
                    height="60"
                    role="img"
                  >
                    <path
                      fill="#fff"
                      d="M1.389 1.769h8.038L9.4 11.21l-1.128 1.501H1.39V1.77Z"
                    ></path>
                    <path
                      fill="#000"
                      d="M13 7.185c-.046.227-.07.463-.14.684-.41 1.307-1.287 2.125-2.624 2.435-.129.03-.274-.015-.423-.025 0 .285-.007.584.003.883a.472.472 0 0 1-.16.381c-.449.44-.892.886-1.335 1.333a.378.378 0 0 1-.29.123c-.741-.004-1.484 0-2.225-.003-.21 0-.337-.17-.251-.337.052-.103.143-.132.254-.132h2.059v-.71c0-.477.29-.765.766-.767h.71c0-.315.002-.619-.004-.922 0-.03-.053-.068-.091-.086-.803-.399-1.384-1.008-1.714-1.841-.112-.284-.176-.588-.267-.903H5.485c-.043 0-.087 0-.13-.008a.227.227 0 0 1-.189-.243.22.22 0 0 1 .22-.215c.172-.005.343-.002.515-.002h1.373V4.745H5.45c-.179 0-.28-.084-.284-.227a.224.224 0 0 1 .207-.239c.043-.004.086-.003.129-.003h2.553a.765.765 0 0 0 .217-.035c.325-.097.648-.203.972-.3.069-.021.1-.047.1-.126-.004-.504-.001-1.008-.003-1.512 0-.165-.082-.269-.226-.27-.566-.004-1.132-.002-1.716-.002v.235a.5.5 0 0 1-.508.515c-.993.002-1.984.002-2.976 0a.497.497 0 0 1-.504-.508v-.236c-.041-.002-.079-.006-.115-.006H1.76c-.21 0-.291.082-.291.29v9.922c0 .2.084.286.284.286h1.863c.15 0 .247.073.265.195.024.155-.083.272-.257.273-.437.002-.874 0-1.313 0H1.75c-.452 0-.749-.295-.75-.746V2.34c0-.494.284-.778.776-.778h1.635c0-.09.006-.174 0-.257-.011-.14.04-.242.168-.305h3.655c.126.063.18.163.168.305-.007.083 0 .167 0 .257H9.07c.444 0 .741.297.741.742v1.455c.046-.012.077-.015.104-.028.155-.074.303-.049.463.002.787.25 1.575.494 2.365.738.108.034.203.079.255.185v2.53L13 7.185ZM7.752 4.897c0 .677-.002 1.345 0 2.01a2.99 2.99 0 0 0 2.255 2.909.58.58 0 0 0 .262.003 2.992 2.992 0 0 0 2.261-2.905c.003-.64 0-1.28 0-1.92v-.087c-.014-.009-.02-.015-.026-.017-.77-.242-1.538-.482-2.308-.722a.202.202 0 0 0-.115.003c-.774.24-1.548.483-2.33.727v-.001ZM3.884 1.47c0 .244.005.477-.003.71-.003.101.025.133.13.131.89-.004 1.778-.002 2.668-.002.17 0 .256-.086.256-.258V1.47H3.884Zm4.454 10.665.618-.616c-.113 0-.25-.004-.385 0a.23.23 0 0 0-.231.23c-.006.135 0 .272 0 .385l-.002.001Z"
                    ></path>
                    <path
                      fill="#000"
                      d="M6.443 9.854H5.437c-.166 0-.266-.09-.267-.23-.003-.136.091-.235.235-.236.238-.004.476-.001.714-.001h1.358c.167 0 .27.101.262.246-.008.135-.107.22-.266.22-.343.002-.686 0-1.03 0Z"
                    ></path>
                    <path
                      fill="#FDDE01"
                      stroke="#000"
                      stroke-width="0.082"
                      d="m2.66 10.409.03-.029a.235.235 0 0 1-.074-.15.181.181 0 0 1 .057-.136.181.181 0 0 1 .136-.057.235.235 0 0 1 .152.07c.033.029.063.06.095.094l.019.02c.028.028.054.059.086.095l.032.037.03.033.03-.031.001-.001.653-.655.049-.049c.038-.04.075-.078.116-.113a.216.216 0 0 1 .141-.059c.045 0 .09.018.13.056a.187.187 0 0 1 .058.13.218.218 0 0 1-.054.142l.032.026m-1.718.577.03-.029c.099.103.2.203.301.303l.062.061c.072.071.128.1.178.1.049 0 .104-.027.175-.097.227-.225.452-.45.677-.676l.226-.226a.59.59 0 0 0 .038-.04l.031.027m-1.718.577c.1.103.201.203.303.303l.061.061c.148.147.264.15.411.003l.678-.676.225-.226a.627.627 0 0 0 .04-.042m-1.718.577 1.384-.903c.105-.092.234-.092.326 0 .093.09.095.219.008.326M2.66 7.891l.03-.028a.235.235 0 0 1-.074-.15.181.181 0 0 1 .057-.136.181.181 0 0 1 .136-.058.235.235 0 0 1 .152.07c.033.03.063.061.095.094l.019.02c.028.029.054.059.086.095l.032.037.03.033.03-.031.001-.001.653-.655.049-.049c.038-.039.075-.077.116-.112a.216.216 0 0 1 .141-.06c.045 0 .09.018.13.056.039.04.057.084.058.13a.218.218 0 0 1-.054.142l.032.026m-1.718.577.03-.028c.099.102.2.202.301.302l.062.061c.072.071.128.1.178.1.049 0 .104-.026.175-.097a196.995 196.995 0 0 0 .94-.942l.032.027m-1.718.577c.1.103.201.203.303.304l.061.06c.148.147.264.15.411.003.227-.224.452-.45.678-.676l.225-.225.04-.043m-1.718.577 1.384-.902c.105-.093.234-.093.326-.002.093.091.095.22.008.327M2.66 5.261l.03-.029a.235.235 0 0 1-.074-.15.181.181 0 0 1 .057-.136.181.181 0 0 1 .136-.057.235.235 0 0 1 .152.07c.033.029.063.06.095.094l.019.02c.028.028.054.059.086.095l.032.037.03.033.03-.031.001-.001.653-.655.049-.049c.038-.04.075-.077.116-.113a.216.216 0 0 1 .141-.059c.045 0 .09.018.13.056a.187.187 0 0 1 .058.13.218.218 0 0 1-.054.142l.032.026m-1.718.577.03-.029c.099.103.2.203.301.303l.062.061c.072.071.128.1.178.1.049 0 .104-.027.175-.097a196.995 196.995 0 0 0 .94-.942l.032.027m-1.718.577c.1.103.201.203.303.304l.061.06c.148.147.264.15.411.003a196.224 196.224 0 0 0 .903-.902l.04-.042m-1.718.577 1.384-.903c.105-.092.234-.092.326 0 .093.09.095.219.008.326"
                    ></path>
                    <path
                      fill="#000"
                      d="M6.2 10.881c-.261 0-.521.005-.783-.001-.203-.005-.324-.207-.21-.357a.3.3 0 0 1 .205-.105 70.92 70.92 0 0 1 1.578-.004c.148 0 .244.091.248.223.004.135-.092.239-.243.243-.266.005-.53.001-.795.001Zm-.242-3.024c.176 0 .351-.002.526 0 .152.003.255.099.255.232 0 .132-.102.232-.254.234-.355.004-.709.004-1.064 0-.156-.002-.251-.097-.251-.234 0-.138.095-.23.251-.232.18-.004.359 0 .537 0Zm-.025-2.553c.168 0 .336-.003.504 0 .15.003.244.092.25.224.005.135-.094.239-.245.242-.343.005-.687.005-1.03 0-.154-.003-.247-.105-.242-.244.004-.132.097-.22.25-.222.171-.004.343 0 .515 0h-.002Z"
                    ></path>
                    <path
                      fill="#fff"
                      d="M7.752 4.897c.783-.245 1.557-.487 2.33-.727a.214.214 0 0 1 .115-.003l2.309.722.026.017v.087c0 .64.002 1.28 0 1.92a2.993 2.993 0 0 1-2.262 2.904.539.539 0 0 1-.262-.002 2.99 2.99 0 0 1-2.255-2.909c-.003-.667 0-1.334 0-2.01h-.001Zm4.331 1.362h-.02V5.45c0-.15-.052-.223-.196-.268a194.09 194.09 0 0 0-1.641-.51.316.316 0 0 0-.17 0c-.548.167-1.096.338-1.642.51-.138.043-.194.117-.194.257 0 .523-.008 1.048.003 1.57.02 1.07.796 2.057 1.827 2.336a.341.341 0 0 0 .18 0c.97-.307 1.577-.96 1.776-1.955.074-.366.054-.753.076-1.13l.001-.002ZM3.884 1.472h3.05v.583c0 .172-.086.257-.257.257-.89 0-1.778 0-2.667.003-.106 0-.133-.03-.13-.131.007-.233.002-.467.002-.71l.002-.002Zm4.454 10.664c0-.113-.004-.25 0-.385a.228.228 0 0 1 .232-.23c.135-.005.272 0 .385 0l-.618.617.001-.002Z"
                    ></path>
                    <path
                      fill="#000"
                      d="M12.084 6.259c-.022.377-.001.763-.075 1.13-.2.995-.807 1.647-1.776 1.955a.34.34 0 0 1-.18 0c-1.032-.28-1.807-1.266-1.828-2.336-.01-.523-.002-1.047-.002-1.57 0-.14.056-.213.193-.258.547-.171 1.094-.342 1.642-.51a.303.303 0 0 1 .17 0c.548.167 1.095.339 1.642.51.143.046.194.119.195.268v.808h.02v.003ZM8.69 6.35h.002c0 .222-.006.445 0 .667.026.794.582 1.553 1.327 1.826a.332.332 0 0 0 .247 0 2.07 2.07 0 0 0 1.325-1.874c.008-.425 0-.85.006-1.276 0-.088-.032-.12-.11-.144-.421-.128-.84-.262-1.261-.39a.281.281 0 0 0-.158 0c-.432.13-.862.27-1.294.4-.074.022-.086.059-.084.125.002.222 0 .445 0 .667V6.35Z"
                    ></path>
                    <path
                      fill="#FDDE01"
                      d="M8.69 6.35v-.666c0-.065.01-.103.084-.125.433-.13.862-.27 1.294-.4a.294.294 0 0 1 .158 0c.421.128.84.262 1.261.39.078.023.11.055.11.144-.006.425.002.85-.006 1.276a2.07 2.07 0 0 1-1.325 1.874.332.332 0 0 1-.247 0c-.745-.273-1.3-1.031-1.327-1.826-.008-.223 0-.445 0-.667H8.69Zm1.235.807c-.129-.134-.243-.26-.365-.38-.102-.098-.244-.094-.335 0a.224.224 0 0 0 .003.324c.178.185.36.367.545.545a.224.224 0 0 0 .317 0c.325-.32.648-.642.967-.967a.224.224 0 0 0 .008-.318c-.095-.105-.245-.101-.36.013-.254.253-.507.508-.78.782v.001Z"
                    ></path>
                    <path
                      fill="#000"
                      d="M9.983 6.749c.181-.18.344-.35.515-.51a.504.504 0 0 1 .835.22.457.457 0 0 1-.112.473c-.357.36-.718.714-1.08 1.067-.1.098-.207.093-.311-.008a54.808 54.808 0 0 1-.623-.615.493.493 0 0 1-.004-.709.513.513 0 0 1 .719.004c.02.018.033.041.061.078Zm.004.832.074-.066.814-.804c.015-.014.039-.027.041-.043.006-.046.018-.105-.004-.139-.015-.02-.088-.01-.132-.001-.022.004-.04.035-.058.053-.189.187-.375.373-.565.557-.113.11-.22.109-.334 0l-.179-.177c-.047-.044-.102-.057-.152-.01-.05.05-.039.103.009.15l.487.481h-.001Z"
                    ></path>
                  </svg>