  <svg
                    xmlns="http://www.w3.org/2000/svg"
                    fill="none"
                    viewBox="0 0 14 14"
                    width="60"
                    height="60"
                    role="img"
                  >
                    <path
                      fill="#fff"
                      d="M3.078 6.074C1.648 7.109.839 8.144 1.129 8.72c.418.832 2.96.398 5.678-.97"
                    ></path>
                    <path
                      fill="#000"
                      d="M2.239 9.212c-.613 0-1.02-.156-1.172-.46-.302-.6.434-1.622 1.97-2.735a.07.07 0 0 1 .082.113C1.688 7.167.93 8.171 1.192 8.69c.184.367.877.477 1.902.302 1.065-.182 2.373-.645 3.682-1.303a.07.07 0 0 1 .062.125c-1.32.664-2.642 1.132-3.72 1.316-.29.052-.584.08-.879.083Z"
                    ></path>
                    <path
                      fill="#fff"
                      d="M6.824 11.64a4.638 4.638 0 1 0 0-9.277 4.638 4.638 0 0 0 0 9.277Z"
                    ></path>
                    <path
                      fill="#000"
                      d="M6.824 11.71a4.708 4.708 0 1 1 0-9.416 4.708 4.708 0 0 1 0 9.416Zm0-9.277a4.568 4.568 0 1 0 0 9.136 4.568 4.568 0 0 0 0-9.136Z"
                    ></path>
                    <path
                      fill="#FBDC00"
                      d="M7.694 2.474c-.177.092-.8.484-.315 1.25.095.149.154.317.171.492.026.286-.06.597-.52.731-.224.066-1.48-.213-.966.53.646.938.078 1.629-.88 1.634-1.186.006-1.12-.546-.993-.852.083-.195.12-.408.105-.62-.096-1.212-1.138-.971-1.552-.787-.049.022-.004-.027.027-.07l.182-.3a3.86 3.86 0 0 1 .605-.766c.374-.375.805-.69 1.276-.932A4.509 4.509 0 0 1 7.69 2.44a.018.018 0 0 1 .004.034Z"
                    ></path>
                    <path
                      fill="#000"
                      d="M5.164 7.18c-.53 0-.875-.113-1.025-.336-.108-.16-.112-.372-.013-.612.08-.185.115-.387.1-.588-.03-.378-.158-.638-.38-.77-.31-.184-.772-.092-1.074.042a.08.08 0 0 1-.104-.017c-.038-.048-.002-.095.03-.137l.015-.02.179-.295c.172-.286.379-.548.617-.78a5.081 5.081 0 0 1 1.294-.947 4.602 4.602 0 0 1 2.902-.347.088.088 0 0 1 .02.164.853.853 0 0 0-.438.49c-.053.198-.002.42.15.66.101.158.164.337.182.523.037.406-.16.684-.57.805a1.29 1.29 0 0 1-.327.009c-.235-.009-.627-.023-.699.108-.034.06 0 .166.097.307.3.433.369.855.195 1.188-.18.344-.603.551-1.132.554h-.02ZM3.422 4.63a.96.96 0 0 1 .496.124c.263.157.414.453.447.879.016.223-.021.447-.11.653-.056.136-.102.329 0 .48.12.18.435.275.909.275h.019c.476-.003.854-.182 1.009-.48.148-.284.082-.655-.186-1.043-.133-.192-.167-.34-.105-.454.113-.207.51-.192.827-.18.094.008.189.007.283-.004.347-.102.5-.317.47-.658a1.045 1.045 0 0 0-.16-.46c-.175-.275-.231-.535-.168-.772a.926.926 0 0 1 .393-.509 4.52 4.52 0 0 0-2.683.366c-.464.239-.888.55-1.256.92a3.72 3.72 0 0 0-.594.752l-.123.203c.171-.058.35-.09.532-.092Z"
                    ></path>
                    <path
                      fill="#FBDC00"
                      d="M5.287 11.38s-.343-2.007 1.105-2.473c.492-.159 1.065.433 1.461.764 0 0 .52.489.845-.585.143-.472.586-.82 1.098-.739.025.004.938.304 1.324.406.139.037-.533 1.327-1.46 1.969a4.857 4.857 0 0 1-1.379.709c-1.83.522-2.994-.052-2.994-.052Z"
                    ></path>
                    <path
                      fill="#000"
                      d="M6.769 11.723c-.929 0-1.48-.264-1.513-.28l-.032-.016-.006-.035c-.003-.02-.335-2.072 1.153-2.551.461-.148.957.283 1.356.63.06.052.117.102.171.147l.004.003a.352.352 0 0 0 .298.083c.17-.047.319-.267.431-.637.163-.54.658-.871 1.176-.788.011.001.027.006.243.075.308.098.822.262 1.088.332a.095.095 0 0 1 .068.079c.041.236-.654 1.426-1.505 2.016a4.968 4.968 0 0 1-1.4.718 5.57 5.57 0 0 1-1.532.224ZM5.35 11.33c.2.085 1.298.493 2.911.033.487-.16.946-.396 1.359-.699.822-.57 1.419-1.631 1.446-1.854-.276-.075-.763-.23-1.06-.324-.11-.035-.207-.066-.225-.07a.93.93 0 0 0-1.017.69c-.13.426-.308.672-.53.732a.486.486 0 0 1-.428-.115 7.972 7.972 0 0 1-.172-.148c-.372-.324-.835-.727-1.222-.602-1.267.408-1.098 2.087-1.062 2.357ZM2.24 9.212c-.614 0-1.02-.156-1.173-.46a.07.07 0 0 1 .125-.063c.184.367.877.477 1.902.302 1.065-.182 2.373-.645 3.682-1.303.473-.237.93-.493 1.359-.76a.07.07 0 0 1 .074.12c-.433.268-.894.526-1.37.765-1.32.664-2.643 1.132-3.722 1.316-.29.052-.583.08-.878.083Z"
                    ></path>
                    <path
                      fill="#fff"
                      d="M11.598 4.339a1.74 1.74 0 0 0-.647.28c-.193.135-.384.274-.576.41l-.949.677a.169.169 0 0 1-.106.04c-.35-.012-1.909-.05-2.054-.062a.51.51 0 0 0-.387.123c-.054.049-.218.166-.215.198.003.034.033.041.061.048.118.028.782.156.976.192l.648.122c.017.011.04.021.047.036-.167.128-.523.403-.646.49a.097.097 0 0 1-.088.017c-.224-.054-.448-.106-.673-.159a.077.077 0 0 0-.066.004c-.09.064-.181.127-.27.192-.036.026-.037.055 0 .086.077.066.152.136.228.203a.06.06 0 0 1 .025.068l-.095.065c-.016.012-.031.023-.027.047.005.025.024.034.045.037.036.008.072.014.109.02.106.021.536.182.77.161.132-.01.263.003.395-.013.31-.042.611-.126.897-.252a9.88 9.88 0 0 0 1.153-.626c.083-.053.99-.61.975-.62.018-.012 1.498-1.084 1.558-1.13.682-.522-.197-.843-1.088-.654Z"
                    ></path>
                    <path
                      fill="#000"
                      d="M7.665 7.707a2.438 2.438 0 0 1-.608-.127 1.398 1.398 0 0 0-.132-.037 3.441 3.441 0 0 0-.109-.02.115.115 0 0 1-.1-.093.113.113 0 0 1 .054-.117 2.51 2.51 0 0 1 .052-.036 7.23 7.23 0 0 1-.083-.074 4.76 4.76 0 0 0-.132-.116.127.127 0 0 1-.051-.102.12.12 0 0 1 .056-.094c.075-.055.152-.11.227-.162l.044-.03a.141.141 0 0 1 .122-.016l.173.041a71.5 71.5 0 0 1 .517.12.029.029 0 0 0 .015-.007c.102-.073.365-.275.548-.415l-.128-.024-.442-.083c-.18-.034-.858-.164-.98-.194a.129.129 0 0 1-.113-.11c-.005-.054.038-.094.171-.201.027-.021.051-.041.065-.054a.582.582 0 0 1 .44-.141c.093.008.783.026 1.338.041l.713.02a.107.107 0 0 0 .063-.027c.269-.19.538-.382.806-.574l.144-.102.184-.132c.128-.092.26-.187.392-.279.202-.142.43-.241.673-.292.638-.135 1.262-.017 1.39.261.052.111.05.291-.245.518-.068.052-1.55 1.126-1.56 1.133l-.001-.001c-.063.055-.254.173-.833.532l-.144.09a10.61 10.61 0 0 1-.665.386 6.056 6.056 0 0 1-.498.245c-.291.128-.6.215-.916.257-.074.008-.148.01-.222.01-.06 0-.118 0-.175.004a.797.797 0 0 1-.05.002Zm-.768-.312.004.001.05.01c.031.005.08.02.146.04.195.07.4.11.606.119.063-.005.126-.005.187-.005.068.001.137-.001.205-.008a3.24 3.24 0 0 0 .878-.247c.178-.075.346-.163.487-.239.245-.132.46-.257.656-.382l.145-.09c.17-.106.569-.352.74-.464L11 6.129l.088-.062c.011-.008 1.492-1.08 1.556-1.13.1-.076.26-.224.203-.347-.088-.19-.634-.31-1.235-.183a1.666 1.666 0 0 0-.621.27c-.13.091-.262.186-.39.277l-.185.133-.144.102-.805.574a.24.24 0 0 1-.15.053l-.712-.02c-.585-.016-1.249-.034-1.344-.042a.436.436 0 0 0-.336.107l-.07.058-.088.072a58.21 58.21 0 0 0 1.39.269l.219.041.012.008a.113.113 0 0 0 .01.006.134.134 0 0 1 .063.062l.021.05-.12.092c-.184.141-.463.355-.57.432a.167.167 0 0 1-.146.028l-.5-.119-.172-.04a.41.41 0 0 0-.015-.004l-.039.027c-.069.048-.14.098-.208.149.04.035.081.07.121.107l.096.085a.128.128 0 0 1 .045.142l-.007.023-.05.034-.02.012Z"
                    ></path>
                    <path
                      fill="#FFEF00"
                      d="M7.135 6.13c.098-.082.2-.159.307-.23l.31-.205"
                    ></path>
                    <path
                      fill="#000"
                      d="m7.18 6.184-.09-.107c.1-.084.204-.163.313-.235l.31-.205.077.116-.31.206a3.45 3.45 0 0 0-.3.225Z"
                    ></path>
                    <path
                      fill="#FBDC00"
                      d="M12.9 4.537c-.024-.042-.088-.118-.142-.108a7.731 7.731 0 0 0-.923.424c-.219.121-.434.247-.643.383-.281.182-.558.372-.834.562-.33.225-2.26 1.516-2.446 1.592-.232.094-.297.006-.368-.004-.11-.016-.235.139-.35.162.166.046.334.08.504.104.135.01.27.004.402-.014a3.37 3.37 0 0 0 .914-.256c.171-.073.337-.158.501-.246.229-.123.454-.252.673-.392a.367.367 0 0 1 .272-.068c.126.021.253.03.38.042l.96.09a.094.094 0 0 0 .08-.032l.233-.271a.095.095 0 0 0-.006-.13.094.094 0 0 0-.04-.022 54.178 54.178 0 0 1-.886-.24c.018-.012 1.35-.954 1.412-1 .059-.05.12-.096.174-.15.05-.05.23-.26.134-.426Z"
                    ></path>
                    <path
                      fill="#000"
                      d="M7.823 7.727c-.045 0-.088-.002-.13-.005a2.652 2.652 0 0 1-.32-.058c-.235-.053-.245-.055-.248-.112a.07.07 0 0 1 .056-.073.439.439 0 0 0 .127-.07.366.366 0 0 1 .246-.092.28.28 0 0 1 .07.022.288.288 0 0 0 .26-.014c.176-.071 2.065-1.332 2.434-1.584l.088-.061c.244-.167.495-.34.748-.503.19-.123.396-.246.647-.384.304-.166.62-.31.943-.432.12-.024.213.135.217.142.128.222-.116.48-.144.509-.04.04-.082.077-.126.112l-.053.044-.004.003-1.294.916.744.2a.164.164 0 0 1 .082.265l-.234.27a.163.163 0 0 1-.139.057l-.96-.091a3.866 3.866 0 0 1-.384-.042.297.297 0 0 0-.224.058 9.976 9.976 0 0 1-1.184.644 3.43 3.43 0 0 1-.932.26c-.095.013-.19.019-.286.019Zm-.434-.203c.104.026.209.045.315.058.13.009.26.005.388-.013a3.3 3.3 0 0 0 .895-.252 6.09 6.09 0 0 0 .495-.243c.25-.134.469-.262.669-.389a.442.442 0 0 1 .322-.078c.091.016.188.025.28.033l.094.008.96.091c.004 0 .007 0 .011-.002a.024.024 0 0 0 .01-.006l.233-.271a.024.024 0 0 0 .005-.022.023.023 0 0 0-.017-.017c-.882-.233-.892-.239-.904-.246a.07.07 0 0 1-.027-.091.07.07 0 0 1 .023-.026l1.41-.998.052-.044c.04-.032.078-.066.115-.102.008-.008.2-.206.123-.34a.193.193 0 0 0-.071-.075c-.308.12-.609.26-.9.417a9.856 9.856 0 0 0-.639.38c-.25.162-.502.334-.744.5l-.089.06c-.24.165-2.255 1.516-2.459 1.6a.419.419 0 0 1-.368.013.187.187 0 0 0-.036-.013c-.036-.006-.094.033-.146.068Z"
                    ></path>
                  </svg>