<svg xmlns="http://www.w3.org/2000/svg" fill="currentColor" viewBox="0 0 14 14" width="16" height="16" role="img"><path class="ic-m-overflow_line_svg__ic_m_overflow_line" d="M1.794 1.782a.804.804 0 0 0-.513.513.899.899 0 0 0 .055.54.828.828 0 0 0 .344.342l.105.055h10.43l.1-.054a.877.877 0 0 0 .351-.342c.055-.103.062-.144.062-.339 0-.203-.006-.233-.069-.347a.818.818 0 0 0-.361-.336l-.106-.052-5.145-.005c-4.055-.003-5.168.002-5.253.025m-.039 4.515a.724.724 0 0 0-.372.293c-.1.146-.13.27-.118.468a.716.716 0 0 0 .411.612l.132.065h10.384l.132-.065a.813.813 0 0 0 .351-.348c.045-.084.053-.136.053-.322s-.008-.238-.053-.322a.813.813 0 0 0-.351-.348l-.132-.065-5.157-.005c-4.948-.005-5.162-.004-5.28.037m.042 4.481a.82.82 0 0 0-.47.399c-.047.088-.055.139-.055.326 0 .203.006.233.069.347a.818.818 0 0 0 .361.336l.106.052h10.384l.116-.057a.803.803 0 0 0 .384-.411.609.609 0 0 0 .042-.313.733.733 0 0 0-.414-.634l-.105-.055-5.18-.004c-2.849-.002-5.206.005-5.238.014" fill-rule="evenodd"></path></svg>