<svg xmlns="http://www.w3.org/2000/svg" fill="none" viewBox="0 0 14 14" width="40" height="40" role="img"><path class="ic-a-plan_svg__ic_a_plan" fill="#FBDC00" stroke="#221F1F" stroke-linecap="round" stroke-linejoin="round" stroke-width="0.374" d="M9.37 1.851c0-.36-.276-.651-.617-.651-.34 0-.617.291-.617.651v1.307c0 .36.276.65.617.65.341.001.618-.29.618-.65V1.851Z"></path><g stroke="#221F1F" stroke-linecap="round" stroke-linejoin="round" stroke-width="0.374"><path class="ic-a-plan_svg__ic_a_plan" fill="#FBDC00" d="M9.935 2.2h-5.87c-.515 0-.932.44-.932.981v8.638c0 .542.417.981.932.981h5.87c.515 0 .932-.44.932-.981V3.18c0-.542-.417-.981-.932-.981Z"></path><path class="ic-a-plan_svg__ic_a_plan" fill="#FBDC00" d="M5.864 1.851c0-.36-.276-.651-.617-.651-.341 0-.618.291-.618.651v1.307c0 .36.277.65.618.65.34.001.617-.29.617-.65V1.851Z"></path><path class="ic-a-plan_svg__ic_a_plan" d="M6.366 5.78h2.908M6.366 8.095h2.908M6.366 10.41h2.908"></path><path class="ic-a-plan_svg__ic_a_plan" fill="#fff" d="M4.749 6.525c.39 0 .707-.334.707-.745s-.317-.745-.707-.745c-.39 0-.707.334-.707.745s.317.745.707.745Zm0 2.315c.39 0 .707-.334.707-.745s-.317-.745-.707-.745c-.39 0-.707.334-.707.745s.317.745.707.745Zm0 2.314c.39 0 .707-.333.707-.745 0-.411-.317-.744-.707-.744-.39 0-.707.333-.707.744 0 .412.317.745.707.745Z"></path></g></svg>