<svg
                    xmlns="http://www.w3.org/2000/svg"
                    fill="none"
                    viewBox="0 0 14 14"
                    width="60"
                    height="60"
                    role="img"
                  >
                    <path
                      fill="#231F20"
                      d="M10.4 5.025a.077.077 0 0 1-.077-.077v-.882a.194.194 0 0 0-.193-.193H7.096a.077.077 0 0 1 0-.154h3.034a.348.348 0 0 1 .347.347v.882a.077.077 0 0 1-.077.077Z"
                    ></path>
                    <path
                      fill="#FBDC00"
                      d="m4.091 3.797 6.345 1.08v4.589H4.09v-5.67Z"
                    ></path>
                    <path
                      fill="#231F20"
                      d="M10.436 9.543H4.09a.077.077 0 0 1-.076-.077v-5.67a.077.077 0 0 1 .09-.075l6.344 1.08a.077.077 0 0 1 .063.075v4.59a.077.077 0 0 1-.076.077Zm-6.268-.154h6.19V4.94l-6.19-1.053v5.5Z"
                    ></path>
                    <path
                      fill="#FBDC00"
                      d="m1.077 4.651 3.015-.855v5.67H1.077V4.65Z"
                    ></path>
                    <path
                      fill="#231F20"
                      d="M4.091 9.542H1.077A.077.077 0 0 1 1 9.466V4.65a.077.077 0 0 1 .056-.074l3.014-.855a.077.077 0 0 1 .098.074v5.67a.077.077 0 0 1-.077.076ZM1.154 9.39h2.861V3.9l-2.861.81v4.68Zm8.216-.644a.077.077 0 0 1-.077-.077V5.643a.077.077 0 0 1 .153 0V8.67a.077.077 0 0 1-.076.077Zm-1.034 0a.077.077 0 0 1-.077-.077V5.491a.077.077 0 1 1 .154 0V8.67a.077.077 0 0 1-.077.077Zm-1.034 0a.077.077 0 0 1-.077-.077v-3.38a.077.077 0 1 1 .154 0v3.38a.077.077 0 0 1-.077.077Zm-1.033 0a.077.077 0 0 1-.077-.077V5.112a.077.077 0 0 1 .154 0V8.67a.077.077 0 0 1-.077.077Zm-1.034 0a.077.077 0 0 1-.077-.077V4.91a.077.077 0 0 1 .154 0v3.76a.077.077 0 0 1-.077.076Z"
                    ></path>
                    <path
                      fill="#231F20"
                      d="M2.499 8.494a.077.077 0 0 1-.077-.077V5.282a.077.077 0 1 1 .153 0v3.135a.077.077 0 0 1-.076.077Z"
                    ></path>
                    <path
                      fill="#fff"
                      d="M7.742 7.73v-.515l2.641-.761 2.485.805v.47H7.741Z"
                    ></path>
                    <path
                      fill="#231F20"
                      d="M12.867 7.806H7.742a.077.077 0 0 1-.077-.077v-.514a.077.077 0 0 1 .056-.074l2.64-.761a.077.077 0 0 1 .046 0l2.484.806a.077.077 0 0 1 .053.073v.47a.077.077 0 0 1-.077.077ZM7.82 7.653h4.972v-.338l-2.41-.781-2.562.738v.38Z"
                    ></path>
                    <path
                      fill="#fff"
                      d="M12.662 7.73H7.947v3.372h4.715V7.729Z"
                    ></path>
                    <path
                      fill="#231F20"
                      d="M12.662 11.178H7.947a.077.077 0 0 1-.077-.076V7.729a.077.077 0 0 1 .077-.076h4.715a.077.077 0 0 1 .077.076v3.373a.077.077 0 0 1-.077.076Zm-4.638-.153h4.561V7.806H8.024v3.219Z"
                    ></path>
                    <path
                      fill="#fff"
                      d="M12.078 8.223H8.531v2.879h3.547v-2.88Z"
                    ></path>
                    <path
                      fill="#231F20"
                      d="M12.156 11.18H8.454V8.144h3.704v3.036Zm-3.547-.156h3.39V8.3H8.61v2.723Z"
                    ></path>
                    <path
                      fill="#231F20"
                      d="M12.923 11.178H7.686a.077.077 0 0 1 0-.153h5.237a.077.077 0 1 1 0 .153ZM9.924 7.205h-.37v.153h.37v-.153Zm.623 0h-.369v.153h.37v-.153Zm.623 0h-.368v.153h.369v-.153Z"
                    ></path>
                    <path
                      fill="#fff"
                      d="M6.091 3.817c0 .478.65 1.246.65 1.246s.65-.717.65-1.246c0-.384-.266-.74-.65-.74s-.65.356-.65.74Z"
                    ></path>
                    <path
                      fill="#231F20"
                      d="M6.742 5.14H6.74a.077.077 0 0 1-.057-.027c-.027-.032-.668-.796-.668-1.296 0-.45.326-.817.728-.817.401 0 .727.366.727.817 0 .553-.643 1.268-.67 1.298a.077.077 0 0 1-.058.025Zm0-1.986c-.354 0-.574.344-.574.663 0 .364.42.93.576 1.126.156-.188.571-.724.571-1.126 0-.32-.22-.663-.573-.663Z"
                    ></path>
                    <path
                      fill="#fff"
                      d="M6.742 4.058a.287.287 0 1 0 0-.573.287.287 0 0 0 0 .573Z"
                    ></path>
                    <path
                      fill="#231F20"
                      d="M6.742 4.135a.364.364 0 1 1 0-.727.364.364 0 0 1 0 .727Zm0-.573a.21.21 0 1 0 0 .42.21.21 0 0 0 0-.42Z"
                    ></path>
                    <path
                      fill="#fff"
                      d="M9.75 5.584c0 .478.65 1.247.65 1.247s.65-.718.65-1.247c0-.384-.266-.74-.65-.74-.383 0-.65.356-.65.74Z"
                    ></path>
                    <path
                      fill="#231F20"
                      d="M10.4 6.907a.077.077 0 0 1-.058-.027c-.028-.032-.668-.795-.668-1.296 0-.45.326-.817.727-.817.4 0 .727.367.727.817 0 .553-.643 1.268-.67 1.298a.076.076 0 0 1-.058.025Zm0-1.986c-.354 0-.573.344-.573.663 0 .365.42.93.575 1.127.157-.188.572-.724.572-1.127 0-.319-.22-.663-.574-.663Z"
                    ></path>
                    <path
                      fill="#fff"
                      d="M10.4 5.826a.287.287 0 1 0 0-.574.287.287 0 0 0 0 .574Z"
                    ></path>
                    <path
                      fill="#231F20"
                      d="M10.4 5.903a.363.363 0 1 1 0-.727.363.363 0 0 1 0 .727Zm0-.574a.21.21 0 1 0 0 .42.21.21 0 0 0 0-.42Z"
                    ></path>
                    <path
                      fill="#fff"
                      d="M10.058 9.83H8.936v.857h1.122V9.83Z"
                    ></path>
                    <path
                      fill="#231F20"
                      d="M10.135 10.764H8.859v-1.01h1.276v1.01Zm-1.122-.154h.968v-.703h-.968v.703Z"
                    ></path>
                    <path
                      fill="#fff"
                      d="M11.605 9.83h-1.122v.857h1.122V9.83Z"
                    ></path>
                    <path
                      fill="#231F20"
                      d="M11.682 10.764h-1.276v-1.01h1.276v1.01Zm-1.121-.154h.968v-.703h-.968v.703Z"
                    ></path>
                    <path
                      fill="#fff"
                      d="M10.058 8.666H8.936v.856h1.122v-.856Z"
                    ></path>
                    <path
                      fill="#231F20"
                      d="M10.135 9.599H8.859v-1.01h1.276v1.01Zm-1.122-.154h.968v-.702h-.968v.702Z"
                    ></path>
                    <path
                      fill="#fff"
                      d="M11.605 8.666h-1.122v.856h1.122v-.856Z"
                    ></path>
                    <path
                      fill="#231F20"
                      d="M11.682 9.599h-1.276v-1.01h1.276v1.01Zm-1.121-.154h.968v-.702h-.968v.702Z"
                    ></path>
                    <path
                      fill="#231F20"
                      d="M10.942 9.185h-.395v.153h.395v-.153Zm-1.572 0h-.395v.153h.395v-.153Zm1.572 1.153h-.395v.154h.395v-.154Zm-1.572 0h-.395v.154h.395v-.154Z"
                    ></path>
                  </svg>