<svg
                    xmlns="http://www.w3.org/2000/svg"
                    fill="none"
                    viewBox="0 0 14 14"
                    width="60"
                    height="60"
                    role="img"
                  >
                    <path
                      fill="#FEDE00"
                      d="M2.334 1.29v11.5h9.492l-.23-9.882-.35-.22-.789-.04V1.81l-.13-.51s-.06.21-.5 0c-.439-.21-7.493-.01-7.493-.01Z"
                    ></path>
                    <path
                      fill="#fff"
                      d="M4.652 5.356a1.649 1.649 0 1 0 0-3.297 1.649 1.649 0 0 0 0 3.297Z"
                    ></path>
                    <path
                      fill="#000"
                      d="M2.004 6.995V1.3c0-.25.05-.3.3-.3h8.613c.66 0 1.079.42 1.079 1.08v10.63c0 .23-.06.29-.29.29H2.294c-.23-.01-.29-.07-.29-.3V6.995Zm.41-5.595v11.18h9.172V2.998h-.939c-.18 0-.25-.07-.25-.25V1.89c0-.34-.15-.49-.48-.49H2.415Zm9.182 1.189c0-.23.01-.44 0-.66a.585.585 0 0 0-.51-.53c-.12-.01-.25 0-.38 0 .18.39.06.79.11 1.19h.78Z"
                    ></path>
                    <path
                      fill="#000"
                      d="M9.018 4.507h1.619c.1.02.16.09.16.19s-.06.17-.16.2c-.04.01-.09.01-.14.01H7.41c-.12-.01-.2-.09-.2-.2 0-.11.08-.2.21-.2h1.598Zm-.03 6.914H7.45c-.07 0-.15-.02-.19-.06-.04-.04-.07-.14-.05-.19.02-.06.1-.1.16-.14.03-.02.07-.01.11-.01h3.117c.12.01.2.09.2.19 0 .11-.08.2-.21.2h-.6c-.33.01-.659.01-.999.01Zm.61-7.623h.949c.16 0 .25.08.25.2 0 .12-.09.2-.25.2H8.649c-.16 0-.25-.08-.25-.2 0-.12.09-.2.25-.2h.949Zm-4.387-.48c0 .11-.07.19-.17.21-.1.01-.18-.06-.21-.16a.336.336 0 0 0-.05-.14c-.04-.08-.11-.1-.199-.06-.08.03-.12.1-.11.18.01.09.06.15.15.17.06.01.12.01.17.02a.554.554 0 0 1 .15 1.02c-.06.039-.1.059-.11.139-.02.09-.09.13-.18.13s-.14-.06-.18-.14a.313.313 0 0 0-.08-.11.562.562 0 0 1-.29-.44c-.02-.13.05-.23.16-.24.11-.01.19.06.21.19.01.1.06.17.16.17.06 0 .15-.04.18-.09.03-.05.02-.14-.01-.2a.338.338 0 0 0-.16-.07c-.28-.03-.48-.19-.53-.449-.05-.24.06-.47.3-.61.03-.02.05-.05.06-.08.03-.1.09-.16.19-.15.1 0 .15.06.18.15.01.04.04.08.08.1.18.09.29.27.29.46Z"
                    ></path>
                  </svg>