<svg
                    xmlns="http://www.w3.org/2000/svg"
                    fill="none"
                    viewBox="0 0 15 14"
                    width="60"
                    height="60"
                    role="img"
                  >
                    <path
                      fill="#FBDC00"
                      d="M12.485 6.675H6.618v3.394h5.867V6.675Z"
                    ></path>
                    <path
                      fill="#000"
                      d="M12.485 10.153H6.618a.085.085 0 0 1-.084-.084V6.675a.085.085 0 0 1 .084-.085h5.867a.085.085 0 0 1 .084.085v3.394a.084.084 0 0 1-.084.084Zm-5.782-.169H12.4V6.76H6.703v3.225Z"
                    ></path>
                    <path
                      fill="#000"
                      d="M11.62 9.735a.084.084 0 0 1-.085-.085V7.283a.084.084 0 1 1 .169 0V9.65a.085.085 0 0 1-.085.085Zm-1.035 0a.084.084 0 0 1-.084-.085V7.283a.084.084 0 1 1 .169 0V9.65a.085.085 0 0 1-.085.085Zm-1.034 0a.084.084 0 0 1-.084-.085V7.283a.085.085 0 1 1 .169 0V9.65a.085.085 0 0 1-.085.085Zm-1.034 0a.085.085 0 0 1-.084-.085V7.283a.085.085 0 0 1 .169 0V9.65a.085.085 0 0 1-.085.085Zm-1.034 0a.084.084 0 0 1-.085-.085V7.283a.085.085 0 0 1 .17 0V9.65a.085.085 0 0 1-.085.085Z"
                    ></path>
                    <path
                      fill="#FBDC00"
                      d="M12.495 3.252H6.619v3.4h5.876v-3.4Z"
                    ></path>
                    <path
                      fill="#000"
                      d="M12.495 6.737H6.618a.085.085 0 0 1-.084-.085v-3.4a.085.085 0 0 1 .084-.084h5.877a.085.085 0 0 1 .084.085v3.4a.085.085 0 0 1-.084.084Zm-5.792-.17h5.707v-3.23H6.703v3.23Z"
                    ></path>
                    <path
                      fill="#000"
                      d="M11.628 6.317a.085.085 0 0 1-.084-.084V3.862a.085.085 0 1 1 .169 0v2.37a.085.085 0 0 1-.085.085Zm-1.036 0a.085.085 0 0 1-.084-.084V3.862a.085.085 0 1 1 .17 0v2.37a.085.085 0 0 1-.086.085Zm-1.035 0a.085.085 0 0 1-.085-.084V3.862a.085.085 0 0 1 .17 0v2.37a.085.085 0 0 1-.085.085Zm-1.037 0a.085.085 0 0 1-.084-.084V3.862a.085.085 0 0 1 .17 0v2.37a.085.085 0 0 1-.085.085Zm-1.035 0a.085.085 0 0 1-.085-.084V3.862a.085.085 0 1 1 .17 0v2.37a.085.085 0 0 1-.085.085Z"
                    ></path>
                    <path fill="#fff" d="M5.555 6.83V5.263H2.358V6.83"></path>
                    <path
                      fill="#000"
                      d="M5.63 6.83h-.15V5.338H2.432v1.494h-.15V5.186H5.63v1.645Z"
                    ></path>
                    <path
                      fill="#fff"
                      d="m1.108 7.402 2.89-1.296 2.755 1.296L5.42 10.44H2.73L1.108 7.402Z"
                    ></path>
                    <path
                      fill="#000"
                      d="M5.47 10.516H2.684l-1.682-3.15 2.995-1.343 2.854 1.342-1.383 3.15Zm-2.694-.151H5.37l1.284-2.926-2.658-1.25-2.785 1.249 1.564 2.927Z"
                    ></path>
                    <path
                      fill="#fff"
                      d="M4.997 4.417H2.92v.845h2.078v-.845Z"
                    ></path>
                    <path
                      fill="#000"
                      d="M5.073 5.337H2.845v-.995h2.229v.995Zm-2.078-.15h1.927v-.694H2.995v.693Z"
                    ></path>
                    <path
                      fill="#fff"
                      d="M4.334 3.662h-.756v.755h.756v-.755Z"
                    ></path>
                    <path
                      fill="#000"
                      d="M4.41 4.493h-.906v-.907h.906v.907Zm-.756-.15h.605v-.606h-.605v.605Zm.396 1.801H3.9v4.24h.15v-4.24Z"
                    ></path>
                    <path
                      fill="#fff"
                      d="M4.942 8.294a.37.37 0 1 0 0-.74.37.37 0 0 0 0 .74Z"
                    ></path>
                    <path
                      fill="#000"
                      d="M4.942 8.369a.445.445 0 1 1 0-.89.445.445 0 0 1 0 .89Zm0-.74a.295.295 0 1 0 0 .59.295.295 0 0 0 0-.59Z"
                    ></path>
                    <path
                      fill="#fff"
                      d="M2.919 8.294a.37.37 0 1 0 0-.74.37.37 0 0 0 0 .74Z"
                    ></path>
                    <path
                      fill="#000"
                      d="M2.919 8.369a.445.445 0 1 1 0-.89.445.445 0 0 1 0 .89Zm0-.74a.295.295 0 1 0 0 .59.295.295 0 0 0 0-.59Z"
                    ></path>
                    <path
                      fill="#fff"
                      d="M12.968 9.652v1.153H2.165V9.658c.637 0 1.239-1.169 1.814-1.169.63 0 1.23 1.169 1.813 1.169.617 0 1.215-1.169 1.814-1.169S8.804 9.658 9.42 9.658c.584 0 1.184-1.169 1.813-1.169.553 0 1.127 1.074 1.735 1.163Z"
                    ></path>
                    <path
                      fill="#000"
                      d="M13.044 10.88H2.09V9.582h.075c.297 0 .604-.297.901-.585.31-.3.603-.583.913-.583.351 0 .678.316.994.622.277.27.564.547.82.547.28 0 .578-.29.867-.57.304-.294.619-.6.947-.6.327 0 .642.305.946.6.289.28.588.57.867.57.256 0 .543-.278.82-.547.316-.306.643-.622.994-.622.311 0 .604.283.913.583.274.265.557.54.832.58l.064.01.001 1.293Zm-10.803-.151h10.652V9.714c-.298-.074-.579-.346-.85-.609-.275-.266-.559-.54-.808-.54-.291 0-.595.294-.89.58-.312.302-.608.588-.924.588-.341 0-.662-.31-.973-.612-.282-.274-.574-.556-.841-.556s-.559.283-.841.556c-.311.301-.632.612-.973.612-.317 0-.612-.286-.924-.589-.295-.285-.599-.58-.889-.58-.25 0-.534.275-.809.541-.296.287-.601.583-.93.623v1Z"
                    ></path>
                  </svg>