<svg
                    xmlns="http://www.w3.org/2000/svg"
                    fill="none"
                    viewBox="0 0 15 14"
                    width="60"
                    height="60"
                    role="img"
                  >
                    <path
                      fill="#FBDC00"
                      d="M10.012 7.091H7.31v2.677h2.7V7.091Z"
                    ></path>
                    <path
                      fill="#000"
                      d="M10.012 9.899h-2.7a.13.13 0 0 1-.131-.13V7.09a.13.13 0 0 1 .13-.13h2.701a.13.13 0 0 1 .13.13v2.677a.132.132 0 0 1-.08.12.13.13 0 0 1-.05.01Zm-2.7-.13h2.7V7.09h-2.7v2.677Z"
                    ></path>
                    <path fill="#fff" d="M9.174 7.092v.866H8.15v-.866"></path>
                    <path
                      fill="#000"
                      d="M8.669 8.79H7.72a.154.154 0 0 1-.087-.03.083.083 0 0 1-.035-.065c0-.024.012-.048.035-.065a.154.154 0 0 1 .087-.03h.949a.154.154 0 0 1 .086.03c.023.017.036.04.036.065a.083.083 0 0 1-.036.065.154.154 0 0 1-.086.03Zm0 .308H7.72a.154.154 0 0 1-.087-.03.083.083 0 0 1-.035-.065c0-.024.012-.048.035-.065a.154.154 0 0 1 .087-.03h.949a.154.154 0 0 1 .086.03c.023.017.036.04.036.065a.083.083 0 0 1-.036.065.154.154 0 0 1-.086.03Z"
                    ></path>
                    <path
                      stroke="#000"
                      stroke-width="0.103"
                      d="M8.137 7.052v.905h1.04v-.905"
                    ></path>
                    <path
                      fill="#FBDC00"
                      d="M12.843 7.091h-2.701v2.677h2.701V7.091Z"
                    ></path>
                    <path
                      fill="#000"
                      d="M12.844 9.899h-2.701a.13.13 0 0 1-.13-.13V7.09a.13.13 0 0 1 .13-.13h2.7a.13.13 0 0 1 .131.13v2.677a.132.132 0 0 1-.08.12.13.13 0 0 1-.05.01Zm-2.701-.13h2.7V7.09h-2.7v2.677Z"
                    ></path>
                    <path fill="#fff" d="M12.005 7.092v.866H10.98v-.866"></path>
                    <path
                      fill="#000"
                      d="M11.5 8.79h-.949a.154.154 0 0 1-.087-.03.084.084 0 0 1-.035-.065c0-.024.013-.048.035-.065a.154.154 0 0 1 .087-.03h.949a.154.154 0 0 1 .087.03.08.08 0 0 1 .035.065.083.083 0 0 1-.035.065.154.154 0 0 1-.087.03Zm0 .308h-.949a.154.154 0 0 1-.087-.03.084.084 0 0 1-.035-.065c0-.024.013-.048.035-.065a.154.154 0 0 1 .087-.03h.949a.154.154 0 0 1 .087.03.08.08 0 0 1 .035.065.083.083 0 0 1-.035.065.154.154 0 0 1-.087.03Z"
                    ></path>
                    <path
                      stroke="#000"
                      stroke-width="0.103"
                      d="M10.968 7.052v.905h1.04v-.905"
                    ></path>
                    <path fill="#fff" d="M5.729 6.828V5.21H2.432v1.618"></path>
                    <path
                      fill="#000"
                      d="M5.806 6.828h-.155v-1.54H2.509v1.54h-.155V5.132h3.452v1.696Z"
                    ></path>
                    <path
                      fill="#fff"
                      d="m1.142 7.417 2.98-1.336 2.842 1.336L5.59 10.55H2.815L1.142 7.417Z"
                    ></path>
                    <path
                      fill="#000"
                      d="M5.64 10.628H2.77L1.034 7.38l3.088-1.385 2.943 1.384-1.426 3.249Zm-2.778-.156h2.676l1.325-3.017-2.742-1.29-2.87 1.288 1.611 3.02Z"
                    ></path>
                    <path
                      fill="#fff"
                      d="M5.153 4.339H3.01v.87h2.143v-.87Z"
                    ></path>
                    <path
                      fill="#000"
                      d="M5.231 5.288H2.933V4.26h2.299v1.027Zm-2.143-.156h1.988v-.715H3.088v.715Z"
                    ></path>
                    <path
                      fill="#fff"
                      d="M4.469 3.56h-.78v.779h.78v-.78Z"
                    ></path>
                    <path
                      fill="#000"
                      d="M4.547 4.417h-.934v-.935h.935v.935Zm-.779-.156h.624v-.624h-.624v.624Zm.409 1.859H4.02v4.372h.156V6.12Z"
                    ></path>
                    <path
                      fill="#fff"
                      d="M5.096 8.336a.382.382 0 1 0 0-.763.382.382 0 0 0 0 .763Z"
                    ></path>
                    <path
                      fill="#000"
                      d="M5.096 8.414a.46.46 0 1 1 0-.919.46.46 0 0 1 0 .919Zm0-.763a.304.304 0 1 0 0 .607.304.304 0 0 0 0-.607Z"
                    ></path>
                    <path
                      fill="#fff"
                      d="M3.01 8.336a.382.382 0 1 0 0-.763.382.382 0 0 0 0 .763Z"
                    ></path>
                    <path
                      fill="#000"
                      d="M3.01 8.414a.46.46 0 1 1 0-.919.46.46 0 0 1 0 .919Zm0-.763a.304.304 0 1 0 0 .607.304.304 0 0 0 0-.607Z"
                    ></path>
                    <path
                      fill="#fff"
                      d="M13.373 9.738v1.188H2.233V9.744c.657 0 1.277-1.205 1.87-1.205.65 0 1.268 1.205 1.87 1.205.636 0 1.253-1.205 1.87-1.205.618 0 1.236 1.205 1.871 1.205.602 0 1.221-1.205 1.87-1.205.57 0 1.163 1.106 1.79 1.199Z"
                    ></path>
                    <path
                      fill="#000"
                      d="M13.452 11.004H2.155V9.666h.078c.306 0 .623-.307.93-.604.319-.309.62-.601.94-.601.362 0 .7.325 1.025.641.286.278.582.564.846.564.288 0 .596-.299.894-.587.314-.304.638-.618.976-.618.338 0 .662.313.976.618.298.288.606.587.895.587.264 0 .56-.287.845-.564.326-.315.663-.641 1.025-.641.32 0 .622.292.941.601.283.274.575.556.858.598l.067.01v1.334ZM2.31 10.848h10.985V9.8c-.308-.076-.597-.356-.877-.628-.283-.274-.576-.557-.833-.557-.3 0-.614.304-.918.598-.322.312-.627.607-.953.607-.351 0-.682-.32-1.003-.63-.291-.283-.592-.575-.867-.575s-.577.292-.868.574c-.32.31-.652.631-1.003.631-.327 0-.631-.295-.953-.607-.304-.294-.617-.598-.917-.598-.257 0-.55.283-.833.558-.306.296-.621.6-.96.642v1.032Z"
                    ></path>
                    <path
                      fill="#FBDC00"
                      d="M11.443 4.284H8.742v2.677h2.701V4.284Z"
                    ></path>
                    <path
                      fill="#000"
                      d="M11.444 7.092H8.743a.13.13 0 0 1-.13-.13V4.283a.13.13 0 0 1 .08-.12.13.13 0 0 1 .05-.01h2.7a.13.13 0 0 1 .131.13V6.96a.132.132 0 0 1-.08.12.13.13 0 0 1-.05.01Zm-2.701-.13h2.7V4.283h-2.7V6.96Z"
                    ></path>
                    <path fill="#fff" d="M10.605 4.285v.866H9.58v-.866"></path>
                    <path
                      fill="#000"
                      d="M10.1 5.983h-.95a.154.154 0 0 1-.087-.03.083.083 0 0 1-.035-.065c0-.024.013-.048.035-.065a.154.154 0 0 1 .087-.03h.949a.154.154 0 0 1 .087.03.08.08 0 0 1 .035.065.083.083 0 0 1-.035.065.154.154 0 0 1-.087.03Zm0 .307h-.95a.154.154 0 0 1-.086-.029.083.083 0 0 1-.036-.065c0-.024.013-.048.036-.065a.154.154 0 0 1 .086-.03h.949a.154.154 0 0 1 .087.03.08.08 0 0 1 .035.065.083.083 0 0 1-.035.065.154.154 0 0 1-.087.03Z"
                    ></path>
                    <path
                      stroke="#000"
                      stroke-width="0.103"
                      d="M9.568 4.245v.905h1.04v-.905"
                    ></path>
                  </svg>