<svg
                    xmlns="http://www.w3.org/2000/svg"
                    fill="none"
                    viewBox="0 0 14 14"
                    width="60"
                    height="60"
                    role="img"
                  >
                    <path
                      fill="#fff"
                      d="M6.997 12.001a4.461 4.461 0 1 0 0-8.922 4.461 4.461 0 0 0 0 8.922Z"
                    ></path>
                    <path
                      fill="#231F20"
                      d="M6.997 12.121a4.582 4.582 0 1 1 0-9.164 4.582 4.582 0 0 1 0 9.165Zm0-8.921a4.34 4.34 0 1 0 0 8.68 4.34 4.34 0 0 0 0-8.68Z"
                    ></path>
                    <path
                      fill="#231F20"
                      d="M6.997 12.121a.121.121 0 0 1-.12-.12V7.013a.12.12 0 1 1 .241 0v4.989a.12.12 0 0 1-.12.12Zm0-6.621a.121.121 0 0 1-.12-.12v-2.3a.121.121 0 1 1 .24 0v2.3a.121.121 0 0 1-.12.12Zm-1.619 6.326a.12.12 0 0 1-.097-.05c-.042-.056-1.034-1.4-1.034-4.239 0-2.838.992-4.183 1.034-4.238a.121.121 0 0 1 .193.146c-.01.013-.985 1.34-.985 4.092 0 2.753.975 4.08.985 4.093a.121.121 0 0 1-.096.193v.003Zm3.25 0a.12.12 0 0 1-.12-.131.121.121 0 0 1 .024-.062c.01-.013.985-1.34.985-4.092 0-2.762-.976-4.08-.986-4.093a.121.121 0 0 1 .193-.146c.042.056 1.034 1.398 1.034 4.239s-.992 4.183-1.034 4.239a.12.12 0 0 1-.096.046Z"
                    ></path>
                    <path
                      fill="#231F20"
                      d="M11.464 7.655H2.542a.121.121 0 1 1 0-.242h8.922a.121.121 0 0 1 0 .242ZM2.837 6.036a.121.121 0 0 1-.073-.217c.056-.042 1.398-1.034 4.239-1.034 2.84 0 4.183.992 4.239 1.034a.12.12 0 0 1-.147.193c-.013-.01-1.34-.985-4.093-.985-2.76 0-4.08.975-4.093.985a.12.12 0 0 1-.072.024Zm4.166 4.259c-2.841 0-4.183-.992-4.24-1.034a.121.121 0 0 1 .147-.192c.013.01 1.34.984 4.093.984 2.752 0 4.08-.975 4.093-.984a.12.12 0 0 1 .146.192c-.056.043-1.398 1.034-4.239 1.034Z"
                    ></path>
                    <path
                      fill="#fff"
                      d="M4.369 8.231a.585.585 0 1 0 0-1.169.585.585 0 0 0 0 1.169Z"
                    ></path>
                    <path
                      fill="#231F20"
                      d="M4.368 8.351a.705.705 0 1 1 0-1.41.705.705 0 0 1 0 1.41Zm0-1.168a.463.463 0 1 0 0 .927.463.463 0 0 0 0-.927Z"
                    ></path>
                    <path
                      fill="#fff"
                      d="M9.402 5.965a.585.585 0 1 0 0-1.169.585.585 0 0 0 0 1.169Z"
                    ></path>
                    <path
                      fill="#231F20"
                      d="M9.402 6.086a.705.705 0 1 1 0-1.41.705.705 0 0 1 0 1.41Zm0-1.169a.464.464 0 1 0 0 .927.464.464 0 0 0 0-.927Z"
                    ></path>
                    <path
                      fill="#fff"
                      d="M7.004 10.76a.585.585 0 1 0 0-1.17.585.585 0 0 0 0 1.17Z"
                    ></path>
                    <path
                      fill="#231F20"
                      d="M7.003 10.88a.706.706 0 1 1 0-1.411.706.706 0 0 1 0 1.411Zm0-1.169a.463.463 0 1 0 0 .928.463.463 0 0 0 0-.928Z"
                    ></path>
                    <path
                      fill="#FBDC00"
                      d="M10.539 3.293c-.038.763-1.136 2.22-1.136 2.22s-1.092-1.418-1.135-2.22A1.193 1.193 0 0 1 9.403 2a1.161 1.161 0 0 1 1.136 1.293Z"
                    ></path>
                    <path
                      fill="#231F20"
                      d="M9.402 5.634a.12.12 0 0 1-.095-.047C9.261 5.528 8.191 4.13 8.147 3.3a1.372 1.372 0 0 1 .371-1.03 1.217 1.217 0 0 1 1.781-.009 1.383 1.383 0 0 1 .36 1.038c-.039.791-1.113 2.226-1.16 2.287a.121.121 0 0 1-.096.05v-.002Zm0-3.514a.988.988 0 0 0-.709.316 1.134 1.134 0 0 0-.305.85c.033.618.75 1.658 1.013 2.022.264-.37.987-1.432 1.017-2.021a1.144 1.144 0 0 0-.294-.86.987.987 0 0 0-.722-.307Z"
                    ></path>
                    <path
                      fill="#fff"
                      d="M9.403 3.757a.602.602 0 1 0 0-1.204.602.602 0 0 0 0 1.204Z"
                    ></path>
                    <path
                      fill="#231F20"
                      d="M9.402 3.877a.722.722 0 1 1 0-1.444.722.722 0 0 1 0 1.445Zm0-1.203a.48.48 0 1 0 0 .965.48.48 0 0 0 0-.967v.002Z"
                    ></path>
                    <path
                      fill="#fff"
                      d="M9.402 5.514a8.09 8.09 0 0 0-4.45 1.753Z"
                    ></path>
                    <path
                      fill="#231F20"
                      d="M4.952 7.388a.121.121 0 0 1-.072-.217l.132-.1a.121.121 0 0 1 .143.195l-.13.096a.121.121 0 0 1-.073.026Zm.615-.428a.121.121 0 0 1-.065-.223c.166-.106.337-.209.508-.304a.121.121 0 1 1 .118.211 9.078 9.078 0 0 0-.496.297.121.121 0 0 1-.065.02V6.96Zm1.023-.57a.121.121 0 0 1-.05-.23c.18-.085.362-.164.545-.236a.121.121 0 0 1 .088.225c-.177.07-.356.15-.53.23a.121.121 0 0 1-.053.01v.001Zm1.09-.43a.121.121 0 0 1-.037-.236c.19-.06.383-.114.573-.16a.121.121 0 1 1 .056.236 8.025 8.025 0 0 0-.556.154.118.118 0 0 1-.037.006Zm1.138-.27a.12.12 0 0 1-.017-.24c.198-.033.398-.053.6-.058a.121.121 0 1 1 0 .242c-.19.006-.379.024-.566.055l-.017.001Z"
                    ></path>
                    <path
                      fill="#FBDC00"
                      d="M5.507 5.452c-.038.763-1.136 2.22-1.136 2.22s-1.092-1.418-1.135-2.22A1.194 1.194 0 0 1 4.37 4.158a1.161 1.161 0 0 1 1.136 1.294Z"
                    ></path>
                    <path
                      fill="#231F20"
                      d="M4.368 7.793a.12.12 0 0 1-.095-.048c-.045-.059-1.116-1.457-1.16-2.287a1.371 1.371 0 0 1 .371-1.029 1.217 1.217 0 0 1 1.782-.009 1.383 1.383 0 0 1 .359 1.038c-.04.791-1.114 2.225-1.16 2.286a.12.12 0 0 1-.096.05v-.001Zm0-3.515a.988.988 0 0 0-.709.317 1.134 1.134 0 0 0-.306.85c.034.618.75 1.658 1.014 2.022.265-.37.987-1.433 1.016-2.021a1.145 1.145 0 0 0-.293-.859.986.986 0 0 0-.722-.308Z"
                    ></path>
                    <path
                      fill="#fff"
                      d="M4.369 5.915a.602.602 0 1 0 0-1.204.602.602 0 0 0 0 1.204Z"
                    ></path>
                    <path
                      fill="#231F20"
                      d="M4.369 6.036a.723.723 0 1 1 0-1.445.723.723 0 0 1 0 1.445Zm0-1.204a.48.48 0 1 0 0 .962.48.48 0 0 0 0-.962Z"
                    ></path>
                    <path
                      fill="#fff"
                      d="M4.873 8.137A3.81 3.81 0 0 1 6.709 9.67L4.873 8.137Z"
                    ></path>
                    <path
                      fill="#231F20"
                      d="M6.603 9.629a.12.12 0 0 1-.1-.05 3.671 3.671 0 0 0-.235-.3.121.121 0 0 1 .183-.158c.09.103.173.21.25.322a.12.12 0 0 1-.1.19l.002-.004Zm-.613-.686a.12.12 0 0 1-.08-.03 3.76 3.76 0 0 0-.3-.238.12.12 0 1 1 .141-.197c.11.079.217.165.319.254a.12.12 0 0 1-.08.211Zm-.757-.523a.12.12 0 0 1-.057-.014 2.601 2.601 0 0 0-.342-.154.121.121 0 0 1 .076-.23c.13.047.258.104.38.17a.121.121 0 0 1-.057.228Z"
                    ></path>
                    <path
                      fill="#FBDC00"
                      d="M8.133 7.955c-.038.763-1.136 2.22-1.136 2.22s-1.093-1.418-1.136-2.22A1.194 1.194 0 0 1 6.997 6.66a1.161 1.161 0 0 1 1.136 1.295Z"
                    ></path>
                    <path
                      fill="#231F20"
                      d="M6.997 10.296a.122.122 0 0 1-.096-.047c-.046-.06-1.116-1.458-1.16-2.288a1.373 1.373 0 0 1 .37-1.029 1.218 1.218 0 0 1 1.782-.009 1.384 1.384 0 0 1 .36 1.038c-.04.791-1.114 2.226-1.16 2.287a.122.122 0 0 1-.096.05v-.002Zm0-3.515a.99.99 0 0 0-.71.317 1.134 1.134 0 0 0-.305.85c.033.618.75 1.658 1.014 2.022.264-.37.986-1.433 1.016-2.022a1.145 1.145 0 0 0-.294-.859.987.987 0 0 0-.721-.308Z"
                    ></path>
                    <path
                      fill="#fff"
                      d="M6.997 8.419a.602.602 0 1 0 0-1.205.602.602 0 0 0 0 1.205Z"
                    ></path>
                    <path
                      fill="#231F20"
                      d="M6.997 8.537a.722.722 0 1 1 0-1.445.722.722 0 0 1 0 1.445Zm0-1.203a.481.481 0 1 0 .481.48.482.482 0 0 0-.481-.477v-.003Z"
                    ></path>
                  </svg>