                  <svg
                    xmlns="http://www.w3.org/2000/svg"
                    fill="none"
                    viewBox="0 0 15 15"
                    width="60"
                    height="60"
                    role="img"
                  >
                    <path
                      fill="#000"
                      d="M1.2 12.476c.073-.117.182-.145.314-.145.76.004 1.518.002 2.277.002h.108c-.13-.1-.301-.19-.41-.328-.108-.138-.154-.325-.237-.512h-.91c-.236 0-.303-.065-.303-.297v-.664c0-.227.068-.296.291-.297h.837c.04 0 .08-.003.124-.005.003-.04.007-.072.007-.104 0-.504-.001-1.009.002-1.513 0-.08-.022-.115-.104-.132-.168-.034-.334-.08-.5-.123-.19-.048-.237-.108-.238-.3V7.59c0-.225.07-.296.293-.297h2.768c.234 0 .303.069.303.299v.324c.047.003.082.007.118.007.43 0 .862.001 1.292-.002.043 0 .105-.012.126-.042.236-.333.57-.406.945-.358.25.032.46.14.6.362.014.02.046.038.069.038.344.003.687.002 1.052.002v-.59c-.148-.069-.301-.143-.458-.209-.037-.016-.087-.008-.13 0-.315.052-.63.055-.94-.024-.39-.1-.704-.293-.8-.705-.22 0-.434.026-.639-.006a.987.987 0 0 1-.694-.444c-.042-.065-.085-.08-.16-.073-.47.043-.871-.094-1.142-.499-.29-.43-.216-1.01.167-1.384.085-.083.114-.151.084-.273-.12-.478.092-.935.548-1.223.585-.369 1.333-.314 1.783.138.25.25.368.557.355.912l-.004.11c0 .013.003.025.005.05a.584.584 0 0 1 .492.352c.393-.112.762-.074 1.1.15.344.23.508.557.494.974.066.02.13.033.19.056.341.132.513.461.442.836-.009.046-.015.103.004.14.183.347.185.346.148.703.463.187.425.595.412 1.004.047.002.086.005.125.005.262 0 .525.012.787-.003.321-.018.528.131.641.413.186.46.183.92-.043 1.368-.093.183-.24.308-.459.324.061.188.09.21.275.21.11 0 .222-.003.332 0 .146.005.227.077.23.218.005.274.005.55 0 .824-.003.145-.087.214-.243.215-.291.002-.582 0-.874 0h-.135c-.035.423-.249.694-.638.84h.127l2.08.001a.6.6 0 0 1 .181.021c.092.03.138.106.133.2-.007.1-.062.17-.163.19-.047.01-.098.008-.147.008-3.99 0-7.982 0-11.972.002-.136 0-.255-.014-.316-.156v-.123H1.2Zm4.63-2.252h6.1c-.064-.098-.122-.183-.175-.27-.11-.177-.025-.341.184-.35.106-.005.213-.005.32 0 .074.003.124-.022.157-.09.172-.36.172-.718.001-1.077-.034-.072-.087-.097-.167-.096-.357.004-.713.002-1.07.002-.262 0-.317-.056-.318-.317 0-.156.002-.312 0-.468-.003-.169-.08-.26-.213-.26-.131.002-.204.094-.207.265v.123c0 .144.003.288-.003.431-.005.142-.077.222-.21.223-.488.004-.976.003-1.464 0-.106 0-.184-.055-.202-.161-.019-.115-.09-.17-.187-.206a.628.628 0 0 0-.512.013.316.316 0 0 0-.147.15c-.071.179-.098.206-.296.207H5.83v1.881Zm2.002-6.092-.049.003c-.235.013-.322-.1-.252-.328.152-.495-.067-.949-.54-1.085a1.221 1.221 0 0 0-.425-.038c-.508.04-1.11.52-.773 1.15.058.107.019.204-.075.282-.082.068-.167.135-.235.215-.36.423-.152 1.017.395 1.11.152.026.316-.002.473-.023.176-.023.245.02.313.176a.65.65 0 0 0 .2.266c.29.202.598.194.902.02.086-.05.174-.08.266-.02.092.06.1.148.088.249-.036.297.073.458.375.556.317.102.64.1.959.024a.364.364 0 0 1 .351.08.633.633 0 0 0 .473.132c.146-.012.222-.11.186-.252a.435.435 0 0 0-.119-.206c-.105-.096-.132-.192-.081-.327.126-.338-.008-.532-.362-.503-.243.02-.35-.142-.272-.353.086-.233.011-.443-.165-.616-.25-.244-.626-.292-.981-.126-.191.09-.315.032-.355-.165-.046-.222-.06-.232-.298-.22h.001ZM2.885 7.971l.583.147c.217.054.25.096.25.324v1.809c0 .38-.022.404-.402.404h-.85v.41h10.277v-.41H5.712c-.25 0-.31-.06-.31-.312V7.725H2.886v.246Zm3.355 4.356c-.39-.142-.6-.42-.634-.828h-.622c-.03.412-.246.684-.628.828H6.24Zm4.624 0c-.392-.14-.603-.418-.638-.825h-.623c-.033.419-.251.685-.637.825h1.898Zm-2.312.001c-.18-.073-.348-.16-.446-.321-.093-.153-.152-.327-.232-.505h-.533c-.086.186-.134.37-.243.508-.108.136-.276.223-.4.319h1.854Zm.614-.829H8.35c.007.25.193.423.437.412a.393.393 0 0 0 .379-.412Zm1.494 0a.408.408 0 0 0 .426.413c.23-.002.427-.23.392-.413h-.818Zm-4.619 0c.01.253.19.421.43.412a.394.394 0 0 0 .385-.411h-.815Zm-2.307.002a.4.4 0 0 0 .415.411.394.394 0 0 0 .396-.412h-.81Z"
                    ></path>
                    <path
                      fill="#fff"
                      d="M5.83 10.224V8.343h1.59c.197 0 .224-.028.295-.207a.316.316 0 0 1 .147-.15.628.628 0 0 1 .513-.013c.096.036.168.092.186.206.018.107.097.161.203.162.488.002.976.003 1.463 0 .133-.001.205-.082.21-.224.007-.143.003-.287.003-.43v-.123c.004-.171.076-.263.208-.265.132-.001.21.09.212.26.003.155 0 .311 0 .467.001.261.057.317.318.317.357 0 .714.002 1.07-.002.08 0 .134.024.168.096.17.36.17.718-.002 1.077-.033.069-.082.093-.157.09a3.457 3.457 0 0 0-.32 0c-.209.01-.294.173-.184.35.054.087.111.172.176.27h-6.1Z"
                    ></path>
                    <path
                      fill="#FEDE00"
                      d="M7.832 4.132c.238-.012.252-.002.297.22.04.197.165.254.355.165.356-.166.732-.118.982.126.176.173.25.383.165.616-.078.21.028.372.272.353.353-.029.487.165.361.503-.05.135-.024.231.082.327.056.052.1.131.119.206.036.142-.04.24-.187.252a.626.626 0 0 1-.472-.133.364.364 0 0 0-.352-.079c-.32.076-.641.078-.958-.024-.302-.098-.412-.258-.375-.556.013-.101.003-.19-.089-.249-.091-.059-.179-.029-.265.02-.305.174-.612.182-.902-.02a.644.644 0 0 1-.2-.266c-.069-.156-.138-.2-.314-.176-.156.021-.32.05-.473.024-.546-.093-.753-.687-.394-1.11.068-.08.153-.148.235-.216.094-.078.133-.175.075-.283-.338-.628.265-1.109.773-1.149.14-.01.29 0 .424.038.473.136.693.59.54 1.085-.07.228.017.341.253.328l.049-.003v.001ZM2.885 7.97v-.245h2.517v2.618c0 .253.06.312.31.312h7.03v.41H2.468v-.41h.849c.38 0 .403-.023.403-.404V8.44c0-.227-.034-.269-.25-.323-.195-.048-.39-.098-.584-.147Z"
                    ></path>
                    <path
                      fill="#fff"
                      d="M9.166 11.5a.393.393 0 0 1-.379.411.406.406 0 0 1-.437-.411h.816Zm1.494 0h.818c.035.182-.162.41-.392.412a.408.408 0 0 1-.426-.413Zm-4.619 0h.815a.394.394 0 0 1-.385.412c-.24.008-.42-.16-.43-.412Zm-2.307 0h.811a.394.394 0 0 1-.396.412.399.399 0 0 1-.415-.411Z"
                    ></path>
                  </svg>