<svg width="87" height="87" viewBox="0 0 87 87" fill="none" xmlns="http://www.w3.org/2000/svg">
<path d="M6.21484 43.5038C6.21055 22.9244 22.9413 6.19983 43.5166 6.21485C64.1113 6.22988 80.8099 22.9501 80.7862 43.5317C80.7626 64.0832 64.0791 80.7626 43.5252 80.7862C22.9606 80.8099 6.21914 64.081 6.21484 43.5038ZM42.175 38.5886C41.194 38.4512 40.2388 38.3611 39.3007 38.1786C35.3616 37.4124 31.9936 35.7446 29.9607 32.07C28.3894 29.2325 27.8163 26.1568 27.8978 22.9437C27.9193 22.1323 28.3959 21.6644 29.2373 21.6623C30.1711 21.6623 31.1156 21.6902 32.0408 21.8125C36.2246 22.362 39.9146 23.8258 42.3489 27.5391C42.3875 27.597 42.4584 27.6314 42.5743 27.7279C42.6322 27.5069 42.6773 27.3352 42.7202 27.1634C43.3621 24.5792 44.3538 22.1645 46.3609 20.3208C49.6195 17.3288 53.6208 16.4981 57.8818 16.5239C58.6374 16.5282 59.1204 17.0648 59.0861 17.8503C59.026 19.2369 58.9916 20.6406 58.7426 22.0014C57.8968 26.6247 55.6687 30.3014 51.0878 32.0293C49.1107 32.7741 46.9813 33.111 44.8561 33.6498V47.584C49.8878 44.3988 55.2801 42.5336 61.0889 41.924C66.9298 41.3102 72.6141 42.0786 78.2747 44.1734C78.0171 31.5614 73.0906 21.4262 62.5786 14.6115C50.4846 6.77076 37.7766 6.5411 25.4378 13.974C14.2797 20.6964 9.02477 31.0784 8.7178 44.1412C20.477 40.0138 31.5686 41.1857 42.175 47.5497V38.5864V38.5886ZM51.0234 77.3671C51.3303 77.3048 51.5944 77.2726 51.8434 77.1975C53.0712 76.8283 54.3055 76.4742 55.5184 76.0621C56.6411 75.6822 56.6539 75.65 56.4865 74.4952C55.1363 65.1735 50.8473 57.496 43.4351 51.6707C35.967 45.8025 27.432 43.4845 18.0019 44.4975C15.0911 44.8109 12.2683 45.5428 9.5464 46.6224C9.31242 46.7147 8.99901 47.0303 9.0076 47.2299C9.0355 47.9382 9.18577 48.6422 9.29095 49.3655C18.8327 48.1249 27.6059 50.0008 35.5398 55.3195C43.4973 60.6533 48.5698 68.084 51.0234 77.3628V77.3671ZM48.4539 78.0088C43.8987 59.2946 25.5237 49.3312 9.78896 52.0292C10.2183 53.332 10.6541 54.6134 11.0598 55.9034C11.2014 56.352 11.4547 56.4979 11.9227 56.5537C17.1755 57.174 22.0912 58.8181 26.627 61.5483C33.0626 65.4225 37.9161 70.7498 41.2047 77.5087C41.3486 77.8028 41.7521 78.1655 42.0333 78.1634C44.1413 78.1612 46.2493 78.0754 48.4539 78.011V78.0088ZM78.015 46.9208C73.741 44.9375 66.4447 43.5145 59.1462 44.7873C54.3055 45.6308 49.832 47.3715 45.9702 49.9536C47.7884 51.7587 49.5658 53.5252 51.3926 55.3389C59.2127 50.1382 68.0761 48.112 77.7166 49.372C77.8239 48.6293 77.9227 47.9704 78.0128 47.3093C78.03 47.1805 78.015 47.0453 78.015 46.9208ZM12.601 59.3054C15.6385 65.1285 19.9081 69.7367 25.47 73.1409C29.4262 75.562 33.6916 77.131 38.3648 77.8049C35.162 69.2152 21.2648 59.2538 12.601 59.3054ZM56.42 64.1926C56.4608 64.1733 56.538 64.154 56.596 64.1089C62.1278 59.8484 68.3509 57.2942 75.293 56.5022C75.4605 56.4829 75.7138 56.3906 75.7567 56.2704C76.2633 54.8516 76.7377 53.4222 77.2529 51.9004C68.2113 50.7843 60.0907 52.658 52.7192 57.5282C53.9857 59.8098 55.1964 61.9948 56.4178 64.1948L56.42 64.1926ZM59.1311 74.4931C65.835 70.9988 70.8946 65.9806 74.4172 59.271C74.1832 59.271 74.0759 59.256 73.9729 59.271C67.9623 60.2519 62.5636 62.6194 57.8002 66.4249C57.4418 66.7125 57.3194 66.9507 57.4783 67.4251C57.8281 68.4618 58.1265 69.5199 58.3712 70.5867C58.661 71.8531 58.8714 73.1387 59.1311 74.4909V74.4931ZM56.4286 19.0759C53.1271 19.4043 49.9608 20.0632 47.6381 22.7033C45.6225 24.9935 45.0214 27.8052 44.8132 30.7608C51.5643 30.9561 57.1756 25.3025 56.4286 19.0759ZM30.4502 24.2615C30.7679 27.6464 31.4333 30.8166 34.0758 33.1346C36.3663 35.1437 39.1805 35.7489 42.1514 35.9485C41.6856 28.4878 38.0728 24.6865 30.4502 24.2615Z" fill="black"/>
<path d="M51.0218 77.362C48.5682 68.0832 43.4958 60.6525 35.5382 55.3188C27.6043 50.0001 18.8311 48.1241 9.28939 49.3647C9.18205 48.6414 9.03179 47.9374 9.00603 47.2291C8.99745 47.0273 9.31085 46.714 9.54483 46.6217C12.2689 45.5421 15.0895 44.808 18.0004 44.4968C27.4305 43.4815 35.9654 45.7996 43.4335 51.6699C50.8458 57.4952 55.1326 65.1728 56.485 74.4945C56.6524 75.6492 56.6417 75.6814 55.5168 76.0613C54.304 76.4734 53.0697 76.8276 51.8418 77.1967C51.5907 77.2719 51.3288 77.3041 51.0218 77.3663V77.362Z" fill="#FEDE00"/>
<path d="M78.0213 46.918C78.0213 47.0424 78.0363 47.1777 78.0191 47.3065C77.929 47.9675 77.8302 48.6265 77.7229 49.3691C68.0803 48.1092 59.2169 50.1332 51.3989 55.336C49.5722 53.5223 47.7947 51.7559 45.9766 49.9508C49.8383 47.3687 54.3119 45.6301 59.1525 44.7845C66.451 43.5117 73.7495 44.9347 78.0213 46.918Z" fill="#FEDE00"/>
<path d="M12.5996 59.3029C21.2634 59.2514 35.1606 69.2127 38.3633 77.8025C33.6901 77.1285 29.4248 75.5595 25.4686 73.1384C19.9067 69.7343 15.6371 65.126 12.5996 59.3029Z" fill="#FEDE00"/>
<path d="M59.1318 74.4951C58.872 73.1429 58.6617 71.8572 58.3719 70.5909C58.1272 69.5241 57.8288 68.466 57.4789 67.4293C57.32 66.9549 57.4403 66.7167 57.8009 66.4291C62.5664 62.6236 67.963 60.2561 73.9735 59.2752C74.0765 59.258 74.1817 59.2752 74.4179 59.2752C70.8931 65.9848 65.8357 71.003 59.1318 74.4973V74.4951Z" fill="#FEDE00"/>
<path d="M56.4259 19.0801C57.1729 25.3067 51.5617 30.9602 44.8105 30.7649C45.0188 27.8094 45.6198 24.9976 47.6355 22.7074C49.9581 20.0674 53.1244 19.4085 56.4259 19.0801Z" fill="#FEDE00"/>
<path d="M30.4531 24.2637C38.0779 24.6887 41.6885 28.4899 42.1543 35.9507C39.1834 35.7511 36.3692 35.1458 34.0788 33.1368C31.4363 30.8187 30.7708 27.6485 30.4531 24.2637Z" fill="#FEDE00"/>
</svg>
