<svg width="87" height="87" viewBox="0 0 87 87" fill="none" xmlns="http://www.w3.org/2000/svg">
<path d="M41.8759 80.7863C41.3699 80.6151 40.8403 80.4925 40.3619 80.2649C38.1234 79.1988 36.9146 77.4207 36.8772 74.9636C36.8299 71.7615 36.8654 68.5573 36.8654 65.3532C36.8654 65.0906 36.8654 64.828 36.8654 64.4778C36.5267 64.4778 36.2413 64.4778 35.9558 64.4778C28.1201 64.4778 20.2864 64.4895 12.4507 64.472C8.82427 64.4642 6.06013 61.5966 6.22157 58.0501C6.27276 56.9373 6.6291 55.9121 7.2532 54.9822C9.43065 51.7256 11.6278 48.4825 13.7856 45.2123C17.4455 39.6659 21.0818 34.1059 24.7201 28.5459C24.8854 28.2929 25.0607 27.9817 25.0626 27.6977C25.0843 23.622 25.0784 19.5444 25.0784 15.4512C24.8146 15.3384 24.5665 15.2392 24.3243 15.1302C22.3398 14.2431 21.2098 12.1148 21.6252 10.0546C22.0681 7.84851 23.8814 6.2591 26.1061 6.23965C30.1342 6.20658 34.1622 6.20658 38.1903 6.23965C40.417 6.2591 42.2263 7.84657 42.6732 10.0507C43.0906 12.1109 41.9566 14.247 39.976 15.1263C39.7535 15.2256 39.5232 15.3092 39.2554 15.4181C39.2436 15.6244 39.2239 15.8345 39.2239 16.0446C39.222 19.8304 39.2121 23.6162 39.2377 27.4019C39.2397 27.7832 39.3775 28.2151 39.5862 28.5381C41.9448 32.1721 44.3368 35.7848 46.6934 39.4188C46.9789 39.8604 47.2722 40.0219 47.8038 40.0219C56.0313 40.0044 64.2607 40.0083 72.4881 40.0083C72.6594 40.0083 72.8327 40.0083 73.004 40.0083C74.4766 40.0161 74.9393 40.767 74.2758 42.0879C73.6989 43.2396 73.0906 44.3758 72.5413 45.5411C72.3621 45.9204 72.246 46.3659 72.246 46.7822C72.2302 55.9802 72.2342 65.1782 72.2342 74.3781C72.2342 77.8137 70.6985 79.7922 67.3398 80.6987C67.2965 80.7104 67.2631 80.7551 67.2237 80.7843H41.8759V80.7863ZM39.2239 47.0313C39.2239 47.327 39.2239 47.5662 39.2239 47.8036C39.2239 56.7292 39.2239 65.6567 39.2239 74.5823C39.2239 77.0472 40.6533 78.4537 43.1556 78.4537C50.7412 78.4537 58.3249 78.4537 65.9105 78.4537C68.464 78.4537 69.8736 77.0627 69.8756 74.5395C69.8756 65.6373 69.8756 56.735 69.8756 47.8328V47.0293H39.222L39.2239 47.0313ZM27.433 15.5796V16.4278C27.433 20.237 27.4507 24.048 27.4133 27.8572C27.4074 28.3785 27.2361 28.968 26.9507 29.4057C23.6786 34.4483 20.3829 39.4733 17.0694 44.4886C14.4687 48.4261 11.8168 52.3325 9.23378 56.2817C8.87743 56.8265 8.64118 57.5307 8.5959 58.1785C8.43643 60.4216 10.2024 62.1375 12.6004 62.1394C20.4833 62.1472 28.3662 62.1433 36.2491 62.1394C36.4381 62.1394 36.6252 62.1141 36.8083 62.1005V59.8127C36.4618 59.8127 36.1684 59.8127 35.877 59.8127C29.0494 59.8127 22.2237 59.8068 15.396 59.8185C14.1065 59.8205 13.0847 59.3711 12.4665 58.2349C11.8601 57.1202 12.0452 56.0483 12.7441 55.0133C17.2545 48.3386 21.761 41.6619 26.2557 34.9774C26.6337 34.4152 27.0964 34.1701 27.7835 34.174C30.6815 34.1973 33.5795 34.1973 36.4775 34.174C37.1941 34.1681 37.6765 34.4152 38.0624 35.0066C39.0586 36.5357 40.0902 38.0415 41.1218 39.5472C41.2478 39.7301 41.4565 39.9733 41.6396 39.9849C42.4783 40.0316 43.319 40.0063 44.262 40.0063C44.0257 39.6367 43.8741 39.3916 43.7166 39.1484C41.5707 35.8704 39.411 32.6021 37.2886 29.3085C37.0425 28.9252 36.885 28.4155 36.8811 27.9622C36.8496 24.1045 36.8634 20.2447 36.8634 16.387C36.8634 16.1282 36.8634 15.8675 36.8634 15.5757H27.431L27.433 15.5796ZM38.5861 40.0122C37.8517 38.9227 37.1863 37.9714 36.5681 36.9929C36.3279 36.6116 36.0483 36.5026 35.6113 36.5085C33.3275 36.5299 31.0418 36.5376 28.758 36.5046C28.2205 36.4968 27.9331 36.6894 27.6456 37.1154C24.285 42.1307 20.9026 47.1324 17.5262 52.138C16.5871 53.5309 15.648 54.9238 14.705 56.3129C14.4667 56.665 14.2974 57.0424 14.7266 57.3245C14.9452 57.4684 15.2818 57.4801 15.5653 57.4801C22.4186 57.4879 29.2699 57.486 36.1231 57.484C36.3574 57.484 36.5937 57.4626 36.8614 57.4509C36.8614 53.6943 36.8654 50.0077 36.8516 46.3212C36.8516 46.0955 36.7256 45.8582 36.6212 45.6461C35.9814 44.3641 35.314 43.0937 34.6899 41.8039C34.2272 40.8448 34.7509 40.0394 35.8318 40.0141C36.6901 39.9947 37.5505 40.0102 38.5861 40.0102V40.0122ZM37.6233 42.3797C37.9127 42.9595 38.2081 43.4614 38.4167 43.9964C38.6235 44.5275 38.9326 44.6909 39.5173 44.689C44.894 44.6617 50.2726 44.6734 55.6493 44.6734C60.3153 44.6734 64.9793 44.6753 69.6453 44.6676C69.8953 44.6676 70.2831 44.6501 70.3737 44.5022C70.7812 43.8369 71.1061 43.1229 71.4801 42.3817H37.6253L37.6233 42.3797ZM32.1482 13.2179C34.0146 13.2179 35.881 13.2198 37.7474 13.2179C39.3165 13.214 40.3875 12.2763 40.3973 10.9048C40.4072 9.52936 39.3322 8.56248 37.7789 8.56054C34.0225 8.55665 30.2661 8.55665 26.5077 8.56054C24.9524 8.56054 23.8853 9.52741 23.8971 10.9087C23.907 12.2549 24.9721 13.214 26.4762 13.2179C28.3662 13.2237 30.2582 13.2179 32.1482 13.2179Z" fill="black"/>
<path d="M49.778 23.718H47.4883V25.9766H45.1219V23.7141H42.8086V21.3757H45.0983V19.0918H47.4647V21.3543H49.776V23.718H49.778Z" fill="black"/>
<path d="M62.8359 29.5656V27.2272H65.1256V24.918H67.4921V27.1571H69.829V29.4955H67.5629V31.8048H65.1965V29.5656H62.8359Z" fill="black"/>
<path d="M47.4162 30.6805H45.1758V28.4141H47.4162V30.6805Z" fill="black"/>
<path d="M65.1895 36.458V34.2285H67.4831V36.458H65.1895Z" fill="black"/>
<path d="M38.5923 40.0156C37.5567 40.0156 36.6964 40.0001 35.838 40.0195C34.7571 40.0429 34.2334 40.8502 34.6961 41.8093C35.3202 43.0991 35.9876 44.3676 36.6274 45.6515C36.7338 45.8636 36.8578 46.1009 36.8578 46.3266C36.8716 50.0132 36.8676 53.6997 36.8676 57.4564C36.5999 57.468 36.3656 57.4894 36.1293 57.4894C29.2761 57.4894 22.4248 57.4933 15.5715 57.4855C15.288 57.4855 14.9514 57.4739 14.7328 57.3299C14.3036 57.0478 14.473 56.6685 14.7112 56.3183C15.6542 54.9292 16.5933 53.5363 17.5324 52.1434C20.9088 47.1378 24.2892 42.1362 27.6519 37.1209C27.9393 36.6929 28.2248 36.5022 28.7642 36.51C31.048 36.5431 33.3317 36.5353 35.6175 36.5139C36.0545 36.51 36.3341 36.617 36.5743 36.9983C37.1925 37.9788 37.8579 38.9282 38.5923 40.0176V40.0156Z" fill="#FEDE00"/>
<path d="M68.6644 56.3652V58.6083H60.5039V56.3652H68.6644Z" fill="black"/>
<path d="M60.4805 67.915V65.6758H68.641V67.915H60.4805Z" fill="black"/>
<path d="M61.6328 53.9404V51.7168H67.4564V53.9404H61.6328Z" fill="black"/>
<path d="M61.6816 61.0156H67.4816V63.2567H61.6816V61.0156Z" fill="black"/>
<path d="M61.6816 70.3242H67.4698V72.5906H61.6816V70.3242Z" fill="black"/>
<path d="M39.2285 47.0351V47.8075C39.2285 56.7331 39.2285 65.6606 39.2285 74.5862C39.2285 77.0511 40.6578 78.4576 43.1601 78.4576C50.7458 78.4576 58.3295 78.4576 65.9151 78.4576C68.4686 78.4576 69.8782 77.0666 69.8802 74.5434C69.8802 65.6412 69.8802 56.7389 69.8802 47.8367V47.0332H39.2285V47.0351ZM61.6448 51.7256H67.4685V53.9492H61.6448V51.7256ZM67.4763 72.5961H61.6882V70.3296H67.4763V72.5961ZM68.6418 67.9231H60.4813V65.684H68.6418V67.9231ZM61.6823 63.2561V61.015H67.4822V63.2561H61.6823ZM68.6674 58.6162H60.5069V56.3732H68.6674V58.6162Z" fill="#FEDE00"/>
</svg>
