<svg width="87" height="87" viewBox="0 0 87 87" fill="none" xmlns="http://www.w3.org/2000/svg">
<path d="M69.5344 56.0606H62.6852C62.6852 57.6678 62.6852 59.2583 62.6852 60.8508C62.6852 62.4643 62.4541 62.6913 60.8132 62.6913C59.2459 62.6913 57.6786 62.6913 56.0588 62.6913V69.4921C56.3424 69.5089 56.6176 69.5404 56.8928 69.5425C58.8846 69.5467 60.8784 69.5404 62.8701 69.5467C64.0235 69.5509 64.3618 69.8976 64.3702 71.0573C64.3786 72.1582 64.3849 73.2591 64.366 74.3601C64.3576 74.7866 64.4626 75.0534 64.8639 75.3076C66.0321 76.0471 66.4964 77.3855 66.1203 78.6649C65.7631 79.8814 64.5803 80.768 63.2966 80.7827C61.9793 80.7974 60.7859 79.9213 60.3994 78.6586C60.0149 77.4023 60.4897 76.0618 61.6641 75.3034C62.0486 75.0555 62.1978 74.8055 62.181 74.3622C62.1495 73.5302 62.1726 72.6961 62.1726 71.7906C61.8133 71.7738 61.5339 71.7486 61.2566 71.7486C59.2648 71.7443 57.271 71.7549 55.2793 71.7422C54.1574 71.7359 53.817 71.3956 53.8107 70.2821C53.8002 68.0529 53.8065 65.8259 53.8065 63.5968C53.8065 63.3152 53.8065 63.0337 53.8065 62.7291H48.4259C48.4112 62.9938 48.3902 63.2207 48.3902 63.4497C48.3881 67.0676 48.3965 70.6855 48.3797 74.3033C48.3776 74.7676 48.4889 75.045 48.9091 75.3118C50.0773 76.0513 50.5416 77.4149 50.1445 78.6691C49.7453 79.9276 48.6171 80.7743 47.325 80.7827C46.0434 80.7932 44.848 79.9339 44.4551 78.7259C44.037 77.4317 44.5244 76.1102 45.6842 75.2761C45.9027 75.1185 46.1611 74.8244 46.1632 74.5933C46.1926 70.6623 46.1842 66.7335 46.1842 62.7459H40.8456C40.833 62.9833 40.8078 63.2354 40.8078 63.4854C40.8057 67.0781 40.812 70.6686 40.7973 74.2613C40.7973 74.7403 40.8855 75.0513 41.3414 75.337C42.497 76.0618 42.9424 77.4401 42.5369 78.7091C42.1566 79.9003 41.0074 80.7554 39.7573 80.7785C38.4337 80.8037 37.2614 79.9549 36.8517 78.6733C36.4588 77.4485 36.8916 76.0871 38.0156 75.3601C38.4799 75.0597 38.6186 74.7508 38.6165 74.2277C38.5955 70.6623 38.606 67.097 38.606 63.5295V62.7249H33.1876C33.1876 63.0463 33.1876 63.3552 33.1876 63.6619C33.1876 65.8637 33.1939 68.0676 33.1834 70.2695C33.1792 71.3851 32.8346 71.7296 31.7211 71.7359C29.7294 71.7485 27.7355 71.738 25.7438 71.7422C25.4644 71.7422 25.1829 71.7654 24.8236 71.7822C24.8236 72.7906 24.7858 73.7298 24.8509 74.6647C24.8656 74.8958 25.1766 75.1479 25.4056 75.316C26.5548 76.1522 27.017 77.5956 26.5107 78.8687C25.9959 80.1671 24.645 80.9613 23.3067 80.7533C21.9306 80.539 20.8906 79.4528 20.7729 78.0389C20.6763 76.8707 21.1322 75.9211 22.128 75.3034C22.5272 75.0555 22.6344 74.7866 22.626 74.3559C22.605 73.2297 22.6092 72.1015 22.6218 70.9733C22.6323 69.9102 22.9873 69.5467 24.0378 69.5404C26.0296 69.5299 28.0234 69.5362 30.0151 69.5362C30.2987 69.5362 30.5824 69.5362 30.9248 69.5362V62.6828H29.4836C28.3028 62.6828 27.1242 62.6828 25.9434 62.6828C24.5988 62.6828 24.3047 62.3782 24.3026 61.0042C24.3026 59.3822 24.3026 57.7603 24.3026 56.0732H17.4555C17.4555 57.1111 17.4555 58.1279 17.4555 59.1427C17.4555 60.376 17.4618 61.6072 17.4534 62.8404C17.445 64.0296 17.0983 64.3657 15.8861 64.3741C14.7852 64.3804 13.6821 64.3426 12.5833 64.3972C12.2871 64.4119 11.9068 64.6178 11.7303 64.8574C10.8984 66.0024 9.56634 66.5129 8.28054 66.1053C7.06828 65.7272 6.21109 64.538 6.21529 63.2501C6.21949 61.958 7.06828 60.8088 8.30996 60.4117C9.58525 60.0041 10.9173 60.5273 11.7471 61.6849C11.9215 61.9265 12.2976 62.1345 12.5959 62.1576C13.4489 62.2206 14.3103 62.1807 15.2537 62.1807C15.2537 61.166 15.2537 60.252 15.2537 59.3402C15.2537 58.0292 15.2495 56.7182 15.2537 55.4072C15.2579 54.1151 15.5499 53.8167 16.821 53.8146C18.9976 53.8104 21.1721 53.8146 23.3487 53.8146C23.6323 53.8146 23.9181 53.8146 24.2521 53.8146V48.4362C24.0483 48.4215 23.8235 48.392 23.6008 48.392C19.9577 48.3899 16.3126 48.3983 12.6695 48.3794C12.1947 48.3773 11.932 48.516 11.6736 48.9278C10.9446 50.0833 9.56214 50.5497 8.31206 50.1443C7.05358 49.7346 6.21949 48.6084 6.21529 47.3079C6.21109 45.9843 7.0998 44.7952 8.36248 44.4338C9.65878 44.064 10.9341 44.562 11.7282 45.6986C11.8795 45.915 12.182 46.1608 12.4153 46.1629C16.2958 46.1881 20.1741 46.1776 24.0546 46.1713C24.103 46.1713 24.1513 46.1461 24.2521 46.1167V40.8559C24.0483 40.8411 23.8466 40.8117 23.6471 40.8117C19.9767 40.8096 16.3063 40.8138 12.6359 40.8033C12.2178 40.8033 11.9425 40.8748 11.6904 41.2887C10.9677 42.4694 9.63567 42.9316 8.34567 42.5534C7.1145 42.1921 6.2363 41.0302 6.21529 39.7423C6.19638 38.4145 7.04727 37.2506 8.33307 36.8472C9.58945 36.4522 10.9005 36.9459 11.7114 38.0763C11.8711 38.299 12.1526 38.5847 12.3816 38.5868C16.3126 38.6183 20.2435 38.6099 24.2374 38.6099V33.1852C23.8824 33.1852 23.521 33.1852 23.1617 33.1852C21.0124 33.1852 18.8631 33.1915 16.7117 33.1831C15.5919 33.1789 15.26 32.8449 15.2537 31.7187C15.2432 29.727 15.2537 27.7332 15.2495 25.7415C15.2495 25.462 15.2264 25.1826 15.2095 24.8212C14.2032 24.8212 13.264 24.796 12.327 24.8401C12.1295 24.8486 11.89 25.0755 11.7598 25.2645C10.9299 26.4621 9.62096 26.9873 8.34988 26.5987C7.104 26.2163 6.2384 25.0776 6.21529 23.7897C6.19218 22.466 7.07248 21.2475 8.31626 20.8756C9.62096 20.4848 10.8879 20.987 11.7492 22.1635C11.9131 22.3883 12.2661 22.5816 12.5413 22.5942C13.5603 22.6446 14.5856 22.6131 15.6066 22.6152C17.1929 22.6152 17.4513 22.8694 17.4513 24.4221C17.4513 26.2835 17.4513 28.145 17.4513 30.0064C17.4513 30.2901 17.4513 30.5737 17.4513 30.9204H24.3005C24.3005 30.5611 24.3005 30.1808 24.3005 29.8026C24.3005 28.4664 24.2963 27.1281 24.3005 25.7919C24.3047 24.6595 24.6618 24.3107 25.8174 24.3086C27.2586 24.3044 28.702 24.3086 30.1433 24.3086C30.3975 24.3086 30.6517 24.3086 30.9353 24.3086V17.4531C30.6139 17.4531 30.3344 17.4531 30.055 17.4531C28.0633 17.4531 26.0695 17.4594 24.0778 17.451C22.9726 17.4447 22.626 17.0918 22.6155 15.9825C22.6071 14.8542 22.6449 13.726 22.5924 12.602C22.5777 12.3036 22.3802 11.9192 22.1407 11.7448C20.9809 10.8981 20.4725 9.5997 20.8717 8.3034C21.2498 7.08693 22.4411 6.21503 23.7269 6.21503C25.0526 6.21503 26.2291 7.09324 26.601 8.36643C26.9687 9.62701 26.4476 10.9275 25.3236 11.7385C25.0799 11.915 24.8656 12.2868 24.8446 12.5852C24.7816 13.4382 24.8215 14.3017 24.8215 15.2513C25.5673 15.2513 26.2165 15.2513 26.8657 15.2513C28.4121 15.2513 29.9584 15.2492 31.5068 15.2513C32.8976 15.2555 33.1834 15.5349 33.1855 16.8985C33.1897 19.0478 33.1855 21.1992 33.1855 23.3485C33.1855 23.6321 33.1855 23.9178 33.1855 24.254H38.6039C38.6039 24.0187 38.6039 23.7687 38.6039 23.5186C38.6039 19.926 38.5976 16.3354 38.6123 12.7428C38.6123 12.2637 38.524 11.9507 38.066 11.665C36.9042 10.9422 36.4462 9.55348 36.8538 8.3013C37.2593 7.05122 38.3938 6.21503 39.6922 6.21503C41.02 6.21503 42.1965 7.09954 42.56 8.37063C42.9277 9.66483 42.4276 10.9338 41.2868 11.7322C41.0704 11.8835 40.8288 12.1881 40.8267 12.4234C40.8015 16.3039 40.8141 20.1844 40.8183 24.0649C40.8183 24.1132 40.8477 24.1615 40.8771 24.2561H46.1401C46.1548 24.046 46.18 23.8464 46.1821 23.6447C46.1842 19.9743 46.1779 16.3039 46.1905 12.6335C46.1905 12.207 46.0938 11.9423 45.6968 11.6881C44.495 10.9254 44.0349 9.55558 44.4572 8.26348C44.8522 7.05332 46.0476 6.20032 47.3313 6.21503C48.6276 6.22974 49.7474 7.07433 50.1445 8.33911C50.5458 9.62071 50.0311 10.9296 48.844 11.7553C48.6423 11.8961 48.407 12.1734 48.407 12.3877C48.3797 16.3186 48.3881 20.2495 48.3881 24.2414H53.8044C53.8044 23.5859 53.8044 22.9367 53.8044 22.2854C53.8044 20.4764 53.8002 18.6675 53.8044 16.8586C53.8086 15.5391 54.1006 15.2534 55.4411 15.2492C57.4328 15.245 59.4266 15.2282 61.4183 15.2597C61.9961 15.2681 62.244 15.1105 62.1747 14.5097C62.1327 14.1483 62.1411 13.7743 62.1747 13.4109C62.2482 12.5684 62.0948 11.9591 61.2986 11.3771C59.9224 10.3729 59.9497 8.26558 61.1746 7.07013C62.431 5.84316 64.4668 5.95451 65.5656 7.31174C66.6476 8.64586 66.406 10.6523 64.9753 11.604C64.4878 11.9276 64.3387 12.2553 64.3597 12.8058C64.3996 13.9046 64.3849 15.0076 64.366 16.1085C64.3492 17.0623 63.9731 17.4405 63.0151 17.4489C60.996 17.4636 58.977 17.4531 56.9601 17.4552C56.6764 17.4552 56.3949 17.4552 56.0588 17.4552V24.3086C56.937 24.3086 57.8194 24.3086 58.7018 24.3086C59.5926 24.3086 60.4855 24.2981 61.3763 24.3107C62.2734 24.3233 62.6747 24.7162 62.6831 25.6091C62.6978 27.1029 62.6873 28.5988 62.6873 30.0926C62.6873 30.351 62.6873 30.6094 62.6873 30.9246H69.5365C69.5365 29.4749 69.5365 28.063 69.5365 26.6533C69.5365 25.7625 69.5239 24.8696 69.5407 23.9788C69.5596 23.0207 69.9294 22.6404 70.8811 22.6215C72.0345 22.6005 73.188 22.6047 74.3414 22.6215C74.7595 22.6278 75.0389 22.5501 75.2973 22.1425C76.0537 20.9449 77.4403 20.4764 78.7219 20.8882C79.93 21.279 80.7872 22.4745 80.7788 23.7602C80.7704 25.046 79.9027 26.2058 78.6694 26.5882C77.4151 26.9768 76.0558 26.5083 75.31 25.3444C75.0431 24.9284 74.7679 24.7897 74.2994 24.8086C73.4926 24.8422 72.6837 24.817 71.795 24.817C71.774 25.1574 71.7425 25.4347 71.7425 25.7099C71.7383 27.7017 71.7467 29.6955 71.7383 31.6872C71.7341 32.8617 71.4127 33.1768 70.2298 33.181C68.028 33.1873 65.8262 33.1831 63.6243 33.1831C63.3407 33.1831 63.0592 33.1831 62.7335 33.1831V38.5721C62.9899 38.5847 63.242 38.6078 63.4941 38.6078C67.0847 38.6099 70.6773 38.5994 74.2679 38.6204C74.7658 38.6225 75.0515 38.4881 75.3331 38.0511C76.0768 36.8955 77.4571 36.4459 78.7051 36.8598C79.9552 37.2737 80.7851 38.4145 80.7788 39.7108C80.7725 41.0008 79.909 42.169 78.682 42.5471C77.4067 42.94 76.1062 42.4526 75.2889 41.3433C75.1083 41.0975 74.7469 40.8369 74.4675 40.8327C70.692 40.7991 66.9166 40.8096 63.1432 40.8117C63.0172 40.8117 62.8932 40.8306 62.7314 40.8433V46.1818C62.9983 46.1818 63.2273 46.1818 63.4563 46.1818C67.0741 46.1818 70.692 46.1755 74.3099 46.1902C74.7679 46.1902 75.0515 46.0978 75.3205 45.6713C76.0579 44.5052 77.4025 44.0535 78.682 44.4443C79.9069 44.8204 80.7746 45.9948 80.7809 47.2806C80.7851 48.6063 79.9216 49.7598 78.6295 50.1527C77.4046 50.5266 76.0579 50.0686 75.3331 48.9362C75.0515 48.495 74.7574 48.3689 74.2637 48.3731C70.6731 48.392 67.0804 48.3836 63.4899 48.3836H62.744V53.7663C63.0004 53.7789 63.2756 53.8062 63.5508 53.8062C65.7799 53.8104 68.007 53.8041 70.2361 53.8104C71.4169 53.8146 71.7341 54.1298 71.7404 55.3084C71.7488 57.275 71.7425 59.2415 71.7425 61.208C71.7425 61.4916 71.7425 61.7752 71.7425 62.1681C72.8056 62.1681 73.7952 62.1996 74.7763 62.1408C74.9759 62.1282 75.1776 61.7878 75.3373 61.5693C76.0999 60.521 77.3815 60.0461 78.6001 60.3802C79.7955 60.7079 80.7074 61.8362 80.7788 63.0778C80.8523 64.3447 80.1233 65.5024 78.9341 66.0087C77.6651 66.5486 76.1629 66.1516 75.3877 64.9708C75.0641 64.4792 74.7217 64.3405 74.1775 64.3678C73.3413 64.4078 72.501 64.3783 71.6606 64.3783C69.673 64.3783 69.5386 64.2397 69.5386 62.2185C69.5386 60.4621 69.5386 58.7057 69.5386 56.9493C69.5386 56.6678 69.5386 56.3841 69.5386 56.0564L69.5344 56.0606ZM26.5611 26.544V60.4264H60.4435V26.544H26.5611ZM24.5988 9.3917C24.6051 9.27615 24.6114 9.15849 24.6177 9.04294C24.3173 8.83704 24.0084 8.45887 23.7206 8.47568C23.4538 8.49038 22.9726 8.9673 23.0084 9.16269C23.0651 9.46944 23.4433 9.86022 23.75 9.93165C23.979 9.98417 24.311 9.58919 24.5988 9.3938V9.3917ZM40.8204 9.13958C40.2657 8.80763 39.9338 8.45257 39.6313 8.47778C39.377 8.49879 39.0094 8.93579 38.961 9.23203C38.8812 9.71525 39.2867 10.0451 39.751 9.94846C40.0598 9.88543 40.312 9.53877 40.8204 9.13748V9.13958ZM47.1233 10.1018C47.2368 10.0997 47.3481 10.0955 47.4616 10.0934C47.6612 9.80769 47.9784 9.54087 48.033 9.22993C48.1171 8.7467 47.7536 8.37483 47.2893 8.46517C46.9952 8.5219 46.5771 8.91688 46.5624 9.1774C46.5455 9.47364 46.9195 9.79299 47.1212 10.1018H47.1233ZM63.0466 10.0934C63.1579 10.0934 63.2714 10.0934 63.3827 10.0955C63.5991 9.8182 64.0172 9.51146 63.9815 9.26984C63.9374 8.961 63.5277 8.70678 63.2756 8.42735C63.0172 8.66687 62.5739 8.88747 62.5465 9.14799C62.5171 9.44212 62.8617 9.77618 63.0445 10.0934H63.0466ZM9.40036 22.8421H9.06841C8.85411 23.1195 8.51795 23.3737 8.45703 23.6846C8.36668 24.1531 8.70074 24.5481 9.18396 24.4557C9.4802 24.401 9.9109 24.0334 9.92981 23.7813C9.95082 23.4829 9.59365 23.1573 9.40036 22.8421ZM78.6799 23.8758C78.6799 23.7623 78.6799 23.6468 78.6799 23.5333C78.3648 23.3422 78.0349 22.9808 77.7387 23.0081C77.4761 23.0312 77.0937 23.4577 77.0454 23.7497C76.9697 24.2183 77.3521 24.567 77.8332 24.4662C78.1442 24.401 78.4005 24.0817 78.6799 23.8758ZM9.0474 40.5995C9.15665 40.5953 9.2659 40.5911 9.37725 40.5869C9.57894 40.297 9.9046 40.026 9.95082 39.7129C10.0222 39.2381 9.66298 38.8599 9.19026 38.965C8.89823 39.0301 8.48434 39.423 8.47593 39.6814C8.46753 39.9818 8.8394 40.2928 9.0474 40.6016V40.5995ZM77.7345 40.8285C78.1274 40.3159 78.4698 40.0596 78.5307 39.7486C78.6211 39.2822 78.287 38.883 77.8038 38.9671C77.5076 39.0196 77.0748 39.3936 77.0559 39.6457C77.0349 39.9482 77.3941 40.276 77.7324 40.8264L77.7345 40.8285ZM9.01799 48.1903C9.13354 48.1882 9.24699 48.184 9.36254 48.1819C9.56844 47.8983 9.97603 47.5769 9.93191 47.3416C9.87308 47.0306 9.45919 46.789 9.19657 46.5159C8.94025 46.7659 8.49905 47.0012 8.47593 47.2701C8.45072 47.5601 8.82049 47.8815 9.01799 48.1903ZM77.9551 46.4003C77.8458 46.4024 77.7366 46.4045 77.6252 46.4066C77.4193 46.6924 77.0895 46.9592 77.0391 47.2701C76.9592 47.7428 77.3122 48.1273 77.787 48.0307C78.0811 47.9718 78.5013 47.5832 78.5139 47.3268C78.5286 47.0264 78.1589 46.7092 77.9572 46.3982L77.9551 46.4003ZM9.0474 64.1619C9.15875 64.1577 9.2701 64.1535 9.38145 64.1493C9.58105 63.8615 9.9046 63.5905 9.95082 63.2795C10.0222 62.8026 9.66298 62.4307 9.18816 62.54C8.89403 62.6072 8.48224 62.9959 8.47593 63.2522C8.46753 63.5506 8.8415 63.8594 9.0474 64.164V64.1619ZM76.8899 63.1241C76.8899 63.2396 76.8899 63.3531 76.892 63.4686C77.2092 63.6598 77.5412 64.017 77.8374 63.9897C78.1 63.9644 78.4824 63.5358 78.5265 63.2417C78.598 62.7753 78.2135 62.4286 77.7324 62.5337C77.4235 62.6009 77.1693 62.9203 76.8899 63.1241ZM23.5126 78.6818C23.6281 78.6839 23.7416 78.6881 23.8572 78.6902C24.0672 78.4149 24.3908 78.1628 24.4622 77.8561C24.5736 77.377 24.2332 76.9863 23.7647 77.0514C23.4706 77.0913 23.0378 77.4674 23.0084 77.7321C22.9747 78.0263 23.3277 78.3645 23.5147 78.6818H23.5126ZM39.8876 76.9001C39.7762 76.9001 39.6628 76.9001 39.5514 76.9001C39.3434 77.1817 39.0178 77.438 38.9547 77.7489C38.8581 78.23 39.2132 78.6103 39.6796 78.5326C39.9758 78.4843 40.4044 78.0998 40.4254 77.8372C40.4506 77.5409 40.0851 77.2132 39.8876 76.898V76.9001ZM47.075 78.6818C47.1863 78.686 47.2977 78.6902 47.409 78.6944C47.6255 78.4191 47.9595 78.1712 48.033 77.8624C48.1486 77.3812 47.7977 76.9947 47.3334 77.0535C47.0372 77.0913 46.596 77.4653 46.5645 77.7279C46.5308 78.022 46.8859 78.3624 47.0729 78.6818H47.075ZM64.1412 77.9737C64.1454 77.8624 64.1517 77.751 64.1559 77.6397C63.8513 77.4317 63.5403 77.0598 63.242 77.0682C62.9878 77.0745 62.5991 77.4884 62.5318 77.7825C62.4226 78.2574 62.7966 78.6145 63.2714 78.5452C63.5823 78.499 63.8512 78.1754 64.1412 77.9758V77.9737Z" fill="black"/>
<path d="M29.9689 43.4172C29.9689 39.4611 29.9689 35.5029 29.9689 31.5467C29.9689 30.2967 30.2966 29.9668 31.5467 29.9668C39.5115 29.9668 47.4763 29.9668 55.4432 29.9668C56.6933 29.9668 57.0231 30.2966 57.0231 31.5446C57.0231 39.5115 57.0231 47.4763 57.0231 55.4432C57.0231 56.6912 56.6912 57.0231 55.4432 57.0231C47.4784 57.0231 39.5136 57.0231 31.5467 57.0231C30.2987 57.0231 29.9689 56.6933 29.9668 55.4432C29.9668 51.4345 29.9668 47.4238 29.9668 43.4151L29.9689 43.4172ZM32.2064 54.7688H54.7604V32.2106H32.2064V54.7688Z" fill="black"/>
<path d="M32.2012 54.771V32.2129H54.7551V54.771H32.2012ZM53.2445 40.8878C53.2445 39.9214 53.255 38.9549 53.2403 37.9885C53.2298 37.1943 52.8201 36.7342 52.1562 36.7279C51.4902 36.7216 51.0532 37.1817 51.0469 37.9633C51.0343 39.9235 51.0343 41.8816 51.0469 43.8418C51.0511 44.6422 51.4587 45.0918 52.131 45.1003C52.8075 45.1087 53.2277 44.659 53.2403 43.867C53.2571 42.8753 53.2445 41.8816 53.2445 40.8878Z" fill="#FEDE00"/>
<path d="M53.2434 40.8885C53.2434 41.8823 53.256 42.8739 53.2392 43.8677C53.2266 44.6577 52.8043 45.1073 52.1299 45.101C51.4597 45.0926 51.0521 44.6429 51.0458 43.8425C51.0353 41.8823 51.0332 39.9242 51.0458 37.964C51.05 37.1824 51.487 36.7223 52.1551 36.7286C52.819 36.7349 53.2287 37.195 53.2392 37.9892C53.2539 38.9556 53.2434 39.9221 53.2434 40.8885Z" fill="black"/>
</svg>
