<svg width="87" height="87" viewBox="0 0 87 87" fill="none" xmlns="http://www.w3.org/2000/svg">
<path d="M37.0395 6.21786H49.9688C50.5804 6.64268 50.7671 7.22569 50.734 7.96084C50.6843 9.06057 50.7355 10.1648 50.7129 11.266C50.7039 11.6788 50.7988 11.8807 51.2522 11.9771C52.0566 12.1488 52.8685 12.3507 53.6263 12.6656C56.0666 13.6779 58.4828 14.746 61.0452 15.8517C61.8993 14.993 62.9191 13.9641 63.9434 12.9397C64.9015 11.9816 65.3986 11.9756 66.3356 12.9126C68.922 15.4962 71.5085 18.0828 74.0919 20.6694C75.0259 21.6049 75.0183 22.1081 74.0633 23.0632C73.039 24.0891 72.0116 25.1105 70.9647 26.156C72.8672 29.2126 74.2395 32.4425 75.0907 35.8938C75.1313 36.061 75.4627 36.2614 75.6631 36.2674C76.7883 36.3036 77.9181 36.3217 79.0434 36.2719C79.78 36.2388 80.3615 36.4256 80.7863 37.0372V49.9673C80.36 50.5744 79.7815 50.7747 79.0449 50.731C78.1471 50.6783 77.2448 50.719 76.344 50.719C75.175 50.719 75.178 50.719 74.8873 51.8232C74.7788 52.233 74.6628 52.6428 74.5227 53.0435C74.0738 54.33 73.6114 55.6105 73.1459 56.9211C73.3191 56.9693 73.4607 57.0085 73.6008 57.0492C76.713 57.938 78.8973 59.8798 80.1159 62.8732C80.4127 63.6023 80.5663 64.3902 80.7848 65.151V67.5568C80.7366 67.6939 80.6703 67.828 80.6432 67.9696C80.0135 71.2462 78.2134 73.6656 75.1886 75.047C73.9654 75.6059 72.5825 75.8183 71.162 76.2205C71.162 77.0913 71.165 78.1383 71.162 79.1853C71.159 80.3769 70.7658 80.7851 69.6059 80.7851C52.1982 80.7866 34.7905 80.7866 17.3828 80.7851C16.253 80.7851 15.8478 80.3754 15.8417 79.2455C15.8372 78.1744 15.8417 77.1048 15.8417 76.0473C10.4429 75.2624 7.18609 72.5327 6.38771 68.179C6.01111 66.1212 6.2431 64.1296 7.14994 62.248C8.52526 59.3917 10.8421 57.6653 13.7855 56.9317C13.1574 54.9537 12.5654 53.048 11.9282 51.1574C11.8634 50.9646 11.5305 50.7461 11.3166 50.7386C10.116 50.6979 8.9124 50.725 7.71031 50.7175C6.6694 50.7115 6.22653 50.2897 6.22502 49.2758C6.219 45.4177 6.21749 41.5612 6.22502 37.7031C6.22653 36.7269 6.67242 36.296 7.6606 36.2885C8.83708 36.2795 10.0151 36.2659 11.1916 36.296C11.6661 36.3081 11.8995 36.1981 12.0035 35.6844C12.1617 34.9026 12.362 34.1162 12.6678 33.381C13.6816 30.9421 14.7496 28.5242 15.8643 25.9421C14.9906 25.0804 13.9377 24.0484 12.8938 23.0075C12.0035 22.1187 11.9975 21.5929 12.8636 20.7252C15.4832 18.1009 18.1028 15.4796 20.7269 12.8599C21.5961 11.9922 22.1233 11.9997 23.0121 12.8855C24.056 13.9265 25.0954 14.972 26.1589 16.0385C29.2169 14.1389 32.4435 12.7605 35.8977 11.9138C36.0649 11.8731 36.2652 11.5402 36.2713 11.3384C36.3074 10.213 36.3255 9.08316 36.2758 7.95783C36.2426 7.22117 36.4279 6.63967 37.041 6.21484L37.0395 6.21786ZM61.5438 56.6681C62.2367 56.888 62.3663 56.3698 62.5817 56.0459C69.9931 44.8664 66.093 29.6224 54.2243 23.357C52.0024 22.1849 49.666 21.3654 47.1127 20.9858C47.1127 22.7981 47.1157 24.5501 47.1127 26.3006C47.1097 27.4681 46.709 27.8598 45.5219 27.8673C45.2598 27.8689 44.9977 27.8673 44.7492 27.8673V30.2988C45.888 30.0969 46.7783 30.4268 47.4817 31.3232C48.1084 32.1231 49.1222 32.7543 49.428 33.6447C50.148 35.7326 48.9911 37.9441 46.724 39.4521C46.1908 38.9309 45.656 38.4081 44.9796 37.7453C45.6153 37.1668 46.236 36.626 46.828 36.0565C47.2031 35.695 47.2498 34.5742 46.9214 34.193C46.0944 33.2334 45.2372 32.3265 43.7745 32.6745C43.6555 32.7031 43.5215 32.6986 43.401 32.6745C42.0497 32.4199 41.063 32.9622 40.2451 34.0137C39.7781 34.6133 39.7194 35.6181 40.2767 36.1559C40.8326 36.6923 41.4186 37.1969 41.9593 37.6865C41.3071 38.3705 40.7799 38.9218 40.2104 39.5169C39.391 38.6898 38.5835 37.9065 37.8213 37.0809C37.636 36.8806 37.5291 36.5491 37.505 36.2674C37.3564 34.4737 37.9243 32.9391 39.2087 31.6637C39.2449 31.629 39.284 31.5959 39.3141 31.5567C40.0357 30.6393 40.9034 30.0442 42.1446 30.2491C42.1778 30.2551 42.2215 30.1964 42.2395 30.1828V27.8658C41.8539 27.8658 41.5285 27.8764 41.2031 27.8643C40.3641 27.8312 39.9287 27.3883 39.8971 26.5432C39.8866 26.2675 39.8941 25.9918 39.8941 25.7161C39.8941 24.1479 39.8941 22.5796 39.8941 21.0009C37.0305 21.3805 33.7646 22.5555 31.249 24.2639C23.4459 29.5621 19.9346 36.9378 20.8384 46.3291C21.1864 49.9507 22.5271 53.2649 24.5878 56.2703C24.749 56.5053 25.0593 56.6394 25.4615 56.9422C25.4615 56.4029 25.4615 56.1302 25.4615 55.8561C25.4615 52.6488 25.4585 49.443 25.4615 46.2357C25.4615 45.1104 25.8742 44.7037 27.007 44.7022C31.5909 44.6991 36.1748 44.6991 40.7588 44.7022C41.8855 44.7022 42.2938 45.1134 42.2953 46.2448C42.2998 49.4506 42.2953 52.6578 42.2953 55.8651C42.2953 56.1317 42.2953 56.3999 42.2953 56.6771H44.701C44.701 56.3532 44.701 56.082 44.701 55.8094C44.701 52.6021 44.6979 49.3963 44.7025 46.189C44.704 45.1782 45.1258 44.7067 46.0672 44.7052C50.7762 44.6961 55.4851 44.6961 60.1956 44.7052C61.0768 44.7067 61.5257 45.1707 61.5332 46.0655C61.5468 47.6443 61.5378 49.2216 61.5378 50.8003C61.5378 52.7527 61.5378 54.7036 61.5378 56.6635L61.5438 56.6681ZM21.9275 56.7328C14.9379 44.9944 18.7054 31.8053 26.5325 24.8032C34.8447 17.3657 46.718 16.0867 56.3121 21.7601C62.3482 25.3304 66.2844 30.588 67.9926 37.4003C69.6948 44.19 68.6147 50.6286 65.0491 56.7343C66.8176 56.7343 68.4445 56.7524 70.0714 56.7132C70.2898 56.7087 70.6197 56.4632 70.695 56.2553C71.4286 54.2381 72.1999 52.2285 72.7949 50.1691C73.3071 48.4005 73.2845 48.3147 75.1645 48.3147H78.3384V38.6928C77.0489 38.6928 75.8017 38.6959 74.5544 38.6928C73.4999 38.6898 73.1715 38.4383 72.9516 37.4108C72.1622 33.726 70.7779 30.2913 68.7172 27.1307C67.9881 26.0114 68.0318 25.6905 68.9898 24.7339C69.9403 23.7848 70.8939 22.8403 71.7329 22.0057C69.4493 19.7219 67.2454 17.5149 65.0024 15.2717C64.0489 16.2314 63.023 17.2588 62.0047 18.2907C61.4745 18.827 60.8855 18.949 60.2483 18.5242C56.9147 16.3067 53.2933 14.7957 49.3647 14.0138C48.6597 13.8737 48.3072 13.4007 48.3133 12.6656C48.3208 11.5884 48.3148 10.5113 48.3148 9.43417C48.3148 9.17205 48.3148 8.90992 48.3148 8.67039H38.6935C38.6935 9.96144 38.6965 11.2088 38.6935 12.4577C38.6905 13.5092 38.4359 13.8361 37.4056 14.0575C33.7737 14.8394 30.3798 16.1922 27.2556 18.2154C25.9736 19.0455 25.7221 19.0078 24.6239 17.9066C23.7111 16.9906 22.8027 16.0732 22.0179 15.2838C19.7267 17.5721 17.5214 19.7761 15.2814 22.0132C16.2033 22.9291 17.2005 23.9144 18.1887 24.9071C18.9238 25.6453 18.9765 26.0777 18.3981 26.9574C16.2831 30.1738 14.849 33.6688 14.0522 37.4319C13.8428 38.4172 13.4963 38.6913 12.5081 38.6959C11.2383 38.7019 9.96687 38.6959 8.67439 38.6959V48.3177C9.96988 48.3177 11.2187 48.3147 12.4659 48.3177C13.5129 48.3207 13.7599 48.6054 14.0733 49.6087C14.7647 51.8232 15.5254 54.0182 16.2922 56.2086C16.369 56.427 16.6778 56.7072 16.8857 56.7132C18.5367 56.7539 20.1892 56.7358 21.929 56.7358L21.9275 56.7328ZM10.4926 71.1663C12.1602 72.8973 14.0326 73.5782 16.2183 73.5782C34.4094 73.5676 52.5989 73.5722 70.7899 73.5722C71.0159 73.5722 71.2403 73.5722 71.4663 73.5631C75.99 73.3929 79.2693 69.0211 78.1667 64.6328C77.3261 61.2884 74.4715 59.1417 70.8381 59.1417C52.623 59.1387 34.4064 59.1417 16.1912 59.1417C15.9412 59.1417 15.6896 59.1387 15.4395 59.1552C13.7313 59.2742 12.2355 59.8979 10.9731 61.0609C10.8451 61.1784 10.7532 61.3351 10.586 61.546C14.7677 61.546 18.8259 61.5385 22.8841 61.549C25.7221 61.555 27.8702 63.6445 27.8657 66.3697C27.8596 69.0904 25.71 71.1543 22.8585 71.1678C21.4801 71.1739 20.1018 71.1678 18.725 71.1678C16.0481 71.1678 13.3728 71.1678 10.4926 71.1678V71.1663ZM68.7232 76.0277H18.3077V78.3477H68.7232V76.0277ZM39.8384 56.7012V47.1517H37.4899C37.4899 48.2363 37.4929 49.2818 37.4899 50.3273C37.4854 51.5144 37.0922 51.9181 35.9278 51.9212C34.6504 51.9257 33.373 51.9212 32.0956 51.9212C30.5997 51.9212 30.2759 51.6033 30.2759 50.133C30.2759 49.1402 30.2759 48.149 30.2759 47.1682H27.9109V56.6982H39.8414L39.8384 56.7012ZM59.0839 56.6982V47.1487H56.7324C56.7324 48.2544 56.7369 49.3255 56.7324 50.3951C56.7264 51.5114 56.3121 51.9181 55.1778 51.9212C53.801 51.9257 52.4227 51.9272 51.0458 51.9212C49.9296 51.9166 49.5244 51.5024 49.5199 50.3665C49.5153 49.2984 49.5199 48.2303 49.5199 47.1667H47.1518V56.6967H59.0869L59.0839 56.6982ZM18.8952 63.9518C15.6504 63.9518 12.5081 63.9458 9.36733 63.9714C9.21217 63.9714 8.97868 64.2396 8.91843 64.4279C8.53581 65.624 8.5584 66.8337 8.82654 68.057C8.93952 68.5752 9.14438 68.7846 9.72434 68.7786C12.5503 68.7424 15.3778 68.7635 18.2037 68.7605C18.4071 68.7605 18.612 68.7289 18.8861 68.7048C18.02 67.1004 18.0757 65.5638 18.8967 63.9533L18.8952 63.9518ZM25.46 66.3773C25.472 65.0726 24.401 63.9729 23.098 63.9518C21.7904 63.9307 20.6848 64.9913 20.6546 66.2944C20.6245 67.6306 21.7196 68.756 23.0528 68.7575C24.3573 68.759 25.4479 67.6803 25.4585 66.3757L25.46 66.3773ZM44.707 20.7312H42.3495V25.4088H44.707V20.7312ZM35.027 49.4897V47.1502H32.7237V49.4897H35.027ZM51.9557 49.4777H54.2815V47.1652H51.9557V49.4777Z" fill="black"/>
<path d="M21.9206 56.7315C20.1808 56.7315 18.5283 56.7495 16.8773 56.7089C16.6694 56.7043 16.3606 56.4226 16.2838 56.2042C15.517 54.0138 14.7578 51.8204 14.0649 49.6044C13.7516 48.601 13.5045 48.3163 12.4576 48.3133C11.2088 48.3088 9.9615 48.3133 8.66602 48.3133V38.6915C9.95849 38.6915 11.2299 38.696 12.4998 38.6915C13.4894 38.687 13.8359 38.4128 14.0438 37.4276C14.8407 33.6644 16.2747 30.1694 18.3897 26.9531C18.9681 26.0733 18.9139 25.6409 18.1803 24.9028C17.1921 23.91 16.1934 22.9248 15.273 22.0088C17.5115 19.7717 19.7183 17.5678 22.0095 15.2794C22.7943 16.0688 23.7027 16.9878 24.6156 17.9022C25.7137 19.0049 25.9653 19.0426 27.2472 18.211C30.3714 16.1878 33.7653 14.835 37.3972 14.0532C38.4275 13.8317 38.6821 13.5033 38.6851 12.4533C38.6897 11.2059 38.6851 9.95706 38.6851 8.66602H48.3064C48.3064 8.90554 48.3064 9.16767 48.3064 9.4298C48.3064 10.5069 48.3124 11.584 48.3049 12.6612C48.2989 13.3963 48.6529 13.8679 49.3563 14.0095C53.285 14.7913 56.9063 16.3023 60.2399 18.5198C60.8786 18.9447 61.4676 18.8241 61.9964 18.2863C63.0147 17.2529 64.0405 16.227 64.9941 15.2674C67.2371 17.5105 69.4409 19.7175 71.7246 22.0013C70.8855 22.8359 69.932 23.7819 68.9814 24.7295C68.0219 25.6861 67.9797 26.007 68.7088 27.1263C70.7695 30.2869 72.1539 33.7231 72.9432 37.4065C73.1632 38.4339 73.4915 38.6855 74.546 38.6885C75.7933 38.6915 77.0406 38.6885 78.33 38.6885V48.3103H75.1561C73.2761 48.3103 73.2972 48.3947 72.7866 50.1648C72.19 52.2241 71.4188 54.2337 70.6867 56.2509C70.6113 56.4588 70.2799 56.7043 70.063 56.7089C68.4361 56.748 66.8092 56.73 65.0408 56.73C68.6063 50.6257 69.6864 44.1856 67.9842 37.3959C66.276 30.5837 62.3398 25.3276 56.3038 21.7557C46.7111 16.0809 34.8378 17.3614 26.5241 24.7988C18.697 31.8009 14.931 44.99 21.9191 56.7285L21.9206 56.7315Z" fill="#FEDE00"/>
<path d="M39.8348 56.7008H27.9043V47.1709H30.2693C30.2693 48.1516 30.2693 49.1428 30.2693 50.1356C30.2693 51.6044 30.5932 51.9238 32.089 51.9238C33.3664 51.9238 34.6438 51.9268 35.9212 51.9238C37.0857 51.9193 37.4804 51.517 37.4834 50.3299C37.4864 49.2844 37.4834 48.2374 37.4834 47.1543H39.8318V56.7038L39.8348 56.7008Z" fill="#FEDE00"/>
<path d="M59.0893 56.7023H47.1543V47.1724H49.5223C49.5223 48.2359 49.5193 49.304 49.5223 50.3721C49.5268 51.5065 49.9321 51.9208 51.0483 51.9268C52.4251 51.9328 53.8035 51.9313 55.1803 51.9268C56.3146 51.9238 56.7288 51.517 56.7349 50.4007C56.7409 49.3296 56.7349 48.26 56.7349 47.1543H59.0863V56.7038L59.0893 56.7023Z" fill="#FEDE00"/>
<path d="M18.8993 63.9536C18.0783 65.5641 18.0225 67.1007 18.8887 68.705C18.6146 68.7276 18.4112 68.7608 18.2063 68.7608C15.3804 68.7638 12.5529 68.7442 9.72691 68.7789C9.14846 68.7864 8.9436 68.5755 8.82911 68.0573C8.56097 66.8355 8.53989 65.6243 8.921 64.4282C8.98125 64.2414 9.21474 63.9732 9.3699 63.9717C12.5107 63.9446 15.653 63.9521 18.8977 63.9521L18.8993 63.9536Z" fill="#FEDE00"/>
<path d="M25.4627 66.3754C25.4507 67.6785 24.36 68.7586 23.057 68.7571C21.7224 68.7556 20.6272 67.6303 20.6589 66.294C20.689 64.9909 21.7947 63.9304 23.1022 63.9515C24.4052 63.9726 25.4763 65.0708 25.4642 66.3769L25.4627 66.3754Z" fill="#FEDE00"/>
<path d="M44.7051 20.7305V25.4081H42.3477V20.7305H44.7051Z" fill="#FEDE00"/>
<path d="M35.0259 49.4938H32.7227V47.1543H35.0259V49.4938Z" fill="#FEDE00"/>
<path d="M51.9609 49.4784V47.166H54.2868V49.4784H51.9609Z" fill="#FEDE00"/>
<path d="M39.8883 66.3605C39.8883 69.0119 37.7116 71.1767 35.0573 71.1661C32.4091 71.1556 30.255 68.9712 30.2716 66.3153C30.2897 63.6971 32.4438 61.5549 35.0649 61.5488C37.7221 61.5428 39.8898 63.7046 39.8883 66.3605ZM35.0724 63.9547C33.7664 63.9577 32.6833 65.0393 32.6773 66.3454C32.6712 67.6516 33.7438 68.7453 35.0483 68.7603C36.3815 68.7769 37.4962 67.6651 37.4811 66.3304C37.4676 65.0258 36.3769 63.9502 35.0709 63.9532L35.0724 63.9547Z" fill="black"/>
<path d="M51.9141 66.3305C51.9261 68.9864 49.7629 71.1633 47.1132 71.1663C44.462 71.1693 42.2928 68.997 42.2988 66.3456C42.3034 63.7228 44.4439 61.567 47.062 61.549C49.7208 61.5294 51.9035 63.6806 51.9156 66.332L51.9141 66.3305ZM49.5084 66.3802C49.5204 65.0741 48.4524 63.9759 47.1479 63.9533C45.8403 63.9307 44.7347 64.9912 44.703 66.2943C44.6714 67.6306 45.765 68.7574 47.0997 68.7604C48.4027 68.7634 49.4963 67.6848 49.5084 66.3817V66.3802Z" fill="black"/>
<path d="M59.1031 61.5489C61.7618 61.5353 63.937 63.6911 63.9431 66.344C63.9491 68.9984 61.7814 71.1692 59.1287 71.1677C56.5091 71.1647 54.3474 69.024 54.3263 66.4088C54.3052 63.7483 56.4533 61.564 59.1016 61.5489H59.1031ZM59.1392 63.9547C57.8317 63.9532 56.7456 65.0273 56.7335 66.335C56.7215 67.6411 57.791 68.7393 59.094 68.7604C60.4272 68.783 61.5464 67.6757 61.5389 66.341C61.5313 65.0364 60.4452 63.9562 59.1392 63.9532V63.9547Z" fill="black"/>
<path d="M75.9708 66.3605C75.9693 69.0119 73.7941 71.1767 71.1398 71.1661C68.4916 71.1556 66.3375 68.9712 66.3556 66.3153C66.3737 63.6971 68.5278 61.5549 71.1489 61.5488C73.8061 61.5428 75.9738 63.7061 75.9723 66.362L75.9708 66.3605ZM71.188 63.9532C69.8775 63.9396 68.7824 65.0032 68.7598 66.3108C68.7372 67.6169 69.7962 68.7257 71.0977 68.7588C72.4308 68.7935 73.5606 67.6967 73.5651 66.3635C73.5696 65.0589 72.4926 63.9667 71.188 63.9532Z" fill="black"/>
<path d="M35.0792 63.9512C36.3852 63.9482 37.4759 65.0238 37.4894 66.3284C37.503 67.6616 36.3898 68.7749 35.0566 68.7583C33.7521 68.7418 32.6795 67.6496 32.6856 66.3435C32.6916 65.0373 33.7747 63.9557 35.0807 63.9527L35.0792 63.9512Z" fill="#FEDE00"/>
<path d="M49.5209 66.38C49.5088 67.6831 48.4167 68.7617 47.1122 68.7587C45.7775 68.7557 44.6839 67.6288 44.7155 66.2926C44.7471 64.9895 45.8543 63.9289 47.1604 63.9515C48.4634 63.9741 49.5329 65.0723 49.5209 66.3784V66.38Z" fill="#FEDE00"/>
<path d="M59.1363 63.9512C60.4408 63.9527 61.5284 65.0343 61.5359 66.3389C61.5435 67.6722 60.4257 68.7794 59.0911 68.7583C57.788 68.7372 56.7185 67.639 56.7306 66.3329C56.7426 65.0253 57.8287 63.9512 59.1363 63.9527V63.9512Z" fill="#FEDE00"/>
<path d="M71.1865 63.9513C72.491 63.9649 73.5665 65.057 73.5635 66.3617C73.559 67.6949 72.4307 68.7916 71.0961 68.7569C69.7931 68.7238 68.7356 67.615 68.7582 66.3089C68.7808 65.0013 69.8759 63.9377 71.1865 63.9513Z" fill="#FEDE00"/>
</svg>
