<svg width="87" height="87" viewBox="0 0 87 87" fill="none" xmlns="http://www.w3.org/2000/svg">
<path d="M53.5952 6.21484C54.387 6.64472 54.6607 7.30024 54.6353 8.19696C54.5844 10.0643 54.6235 11.9336 54.6177 13.801C54.6137 15.0478 54.0996 15.5535 52.8308 15.5594C51.2512 15.5652 49.6716 15.5594 48.047 15.5594V18.5899C49.7459 18.5899 51.4233 18.5705 53.0987 18.5938C55.6264 18.6288 57.6967 20.3211 58.205 22.7778C58.3164 23.3167 58.3086 23.8866 58.3086 24.4429C58.3145 37.1584 58.3125 49.8719 58.3125 62.5874V63.5814C58.5491 63.3655 58.6879 63.2527 58.8091 63.1243C61.5128 60.2377 64.8362 58.7632 68.8146 58.773C70.1811 58.7769 71.5456 58.7671 72.9121 58.7749C74.005 58.7807 74.5484 59.2962 74.5543 60.368C74.5641 62.9395 74.5973 65.5129 74.5387 68.0844C74.3842 74.9683 68.5545 80.7104 61.6008 80.7571C53.5268 80.8116 45.4528 80.7727 37.3788 80.7746C30.9646 80.7746 24.5485 80.7746 18.1343 80.7746C14.6016 80.7746 12.4336 78.6252 12.4336 75.1103C12.4297 58.1525 12.4297 41.1907 12.4297 24.2289C12.4297 20.751 14.5938 18.5958 18.0776 18.588C19.6063 18.5841 21.1371 18.588 22.6913 18.588V15.5613C21.139 15.5613 19.6337 15.5613 18.1264 15.5613C16.5527 15.5613 16.1187 15.1314 16.1167 13.585C16.1167 11.7897 16.1539 9.99234 16.1011 8.1989C16.0757 7.30219 16.3494 6.64861 17.1392 6.21484H53.5952ZM42.841 32.4297H15.4169V66.4563H39.1364C39.1364 66.1509 39.1364 65.8903 39.1364 65.6277C39.1364 63.9062 39.1246 62.1828 39.1403 60.4614C39.15 59.3059 39.6994 58.7846 40.8606 58.7768C41.5097 58.773 42.1587 58.7768 42.839 58.7768V32.4297H42.841ZM15.3739 29.4342H16.3924C25.5181 29.4342 34.6419 29.4342 43.7676 29.4342C45.3375 29.4342 45.8067 29.9068 45.8067 31.4824C45.8067 40.2687 45.8067 49.055 45.8067 57.8412V58.771C49.6736 59.0745 52.7878 60.6792 55.384 63.632C55.384 63.1924 55.384 62.955 55.384 62.7158C55.384 49.9011 55.384 37.0845 55.384 24.2698C55.384 22.3402 54.5277 21.5018 52.5591 21.5018C41.0913 21.5018 29.6255 21.5018 18.1577 21.5018C17.9388 21.5018 17.7178 21.494 17.4989 21.5116C16.3904 21.5991 15.4169 22.4841 15.3895 23.5676C15.3406 25.4797 15.3758 27.3956 15.3758 29.4342H15.3739ZM43.7579 77.8647C42.7804 76.575 41.6524 75.371 40.8704 73.9763C40.0884 72.5855 39.6525 71.0022 39.0425 69.4499H15.3582C15.3582 71.3445 15.3582 73.206 15.3582 75.0656C15.3582 77.0146 16.2086 77.8647 18.1479 77.8666C26.4858 77.8666 34.8257 77.8666 43.1636 77.8666C43.4021 77.8666 43.6425 77.8666 43.7559 77.8666L43.7579 77.8647ZM55.382 75.6705C55.382 74.2856 55.386 73.1282 55.382 71.9708C55.3547 65.83 50.2346 60.5353 42.1431 61.7918C42.1431 64.0677 41.9984 66.3532 42.1744 68.6135C42.5067 72.8948 45.5838 76.4136 49.7459 77.5145C50.9071 77.8219 52.0899 77.9639 53.5112 77.783C53.1573 77.4912 52.9364 77.3356 52.7468 77.1488C51.2434 75.6608 49.7439 74.1689 48.2504 72.6711C47.8066 72.2257 47.5329 71.6479 47.8887 71.0975C48.1487 70.6968 48.6394 70.2533 49.0695 70.2046C49.5113 70.1541 50.1056 70.4575 50.4556 70.7901C52.0762 72.3268 53.6363 73.9277 55.384 75.6725L55.382 75.6705ZM71.7822 61.6887C70.5486 61.6887 69.5535 61.6771 68.5604 61.6907C65.3171 61.7393 62.6838 63.0504 60.6076 65.511C58.1209 68.4579 58.1855 71.9631 58.3614 75.618C58.6038 75.3982 58.7798 75.2504 58.942 75.0889C60.4082 73.632 61.8784 72.179 63.3368 70.7143C63.8235 70.226 64.369 69.979 65.0473 70.2358C66.0991 70.6306 66.3063 71.8561 65.4442 72.7275C63.9232 74.2661 62.3788 75.7833 60.8461 77.3122C60.7015 77.4562 60.5744 77.6176 60.4102 77.8024C65.3171 78.3451 70.2671 74.9956 71.2426 70.1268C71.7822 67.427 71.6199 64.589 71.7802 61.6887H71.7822ZM51.6598 9.18315H19.1078V12.6047H51.6598V9.18315ZM45.0266 18.5491V15.6216H25.7253V18.5491H45.0266Z" fill="black"/>
<path d="M42.8402 32.4316V58.7768C42.1618 58.7768 41.5127 58.7729 40.8617 58.7768C39.7005 58.7846 39.1511 59.3059 39.1414 60.4613C39.1257 62.1828 39.1375 63.9062 39.1375 65.6277C39.1375 65.8903 39.1375 66.1509 39.1375 66.4563H15.416V32.4316H42.8402ZM33.646 53.9334C34.643 53.9334 35.5188 53.9509 36.3927 53.9295C37.4249 53.9042 37.9879 53.3751 38.0016 52.352C38.029 50.4127 38.029 48.4733 38.0016 46.534C37.9879 45.4564 37.4347 44.9507 36.3497 44.939C35.4778 44.9293 34.6078 44.939 33.644 44.939C33.644 43.9761 33.6636 43.0853 33.6382 42.1963C33.6088 41.1343 33.0478 40.5916 31.9882 40.5857C30.088 40.576 28.1858 40.578 26.2856 40.5857C25.1204 40.5896 24.6004 41.1129 24.5887 42.278C24.5809 43.1417 24.5887 44.0073 24.5887 44.939C23.6444 44.939 22.7979 44.9351 21.9495 44.939C20.7257 44.9468 20.2135 45.4486 20.2096 46.6605C20.2037 48.4305 20.2076 50.2006 20.2096 51.9707C20.2096 53.4724 20.667 53.9334 22.1626 53.9373C22.9543 53.9392 23.7461 53.9373 24.5887 53.9373C24.5887 54.8846 24.5848 55.7054 24.5887 56.5243C24.5965 57.7498 25.0911 58.2594 26.3071 58.2672C28.1584 58.2789 30.0117 58.2769 31.8631 58.2672C33.1162 58.2614 33.6284 57.742 33.6421 56.4893C33.6519 55.6704 33.6421 54.8515 33.6421 53.9334H33.646Z" fill="#FEDE00"/>
<path d="M55.3789 75.6762C53.6312 73.9313 52.0711 72.3305 50.4504 70.7938C50.1005 70.4612 49.5043 70.1597 49.0644 70.2083C48.6343 70.2569 48.1436 70.7004 47.8836 71.1011C47.5278 71.6516 47.8015 72.2293 48.2453 72.6748C49.7388 74.1725 51.2383 75.6645 52.7417 77.1525C52.9313 77.3393 53.1522 77.4949 53.506 77.7866C52.0848 77.9695 50.902 77.8255 49.7408 77.5182C45.5807 76.4173 42.5016 72.8985 42.1693 68.6172C41.9933 66.3569 42.138 64.0713 42.138 61.7955C50.2295 60.5389 55.3496 65.8337 55.3769 71.9745C55.3828 73.1319 55.3769 74.2873 55.3769 75.6742L55.3789 75.6762Z" fill="#FEDE00"/>
<path d="M71.778 61.6872C71.6177 64.5874 71.78 67.4254 71.2404 70.1252C70.2669 74.994 65.3149 78.3435 60.408 77.8008C60.5722 77.616 60.6993 77.4546 60.844 77.3106C62.3766 75.7818 63.9211 74.2665 65.442 72.7259C66.3022 71.8545 66.0969 70.631 65.0452 70.2342C64.3648 69.9794 63.8214 70.2244 63.3346 70.7127C61.8762 72.1774 60.406 73.6304 58.9398 75.0873C58.7776 75.2488 58.6016 75.3966 58.3592 75.6164C58.1833 71.9615 58.1187 68.4563 60.6055 65.5094C62.6816 63.0468 65.3149 61.7377 68.5582 61.6891C69.5513 61.6735 70.5464 61.6872 71.78 61.6872H71.778Z" fill="#FEDE00"/>
<path d="M33.6432 53.9297C33.6432 54.8478 33.6511 55.6667 33.6432 56.4856C33.6295 57.7402 33.1173 58.2576 31.8642 58.2635C30.0129 58.2732 28.1596 58.2751 26.3082 58.2635C25.0903 58.2557 24.5976 57.7441 24.5898 56.5206C24.584 55.6998 24.5898 54.8789 24.5898 53.9336C23.7472 53.9336 22.9555 53.9336 22.1637 53.9336C20.6682 53.9297 20.2107 53.4706 20.2107 51.967C20.2107 50.1969 20.2068 48.4268 20.2107 46.6567C20.2146 45.4449 20.7249 44.943 21.9506 44.9353C22.7991 44.9294 23.6456 44.9353 24.5898 44.9353C24.5898 44.0016 24.584 43.1379 24.5898 42.2743C24.6016 41.1072 25.1196 40.5859 26.2867 40.582C28.1869 40.5742 30.0891 40.5742 31.9893 40.582C33.0489 40.5878 33.61 41.1305 33.6393 42.1926C33.6647 43.0815 33.6452 43.9705 33.6452 44.9353C34.609 44.9353 35.4809 44.9275 36.3508 44.9353C37.4378 44.9469 37.9891 45.4527 38.0028 46.5303C38.0282 48.4696 38.0302 50.4089 38.0028 52.3483C37.9871 53.3714 37.4261 53.8985 36.3939 53.9258C35.52 53.9472 34.6442 53.9297 33.6471 53.9297H33.6432ZM30.7167 43.525H27.5144C27.5144 44.3517 27.5164 45.1453 27.5144 45.939C27.5086 47.3142 26.9905 47.8374 25.622 47.8452C24.8049 47.8491 23.9857 47.8452 23.1666 47.8452V51.0197C23.9936 51.0197 24.7912 51.0158 25.5908 51.0197C27.0433 51.0275 27.5125 51.4982 27.5164 52.9493C27.5184 53.739 27.5164 54.5268 27.5164 55.3127H30.7186C30.7186 54.4335 30.7128 53.5893 30.7186 52.747C30.7303 51.5274 31.223 51.0372 32.4585 51.0197C33.3031 51.008 34.1496 51.0178 35.0391 51.0178V47.8433C34.1691 47.8433 33.3422 47.8491 32.5172 47.8433C31.2445 47.8335 30.7303 47.3317 30.7186 46.0849C30.7108 45.2426 30.7186 44.4003 30.7186 43.525H30.7167Z" fill="black"/>
</svg>
