<svg width="81" height="81" viewBox="0 0 81 81" fill="none" xmlns="http://www.w3.org/2000/svg">
<path d="M40.5456 2C41.3482 2.47686 41.57 3.1951 41.5562 4.09977C41.517 6.71762 41.5562 9.33743 41.5327 11.9572C41.5288 12.4498 41.6504 12.648 42.1626 12.7971C44.5372 13.4899 46.0385 15.0716 46.4212 17.5246C47.11 21.9459 47.7066 26.3829 48.3424 30.812C48.3816 31.0926 48.4405 31.3693 48.4719 31.5558C49.5886 31.0495 50.664 30.5608 51.8238 30.0329C51.8238 27.9018 51.8238 25.6528 51.8238 23.402C51.8238 21.8203 52.2536 21.3885 53.8157 21.3866C56.4591 21.3866 59.1025 21.3846 61.746 21.3866C63.0333 21.3866 63.5671 21.9204 63.571 23.2234C63.5789 25.329 63.5848 27.4347 63.5632 29.5384C63.5573 30.0251 63.6574 30.2409 64.1951 30.3744C66.5383 30.9513 68.0788 32.4349 68.5949 34.7996C69.4663 38.7872 70.2473 42.7944 71.0539 46.7958C71.2423 47.7338 70.7242 48.5129 69.8548 48.6659C69.0561 48.8053 68.3516 48.2558 68.1593 47.3139C67.3723 43.4577 66.5932 39.5996 65.8122 35.7435C65.4727 34.0657 64.3737 33.1433 62.6801 33.1414C59.3518 33.1355 56.0215 33.1355 52.6932 33.1414C51.0231 33.1433 50.0105 34.046 49.5493 35.6591C49.096 37.2448 49.4845 38.7656 49.6985 40.3022C50.5992 46.7448 51.5314 53.1814 52.4518 59.622C52.9542 63.1328 53.433 66.6455 53.9648 70.1523C54.1807 71.577 53.9943 72.9154 53.3192 74.2733H54.1356C59.2752 74.2733 64.4169 74.2733 69.5565 74.2733C72.041 74.2733 73.3107 72.7427 72.824 70.3309C72.1803 67.1439 71.5327 63.959 70.8831 60.772C70.6653 59.7005 71.101 58.9058 72.0057 58.7331C72.8554 58.5702 73.5403 59.1334 73.7523 60.1931C74.4509 63.6685 75.2221 67.1302 75.8109 70.6233C76.3702 73.9358 73.7209 77.0286 70.3513 77.1993C70.1315 77.2111 69.9117 77.2111 69.69 77.2111C51.3312 77.2111 32.9705 77.2111 14.6117 77.2111C11.5856 77.2111 9.28759 75.4822 8.57522 72.7289C8.23767 71.4239 8.51438 70.1484 8.69493 68.8708C10.153 58.6055 11.6209 48.3402 13.0889 38.0768C14.0622 31.2751 15.014 24.4695 16.0227 17.6718C16.3897 15.1932 17.8537 13.5468 20.2577 12.8285C20.8582 12.65 20.9858 12.3948 20.9799 11.8258C20.9505 9.18239 20.9917 6.53904 20.9544 3.89568C20.9426 3.0126 21.2173 2.37874 22.0278 2.00392H40.5377L40.5456 2ZM14.5705 48.613C14.2997 50.5283 14.076 52.3239 13.7777 54.1057C13.6815 54.6748 13.8503 54.9123 14.3311 55.1693C20.6463 58.5466 26.9516 61.9455 33.259 65.3385C38.4457 68.131 43.6384 70.9157 48.8114 73.7317C49.3197 74.0084 49.6572 73.9456 50.0497 73.614C50.9564 72.8467 51.2468 71.8615 51.0898 70.7175C51.0074 70.1111 50.8779 69.5106 50.8347 68.9022C50.7915 68.3096 50.5482 67.9564 50.0066 67.6659C40.0118 62.3046 30.0288 56.9218 20.0418 51.5448C18.2599 50.5852 16.4741 49.6314 14.5705 48.611V48.613ZM50.1204 64.3789C50.0968 64.0198 50.0968 63.7784 50.0635 63.5429C49.7946 61.6806 49.4924 59.8222 49.2648 57.954C49.198 57.3967 48.9763 57.1043 48.4955 56.8472C38.2907 51.3682 28.0938 45.8734 17.893 40.3826C17.2532 40.0373 16.6075 39.7017 15.8952 39.3249C15.6244 41.25 15.3869 43.0868 15.0925 44.9178C15.016 45.3985 15.1612 45.5967 15.5635 45.8126C26.8005 51.8509 38.0277 57.903 49.2589 63.9511C49.5081 64.0865 49.7671 64.2062 50.1165 64.3789H50.1204ZM48.6368 53.5896C48.2953 51.2249 47.9872 48.974 47.6202 46.7349C47.577 46.4759 47.2454 46.1972 46.9785 46.054C37.3252 40.8418 27.664 35.6434 18.0028 30.445C17.7615 30.3155 17.5142 30.1958 17.2257 30.0486C16.9569 31.9266 16.743 33.6987 16.4329 35.455C16.3191 36.1007 16.5565 36.346 17.0668 36.6207C26.4512 41.6582 35.8278 46.7134 45.2064 51.7646C46.3171 52.3631 47.4318 52.9518 48.6348 53.5916L48.6368 53.5896ZM18.5621 20.737C18.2933 22.5974 18.0656 24.3616 17.7693 26.112C17.6614 26.7518 17.8596 27.0422 18.4209 27.3425C26.8692 31.8619 35.3019 36.4107 43.7385 40.9517C44.81 41.5287 45.8815 42.1017 47.0275 42.7179C47.0079 42.3902 47.0099 42.1724 46.9785 41.9585C46.7096 40.0942 46.3956 38.2377 46.1837 36.3676C46.1111 35.716 45.8363 35.3923 45.2927 35.1018C37.751 31.0612 30.2211 26.9991 22.6892 22.9447C21.339 22.2186 19.9869 21.4984 18.5621 20.7351V20.737ZM38.5811 4.99463H23.9609V12.5165H38.5811V4.99463ZM29.2242 66.5081C27.2696 65.4543 25.4602 64.4986 23.6724 63.5017C23.2132 63.2466 22.8658 63.2446 22.4007 63.4998C19.2941 65.1992 16.2013 66.9261 13.0359 68.5117C11.9114 69.0749 11.3384 69.7696 11.3737 70.9942C11.3756 71.0668 11.3521 71.1394 11.3521 71.212C11.3521 72.3208 11.7819 73.2254 12.7337 73.8043C13.6384 74.3558 14.5548 74.4539 15.5576 73.8828C17.5711 72.7329 19.6356 71.6712 21.6785 70.5723C24.1473 69.2437 26.6161 67.9132 29.2222 66.5081H29.2242ZM28.4019 22.6563C28.708 22.8329 28.9121 22.9585 29.1221 23.0703C30.7353 23.9397 32.3562 24.7894 33.9556 25.6842C34.3874 25.9256 34.7131 25.9492 35.1586 25.7019C37.4233 24.4479 39.7096 23.2352 41.986 22.0028C42.6277 21.6554 43.5363 21.4278 43.815 20.8842C44.0917 20.3445 43.7208 19.4772 43.6502 18.753C43.5697 17.9131 43.4009 17.1105 42.7985 16.4649C42.0292 15.6407 41.568 15.5602 40.5868 16.092C40.3729 16.2078 40.155 16.3197 39.9392 16.4354C36.1359 18.4861 32.3307 20.5388 28.4039 22.6563H28.4019ZM21.1035 74.2184H43.4461C43.2675 74.0948 43.1949 74.0339 43.1144 73.9888C39.6762 72.1324 36.2399 70.27 32.786 68.4411C32.5427 68.3116 32.1149 68.3214 31.8637 68.4489C30.5331 69.1181 29.232 69.8442 27.9191 70.5507C25.7074 71.7418 23.4958 72.9311 21.1016 74.2184H21.1035ZM19.0822 17.6659C21.0564 18.7295 22.9855 19.7872 24.9362 20.7979C25.1501 20.9097 25.5465 20.8293 25.7879 20.7037C27.6738 19.7205 29.5421 18.704 31.4143 17.6953C32.6683 17.0202 33.9203 16.3393 35.19 15.6505C35.1135 15.5661 35.0998 15.5367 35.0841 15.5367C30.6057 15.5308 26.1274 15.5072 21.6491 15.5386C20.4088 15.5484 19.4374 16.4158 19.0822 17.6659ZM54.8205 24.3478V30.1585H60.5803V24.3478H54.8205ZM37.6686 27.6741C40.3179 29.1008 42.8691 30.4745 45.538 31.9109C45.1475 29.2028 44.7805 26.6674 44.4037 24.0456C42.1077 25.2819 39.947 26.4457 37.6686 27.6722V27.6741ZM13.2459 57.903C12.871 60.5287 12.5139 63.0366 12.1351 65.7016C14.7903 64.271 17.3042 62.9169 19.93 61.5001C17.6378 60.2657 15.4929 59.1118 13.2459 57.903Z" fill="black"/>
<path d="M14.5726 48.6094C16.4762 49.6298 18.2621 50.5836 20.044 51.5432C30.0309 56.9202 40.0139 62.303 50.0087 67.6643C50.5503 67.9547 50.7937 68.308 50.8368 68.9006C50.88 69.509 51.0095 70.1095 51.0919 70.7158C51.2489 71.8619 50.9585 72.8451 50.0519 73.6124C49.6594 73.944 49.3218 74.0068 48.8135 73.7301C43.6405 70.9121 38.4479 68.1274 33.2611 65.3369C26.9538 61.9419 20.6504 58.5431 14.3332 55.1677C13.8524 54.9107 13.6836 54.6732 13.7798 54.1041C14.0801 52.3222 14.3038 50.5266 14.5726 48.6113V48.6094Z" fill="#FEDE00"/>
<path d="M50.1147 64.3763C49.7654 64.2016 49.5063 64.0819 49.2571 63.9485C38.026 57.9003 26.7988 51.8483 15.5618 45.81C15.1575 45.5921 15.0123 45.3959 15.0908 44.9151C15.3852 43.0862 15.6226 41.2474 15.8934 39.3223C16.6058 39.699 17.2495 40.0366 17.8912 40.38C28.0901 45.8708 38.287 51.3655 48.4937 56.8446C48.9726 57.1016 49.1943 57.394 49.263 57.9514C49.4906 59.8196 49.7929 61.678 50.0617 63.5403C50.0951 63.7758 50.0951 64.0152 50.1186 64.3763H50.1147Z" fill="#FEDE00"/>
<path d="M48.644 53.5918C47.441 52.9501 46.3244 52.3614 45.2156 51.7648C35.837 46.7155 26.4604 41.6604 17.0759 36.6209C16.5657 36.3481 16.3282 36.1009 16.4421 35.4552C16.7521 33.7009 16.966 31.9268 17.2349 30.0488C17.5234 30.196 17.7706 30.3138 18.012 30.4452C27.6732 35.6436 37.3344 40.842 46.9877 46.0542C47.2546 46.1974 47.5862 46.4781 47.6294 46.7351C47.9964 48.9762 48.3025 51.2251 48.6459 53.5898L48.644 53.5918Z" fill="#FEDE00"/>
<path d="M18.5593 20.7344C19.9861 21.4977 21.3382 22.218 22.6864 22.944C30.2203 26.9984 37.7502 31.0605 45.2899 35.1011C45.8335 35.3935 46.1083 35.7154 46.1809 36.3669C46.3909 38.237 46.7068 40.0954 46.9757 41.9578C47.0071 42.1717 47.0051 42.3915 47.0247 42.7172C45.8767 42.101 44.8052 41.528 43.7357 40.9511C35.2991 36.4101 26.8664 31.8612 18.4181 27.3418C17.8568 27.0415 17.6586 26.7511 17.7665 26.1114C18.0628 24.3589 18.2905 22.5967 18.5593 20.7363V20.7344Z" fill="#FEDE00"/>
</svg>
