<svg width="70" height="70" viewBox="0 0 70 70" fill="none" xmlns="http://www.w3.org/2000/svg">
<path d="M38.1386 0H69.168C69.833 0.353189 70 0.915947 70 1.64577C69.9853 23.1112 69.9883 44.5766 69.9883 66.042C69.9883 66.1783 69.9927 66.316 69.9868 66.4523C69.9487 67.2247 69.5137 67.6585 68.733 67.6922C68.3976 67.7068 68.0622 67.6951 67.6521 67.6951V69.9769H65.313V67.7522H41.9629V69.9769H39.6531C39.6531 69.568 39.6531 69.206 39.6531 68.8455C39.6531 68.485 39.6531 68.0937 39.6531 67.6966C39.407 67.6966 39.2708 67.6966 39.1346 67.6966C37.5967 67.6834 37.3242 67.4035 37.3242 65.8441C37.3242 44.4476 37.3271 23.0496 37.3125 1.6531C37.3125 0.92474 37.4824 0.361982 38.1386 0.00146552V0ZM67.633 24.5591H39.7087V65.318H67.633V24.5591ZM67.6096 22.1454V2.3712H39.7014V22.1454H67.6096Z" fill="black"/>
<path d="M0 66.8891V25.3109C0.373496 24.6676 0.938866 24.4961 1.66242 24.4961C12.1877 24.5122 22.7115 24.5064 33.2367 24.5078C34.6795 24.5078 34.9929 24.8244 34.9929 26.2811C34.9929 39.5015 34.9929 52.7219 34.9929 65.9423C34.9929 66.1241 35.0002 66.3072 34.99 66.489C34.949 67.2232 34.5154 67.6628 33.7787 67.701C33.4242 67.72 33.0668 67.7039 32.6377 67.7039V70.0003H30.322V67.7464H4.6416V69.9798H2.30249V67.7185C1.41489 67.6922 0.481883 67.8739 0 66.8905V66.8891ZM32.6274 65.3503V36.251H2.37719V65.3503H32.6274ZM2.35815 33.7875H32.6289V26.8849H2.35815V33.7875Z" fill="black"/>
<path d="M34.1741 0C34.8025 0.34 35.0075 0.864654 35.0061 1.57689C34.987 7.91232 34.9958 14.2477 34.9944 20.5832C34.9944 21.8054 34.6326 22.1659 33.4066 22.1659C22.7935 22.1659 12.1804 22.1615 1.56575 22.1776C0.852449 22.1776 0.323696 21.9871 0 21.3364V0H34.1741ZM23.3061 2.38293H2.3684V19.7947H23.3061V2.38293ZM32.6128 19.8064V2.36388H25.7156V19.8064H32.6128Z" fill="black"/>
<path d="M67.6333 24.5625V65.3214H39.709V24.5625H67.6333ZM43.2125 26.8751V43.1438H45.4506V26.8751H43.2125Z" fill="#FEDE00"/>
<path d="M23.3069 2.38281V19.7946H2.36914V2.38281H23.3069ZM12.7802 17.5055C15.0563 17.5055 17.3339 17.5099 19.61 17.5025C20.5577 17.4996 20.9985 17.0805 21.0015 16.125C21.0146 12.7762 21.0132 9.42755 21.0015 6.08031C20.9985 5.08815 20.5621 4.66315 19.5763 4.66169C15.0914 4.65583 10.6066 4.65729 6.12168 4.66169C5.0876 4.66169 4.66284 5.08522 4.66138 6.11255C4.65552 9.41582 4.65699 12.7191 4.66138 16.0209C4.66138 17.0966 5.07442 17.5011 6.1539 17.504C8.36265 17.5069 10.5699 17.504 12.7787 17.504L12.7802 17.5055Z" fill="#FEDE00"/>
<path d="M43.2129 26.8711H45.4509V43.1398H43.2129V26.8711Z" fill="black"/>
<path d="M45.4529 19.7948H43.2031V8.23633H45.4529V19.7948Z" fill="black"/>
<path d="M17.5055 37.3457C24.5931 37.356 30.3626 43.1609 30.3333 50.2525C30.304 57.3075 24.5009 63.0655 17.4499 63.0347C10.3871 63.004 4.647 57.224 4.66018 50.1587C4.67483 43.0935 10.4457 37.3355 17.5055 37.3457ZM22.3668 56.7447C18.2217 59.6054 13.5728 58.307 11.1722 55.4331C8.60752 52.3629 8.62656 47.9223 11.2527 44.8257C13.5772 42.0837 18.1822 40.7003 22.235 43.5097C22.8033 42.966 23.3496 42.4413 23.893 41.9196C19.8973 38.6075 13.2506 38.8317 9.36916 43.5273C5.60344 48.0835 6.37533 54.8381 11.0638 58.4902C15.5604 61.9928 21.4851 60.8101 23.9311 58.3231C23.4199 57.8073 22.9088 57.2914 22.3668 56.7433V56.7447ZM20.678 45.3767C18.5249 43.7266 15.203 44.1076 13.2359 46.1798C11.1737 48.3517 11.1034 51.7327 13.0748 54.0145C14.9628 56.1996 18.3052 56.6612 20.6824 55.0066C19.6879 54.3853 19.8139 53.4034 19.8227 52.4464C19.8358 50.8768 19.8476 49.3058 19.8183 47.7362C19.8007 46.8261 19.7802 45.9439 20.6795 45.3782L20.678 45.3767ZM25.6301 43.6958C24.621 44.707 23.5928 45.6977 22.6187 46.7397C22.3727 47.0035 22.194 47.4285 22.1749 47.789C22.1178 48.8779 22.254 49.9843 22.131 51.0615C21.9552 52.6017 22.4122 53.761 23.6426 54.7106C24.3822 55.2822 24.9915 56.0252 25.6624 56.6964C28.9565 52.7468 28.5214 46.8774 25.6287 43.6943L25.6301 43.6958Z" fill="black"/>
<path d="M23.3789 29.1953H30.2805V31.4581H23.3789V29.1953Z" fill="black"/>
<path d="M6.9524 31.4688H4.70703V29.2207H6.9524V31.4688Z" fill="black"/>
<path d="M11.5989 31.4668H9.36523V29.2305H11.5989V31.4668Z" fill="black"/>
<path d="M14.0386 29.1709C14.7079 29.1709 15.3378 29.146 15.9632 29.1914C16.0935 29.2002 16.2971 29.4611 16.3074 29.6179C16.3484 30.2041 16.3235 30.7947 16.3235 31.4439H14.0371V29.1709H14.0386Z" fill="black"/>
<path d="M12.7808 17.5038C10.572 17.5038 8.36472 17.5067 6.15597 17.5038C5.07503 17.5023 4.66492 17.0964 4.66345 16.0207C4.65906 12.7174 4.65906 9.41417 4.66345 6.11236C4.66492 5.08357 5.08968 4.6615 6.12375 4.6615C10.6086 4.6571 15.0935 4.6571 19.5784 4.6615C20.5641 4.6615 21.0006 5.08797 21.0035 6.08012C21.0138 9.42882 21.0152 12.7775 21.0035 16.1248C21.0006 17.0788 20.5597 17.4994 19.6121 17.5023C17.3359 17.5097 15.0584 17.5053 12.7822 17.5053L12.7808 17.5038ZM7.0509 7.01658V15.1238H18.6205V7.01658H7.0509Z" fill="black"/>
<path d="M30.9012 16.3516C30.8924 17.3115 30.1264 18.0663 29.1626 18.0648C28.1681 18.0648 27.4079 17.2793 27.4343 16.2798C27.4606 15.3111 28.2237 14.5871 29.2007 14.6018C30.1615 14.6179 30.91 15.3873 30.9012 16.3516ZM29.1377 15.5295C28.8843 15.8973 28.5796 16.1552 28.6221 16.3252C28.6792 16.5538 29.0044 16.7165 29.2153 16.9085C29.3882 16.7048 29.6884 16.5055 29.6957 16.2945C29.7031 16.0922 29.4087 15.8782 29.1377 15.5295Z" fill="black"/>
<path d="M30.2986 9.37305V11.6109H28.0371V9.37305H30.2986Z" fill="black"/>
<path d="M22.3723 56.7405C22.9142 57.2886 23.4254 57.8045 23.9365 58.3203C21.4905 60.8073 15.5658 61.99 11.0692 58.4874C6.38077 54.8368 5.60888 48.0808 9.3746 43.5245C13.256 38.829 19.9028 38.6033 23.8985 41.9168C23.3551 42.4371 22.8087 42.9617 22.2404 43.5069C18.1876 40.6975 13.5827 42.0809 11.2582 44.8229C8.632 47.9196 8.61296 52.3601 11.1776 55.4303C13.5783 58.3042 18.2272 59.6027 22.3723 56.742V56.7405Z" fill="#FEDE00"/>
<path d="M25.6379 43.6953C28.5307 46.8769 28.9657 52.7463 25.6716 56.6974C24.9993 56.0276 24.3914 55.2831 23.6518 54.7116C22.4214 53.7605 21.963 52.6027 22.1402 51.0625C22.2632 49.9838 22.127 48.8788 22.1842 47.79C22.2032 47.4294 22.3819 47.0044 22.628 46.7407C23.6005 45.6987 24.6287 44.708 25.6394 43.6968L25.6379 43.6953Z" fill="#FEDE00"/>
</svg>
